<?xml version="1.0" encoding="UTF-8" standalone="no"?>
<svg
   viewBox="0 0 1714.5651 596.46578"
   width="1714.5652"
   height="596.46576"
   version="1.1"
   id="svg877148"
   sodipodi:docname="vwsg r13.svg"
   inkscape:version="1.1.1 (3bf5ae0d25, 2021-09-20)"
   xmlns:inkscape="http://www.inkscape.org/namespaces/inkscape"
   xmlns:sodipodi="http://sodipodi.sourceforge.net/DTD/sodipodi-0.dtd"
   xmlns="http://www.w3.org/2000/svg"
   xmlns:svg="http://www.w3.org/2000/svg">
  <sodipodi:namedview
     id="namedview877150"
     pagecolor="#ffffff"
     bordercolor="#666666"
     borderopacity="1.0"
     inkscape:pageshadow="2"
     inkscape:pageopacity="0.0"
     inkscape:pagecheckerboard="0"
     showgrid="false"
     inkscape:zoom="0.39152989"
     inkscape:cx="989.70732"
     inkscape:cy="445.68755"
     inkscape:window-width="1920"
     inkscape:window-height="1129"
     inkscape:window-x="-8"
     inkscape:window-y="-8"
     inkscape:window-maximized="1"
     inkscape:current-layer="g877146" />
  <desc
     id="desc876659">vwsg r13.dxf - scale = 1.0, origin = (0.0, 0.0), method = manual</desc>
  <defs
     id="defs876674">
    <marker
       id="DistanceX"
       orient="auto"
       refX="0"
       refY="0"
       style="overflow:visible">
      <path
         d="M 3,-3 -3,3 M 0,-5 V 5"
         style="stroke:#000000;stroke-width:0.5"
         id="path876661" />
    </marker>
    <pattern
       id="Hatch"
       patternUnits="userSpaceOnUse"
       width="8"
       height="8"
       x="0"
       y="0">
      <path
         d="M8 4 l-4,4"
         stroke="#000000"
         stroke-width="0.25"
         linecap="square"
         id="path876664" />
      <path
         d="M6 2 l-4,4"
         stroke="#000000"
         stroke-width="0.25"
         linecap="square"
         id="path876666" />
      <path
         d="M4 0 l-4,4"
         stroke="#000000"
         stroke-width="0.25"
         linecap="square"
         id="path876668" />
    </pattern>
    <symbol
       id="*Model_Space" />
    <symbol
       id="*Paper_Space" />
    <symbol
       id="*Paper_Space0" />
  </defs>
  <g
     inkscape:groupmode="layer"
     inkscape:label="0"
     id="g877144"
     transform="translate(-30.377083,-447.12859)">
    <path
       style="fill:none;stroke:#000000"
       d="M 74.0625,630.603 H 270.016"
       id="path876676" />
    <path
       style="fill:none;stroke:#000000"
       d="M 80.61,632.612 H 270.016"
       id="path876678" />
    <path
       style="fill:none;stroke:#000000"
       d="m 1391.85,630.603 h 196.16"
       id="path876680" />
    <path
       style="fill:none;stroke:#000000"
       d="M 74.0625,630.603 V 602.687"
       id="path876682" />
    <path
       style="fill:none;stroke:#000000"
       d="M 1588.01,630.603 V 602.691"
       id="path876684" />
    <path
       d="M 74.062471,602.68734 707.90488,591.42571 a 1295.1473,1295.1473 0 0 0 21.64491,-0.56559"
       style="fill:none;stroke:#000000"
       id="path876686" />
    <path
       d="M 74.124251,606.16453 707.96666,594.90289 a 1298.6251,1298.6251 0 0 0 21.70303,-0.56711"
       style="fill:none;stroke:#000000"
       id="path876688" />
    <path
       d="M 1588.0091,602.69095 953.96357,591.42571 a 1295.1473,1295.1473 0 0 1 -21.64491,-0.56559"
       style="fill:none;stroke:#000000"
       id="path876690" />
    <path
       d="M 1588.0091,606.16923 953.90179,594.90289 a 1298.6251,1298.6251 0 0 1 -21.70303,-0.56711"
       style="fill:none;stroke:#000000"
       id="path876692" />
    <path
       d="m 932.31866,590.86012 a 5205.82,5205.82 0 0 0 -202.76887,0"
       style="fill:none;stroke:#000000"
       id="path876694" />
    <path
       d="m 932.25093,594.33719 a 5202.3423,5202.3423 0 0 0 -202.63341,0"
       style="fill:none;stroke:#000000"
       id="path876696" />
    <path
       d="M 330.18085,598.12715 A 609.56968,609.56968 0 0 0 487.88982,529.32594 750.17526,750.17526 0 0 1 830.93422,447.6331"
       style="fill:none;stroke:#000000"
       id="path876698" />
    <path
       d="m 338.01361,597.99766 a 611.5793,611.5793 0 0 0 150.8615,-66.91827 748.16563,748.16563 0 0 1 342.05214,-81.43667"
       style="fill:none;stroke:#000000"
       id="path876700" />
    <path
       d="M 1331.6876,598.12715 A 609.56968,609.56968 0 0 1 1173.9786,529.32594 750.17526,750.17526 0 0 0 830.93422,447.6331"
       style="fill:none;stroke:#000000"
       id="path876702" />
    <path
       d="M 1323.8548,597.99766 A 611.5793,611.5793 0 0 1 1172.9933,531.07939 748.16563,748.16563 0 0 0 830.9412,449.64272"
       style="fill:none;stroke:#000000"
       id="path876704" />
    <path
       d="m 270.01569,630.60276 a 292.5246,292.5246 0 0 1 42.10181,4.87873 530.14308,530.14308 0 0 1 52.20846,13.3119 255.81116,255.81116 0 0 1 50.85779,19.84695"
       style="fill:none;stroke:#000000"
       id="path876706" />
    <path
       d="m 269.97255,632.61239 a 290.51498,290.51498 0 0 1 41.75881,4.84131 528.13345,528.13345 0 0 1 52.03372,13.26979 253.80153,253.80153 0 0 1 51.41867,20.18372"
       style="fill:none;stroke:#000000"
       id="path876708" />
    <path
       d="m 415.18375,668.64034 a 415.18249,415.18249 0 0 1 112.87949,-96.0873 496.1854,496.1854 0 0 1 141.52081,-65.85938 620.85159,620.85159 0 0 1 161.35017,-23.4982"
       style="fill:none;stroke:#000000"
       id="path876710" />
    <path
       d="M 415.18375,670.90721 A 431.41507,431.41507 0 0 1 529.13068,574.2571 494.17578,494.17578 0 0 1 670.13355,508.6267 618.84196,618.84196 0 0 1 830.9602,485.20492"
       style="fill:none;stroke:#000000"
       id="path876712" />
    <path
       d="M 1246.6847,668.64034 A 415.18249,415.18249 0 0 0 1133.8052,572.55304 496.1854,496.1854 0 0 0 992.2844,506.69366 620.85159,620.85159 0 0 0 830.93422,483.19546"
       style="fill:none;stroke:#000000"
       id="path876714" />
    <path
       d="M 1246.6847,670.90721 A 431.56402,431.56402 0 0 0 1132.7378,574.2571 494.17578,494.17578 0 0 0 991.7349,508.6267 618.84196,618.84196 0 0 0 830.90825,485.20492"
       style="fill:none;stroke:#000000"
       id="path876716" />
    <path
       style="fill:none;stroke:#000000"
       d="m 78.7866,971.147 v 64.513"
       id="path876718" />
    <path
       style="fill:none;stroke:#000000"
       d="m 97.8048,971.147 v 64.513"
       id="path876720" />
    <path
       style="fill:none;stroke:#000000"
       d="m 116.621,971.147 v 64.513"
       id="path876722" />
    <path
       style="fill:none;stroke:#000000"
       d="m 135.431,971.147 v 64.513"
       id="path876724" />
    <path
       style="fill:none;stroke:#000000"
       d="m 154.456,971.147 v 64.513"
       id="path876726" />
    <path
       style="fill:none;stroke:#000000"
       d="m 173.266,971.147 v 64.513"
       id="path876728" />
    <path
       style="fill:none;stroke:#000000"
       d="m 192.284,971.147 v 64.513"
       id="path876730" />
    <path
       style="fill:none;stroke:#000000"
       d="m 211.101,971.147 v 64.513"
       id="path876732" />
    <path
       style="fill:none;stroke:#000000"
       d="m 230.12,971.147 v 64.513"
       id="path876734" />
    <path
       style="fill:none;stroke:#000000"
       d="m 248.936,971.147 v 64.513"
       id="path876736" />
    <path
       style="fill:none;stroke:#000000"
       d="m 267.746,971.147 v 64.513"
       id="path876738" />
    <path
       style="fill:none;stroke:#000000"
       d="m 286.764,971.147 v 64.513"
       id="path876740" />
    <path
       style="fill:none;stroke:#000000"
       d="m 305.579,971.147 v 64.513"
       id="path876742" />
    <path
       style="fill:none;stroke:#000000"
       d="m 324.599,971.147 v 64.513"
       id="path876744" />
    <path
       style="fill:none;stroke:#000000"
       d="m 343.415,971.147 v 64.513"
       id="path876746" />
    <path
       style="fill:none;stroke:#000000"
       d="m 368.013,971.147 v 64.513"
       id="path876748" />
    <path
       style="fill:none;stroke:#000000"
       d="m 392.617,971.147 v 64.513"
       id="path876750" />
    <path
       style="fill:none;stroke:#000000"
       d="m 419.076,971.147 v 64.513"
       id="path876752" />
    <path
       style="fill:none;stroke:#000000"
       d="m 445.54,971.147 v 64.513"
       id="path876754" />
    <path
       style="fill:none;stroke:#000000"
       d="m 470.144,971.147 v 64.513"
       id="path876756" />
    <path
       style="fill:none;stroke:#000000"
       d="m 494.538,971.147 v 64.513"
       id="path876758" />
    <path
       style="fill:none;stroke:#000000"
       d="m 519.141,971.147 v 64.513"
       id="path876760" />
    <path
       style="fill:none;stroke:#000000"
       d="m 543.74,971.147 v 64.513"
       id="path876762" />
    <path
       style="fill:none;stroke:#000000"
       d="m 566.488,971.147 v 64.513"
       id="path876764" />
    <path
       style="fill:none;stroke:#000000"
       d="m 589.02,971.147 v 64.513"
       id="path876766" />
    <path
       style="fill:none;stroke:#000000"
       d="m 608.037,971.147 v 64.513"
       id="path876768" />
    <path
       style="fill:none;stroke:#000000"
       d="m 626.854,971.147 v 64.513"
       id="path876770" />
    <path
       style="fill:none;stroke:#000000"
       d="m 645.87,971.147 v 64.513"
       id="path876772" />
    <path
       style="fill:none;stroke:#000000"
       d="m 664.687,971.147 v 64.513"
       id="path876774" />
    <path
       style="fill:none;stroke:#000000"
       d="m 683.709,971.147 v 64.513"
       id="path876776" />
    <path
       style="fill:none;stroke:#000000"
       d="m 702.515,971.147 v 64.513"
       id="path876778" />
    <path
       style="fill:none;stroke:#000000"
       d="m 721.332,971.147 v 64.513"
       id="path876780" />
    <path
       style="fill:none;stroke:#000000"
       d="m 740.353,971.147 v 64.513"
       id="path876782" />
    <path
       style="fill:none;stroke:#000000"
       d="m 759.17,971.147 v 64.513"
       id="path876784" />
    <path
       style="fill:none;stroke:#000000"
       d="m 778.187,971.147 v 64.513"
       id="path876786" />
    <path
       style="fill:none;stroke:#000000"
       d="m 796.998,971.147 v 64.513"
       id="path876788" />
    <path
       style="fill:none;stroke:#000000"
       d="m 815.815,971.147 v 64.513"
       id="path876790" />
    <path
       style="fill:none;stroke:#000000"
       d="m 834.832,971.147 v 64.513"
       id="path876792" />
    <path
       style="fill:none;stroke:#000000"
       d="M 78.7866,971.147 H 1708.51"
       id="path876794" />
    <path
       style="fill:none;stroke:#000000"
       d="M 78.7866,981.693 H 1708.51"
       id="path876796" />
    <path
       style="fill:none;stroke:#000000"
       d="M 78.7866,985.414 H 1708.51"
       id="path876798" />
    <path
       style="fill:none;stroke:#000000"
       d="M 78.7866,1003.4 H 1708.51"
       id="path876800" />
    <path
       style="fill:none;stroke:#000000"
       d="M 78.7866,1035.66 H 1708.51"
       id="path876802" />
    <path
       style="fill:none;stroke:#000000"
       d="M 78.7866,1025.11 H 1708.51"
       id="path876804" />
    <path
       style="fill:none;stroke:#000000"
       d="M 78.7866,1021.39 H 1708.51"
       id="path876806" />
    <path
       style="fill:none;stroke:#000000"
       d="m 1590.88,971.147 v 64.513"
       id="path876808" />
    <path
       style="fill:none;stroke:#000000"
       d="m 1571.86,971.147 v 64.513"
       id="path876810" />
    <path
       style="fill:none;stroke:#000000"
       d="m 1553.04,971.147 v 64.513"
       id="path876812" />
    <path
       style="fill:none;stroke:#000000"
       d="m 1534.23,971.147 v 64.513"
       id="path876814" />
    <path
       style="fill:none;stroke:#000000"
       d="m 1515.21,971.147 v 64.513"
       id="path876816" />
    <path
       style="fill:none;stroke:#000000"
       d="m 1496.4,971.147 v 64.513"
       id="path876818" />
    <path
       style="fill:none;stroke:#000000"
       d="m 1477.38,971.147 v 64.513"
       id="path876820" />
    <path
       style="fill:none;stroke:#000000"
       d="m 1458.56,971.147 v 64.513"
       id="path876822" />
    <path
       style="fill:none;stroke:#000000"
       d="m 1439.54,971.147 v 64.513"
       id="path876824" />
    <path
       style="fill:none;stroke:#000000"
       d="m 1420.73,971.147 v 64.513"
       id="path876826" />
    <path
       style="fill:none;stroke:#000000"
       d="m 1401.92,971.147 v 64.513"
       id="path876828" />
    <path
       style="fill:none;stroke:#000000"
       d="m 1382.9,971.147 v 64.513"
       id="path876830" />
    <path
       style="fill:none;stroke:#000000"
       d="m 1364.08,971.147 v 64.513"
       id="path876832" />
    <path
       style="fill:none;stroke:#000000"
       d="m 1345.06,971.147 v 64.513"
       id="path876834" />
    <path
       style="fill:none;stroke:#000000"
       d="m 1326.25,971.147 v 64.513"
       id="path876836" />
    <path
       style="fill:none;stroke:#000000"
       d="m 1301.65,971.147 v 64.513"
       id="path876838" />
    <path
       style="fill:none;stroke:#000000"
       d="m 1277.05,971.147 v 64.513"
       id="path876840" />
    <path
       style="fill:none;stroke:#000000"
       d="m 1250.59,971.147 v 64.513"
       id="path876842" />
    <path
       style="fill:none;stroke:#000000"
       d="m 1224.12,971.147 v 64.513"
       id="path876844" />
    <path
       style="fill:none;stroke:#000000"
       d="m 1199.52,971.147 v 64.513"
       id="path876846" />
    <path
       style="fill:none;stroke:#000000"
       d="m 1175.13,971.147 v 64.513"
       id="path876848" />
    <path
       style="fill:none;stroke:#000000"
       d="m 1150.52,971.147 v 64.513"
       id="path876850" />
    <path
       style="fill:none;stroke:#000000"
       d="m 1125.92,971.147 v 64.513"
       id="path876852" />
    <path
       style="fill:none;stroke:#000000"
       d="m 1103.18,971.147 v 64.513"
       id="path876854" />
    <path
       style="fill:none;stroke:#000000"
       d="m 1080.64,971.147 v 64.513"
       id="path876856" />
    <path
       style="fill:none;stroke:#000000"
       d="m 1061.63,971.147 v 64.513"
       id="path876858" />
    <path
       style="fill:none;stroke:#000000"
       d="m 1042.81,971.147 v 64.513"
       id="path876860" />
    <path
       style="fill:none;stroke:#000000"
       d="m 1023.79,971.147 v 64.513"
       id="path876862" />
    <path
       style="fill:none;stroke:#000000"
       d="m 1004.98,971.147 v 64.513"
       id="path876864" />
    <path
       style="fill:none;stroke:#000000"
       d="m 985.954,971.147 v 64.513"
       id="path876866" />
    <path
       style="fill:none;stroke:#000000"
       d="m 967.148,971.147 v 64.513"
       id="path876868" />
    <path
       style="fill:none;stroke:#000000"
       d="m 948.331,971.147 v 64.513"
       id="path876870" />
    <path
       style="fill:none;stroke:#000000"
       d="m 929.31,971.147 v 64.513"
       id="path876872" />
    <path
       style="fill:none;stroke:#000000"
       d="m 910.493,971.147 v 64.513"
       id="path876874" />
    <path
       style="fill:none;stroke:#000000"
       d="m 891.476,971.147 v 64.513"
       id="path876876" />
    <path
       style="fill:none;stroke:#000000"
       d="m 872.665,971.147 v 64.513"
       id="path876878" />
    <path
       style="fill:none;stroke:#000000"
       d="m 853.848,971.147 v 64.513"
       id="path876880" />
    <path
       style="fill:none;stroke:#000000"
       d="M 1708.51,1035.66 V 971.147"
       id="path876882" />
    <path
       d="m 1391.8528,630.60276 a 292.5246,292.5246 0 0 0 -42.1018,4.87873 530.14308,530.14308 0 0 0 -52.2085,13.3119 255.81116,255.81116 0 0 0 -50.8578,19.84695"
       style="fill:none;stroke:#000000"
       id="path876884" />
    <path
       d="m 1391.8959,632.61239 a 290.51498,290.51498 0 0 0 -41.7588,4.84131 528.13345,528.13345 0 0 0 -52.0337,13.26979 253.80153,253.80153 0 0 0 -51.4187,20.18372"
       style="fill:none;stroke:#000000"
       id="path876886" />
    <path
       style="fill:none;stroke:#000000"
       d="m 93.9094,602.335 v 28.268"
       id="path876888" />
    <path
       style="fill:none;stroke:#000000"
       d="m 112.719,602.001 v 28.602"
       id="path876890" />
    <path
       style="fill:none;stroke:#000000"
       d="m 131.744,601.662 v 28.941"
       id="path876892" />
    <path
       style="fill:none;stroke:#000000"
       d="m 150.554,601.328 v 29.275"
       id="path876894" />
    <path
       style="fill:none;stroke:#000000"
       d="m 169.572,600.99 v 29.613"
       id="path876896" />
    <path
       style="fill:none;stroke:#000000"
       d="m 188.389,600.656 v 29.947"
       id="path876898" />
    <path
       style="fill:none;stroke:#000000"
       d="m 207.199,600.322 v 30.281"
       id="path876900" />
    <path
       style="fill:none;stroke:#000000"
       d="m 226.224,599.984 v 30.619"
       id="path876902" />
    <path
       style="fill:none;stroke:#000000"
       d="m 245.034,599.65 v 30.953"
       id="path876904" />
    <path
       style="fill:none;stroke:#000000"
       d="m 264.052,599.312 v 31.291"
       id="path876906" />
    <path
       style="fill:none;stroke:#000000"
       d="m 282.869,598.977 v 32.461"
       id="path876908" />
    <path
       style="fill:none;stroke:#000000"
       d="m 301.679,598.643 v 35.049"
       id="path876910" />
    <path
       style="fill:none;stroke:#000000"
       d="m 320.704,598.305 v 38.981"
       id="path876912" />
    <path
       style="fill:none;stroke:#000000"
       d="m 339.512,595.467 v 46.294"
       id="path876914" />
    <path
       style="fill:none;stroke:#000000"
       d="m 364.116,587.671 v 61.057"
       id="path876916" />
    <path
       style="fill:none;stroke:#000000"
       d="m 388.715,578.706 v 78.043"
       id="path876918" />
    <path
       style="fill:none;stroke:#000000"
       d="M 415.184,567.686 V 670.907"
       id="path876920" />
    <path
       style="fill:none;stroke:#000000"
       d="m 441.643,555.164 v 84.13"
       id="path876922" />
    <path
       style="fill:none;stroke:#000000"
       d="m 466.242,542.079 v 74.343"
       id="path876924" />
    <path
       style="fill:none;stroke:#000000"
       d="m 490.845,527.829 v 69.072"
       id="path876926" />
    <path
       style="fill:none;stroke:#000000"
       d="m 515.244,516.086 v 78.763"
       id="path876928" />
    <path
       style="fill:none;stroke:#000000"
       d="m 539.847,505.316 v 89.096"
       id="path876930" />
    <path
       style="fill:none;stroke:#000000"
       d="m 562.585,496.275 v 97.733"
       id="path876932" />
    <path
       style="fill:none;stroke:#000000"
       d="M 585.323,488.078 V 593.604"
       id="path876934" />
    <path
       style="fill:none;stroke:#000000"
       d="M 604.14,481.912 V 593.269"
       id="path876936" />
    <path
       style="fill:none;stroke:#000000"
       d="M 623.162,476.23 V 592.931"
       id="path876938" />
    <path
       style="fill:none;stroke:#000000"
       d="M 641.968,471.146 V 592.597"
       id="path876940" />
    <path
       style="fill:none;stroke:#000000"
       d="M 660.785,466.578 V 592.263"
       id="path876942" />
    <path
       style="fill:none;stroke:#000000"
       d="M 679.806,462.479 V 591.925"
       id="path876944" />
    <path
       style="fill:none;stroke:#000000"
       d="M 698.623,458.927 V 591.591"
       id="path876946" />
    <path
       style="fill:none;stroke:#000000"
       d="M 717.64,455.84 V 591.216"
       id="path876948" />
    <path
       style="fill:none;stroke:#000000"
       d="M 736.456,453.276 V 590.73"
       id="path876950" />
    <path
       style="fill:none;stroke:#000000"
       d="M 755.268,451.195 V 590.423"
       id="path876952" />
    <path
       style="fill:none;stroke:#000000"
       d="M 774.284,449.578 V 590.181"
       id="path876954" />
    <path
       style="fill:none;stroke:#000000"
       d="M 793.101,448.456 V 590.01"
       id="path876956" />
    <path
       style="fill:none;stroke:#000000"
       d="M 812.118,447.804 V 589.907"
       id="path876958" />
    <path
       style="fill:none;stroke:#000000"
       d="m 830.934,447.633 v 142.24"
       id="path876960" />
    <path
       style="fill:none;stroke:#000000"
       d="m 1567.96,602.335 v 28.268"
       id="path876962" />
    <path
       style="fill:none;stroke:#000000"
       d="m 1549.15,602.001 v 28.602"
       id="path876964" />
    <path
       style="fill:none;stroke:#000000"
       d="m 1530.12,601.662 v 28.941"
       id="path876966" />
    <path
       style="fill:none;stroke:#000000"
       d="m 1511.31,601.328 v 29.275"
       id="path876968" />
    <path
       style="fill:none;stroke:#000000"
       d="m 1492.3,600.99 v 29.613"
       id="path876970" />
    <path
       style="fill:none;stroke:#000000"
       d="m 1473.48,600.656 v 29.947"
       id="path876972" />
    <path
       style="fill:none;stroke:#000000"
       d="m 1454.67,600.322 v 30.281"
       id="path876974" />
    <path
       style="fill:none;stroke:#000000"
       d="m 1435.64,599.984 v 30.619"
       id="path876976" />
    <path
       style="fill:none;stroke:#000000"
       d="m 1416.83,599.65 v 30.953"
       id="path876978" />
    <path
       style="fill:none;stroke:#000000"
       d="m 1397.82,599.312 v 31.291"
       id="path876980" />
    <path
       style="fill:none;stroke:#000000"
       d="m 1379,598.977 v 32.461"
       id="path876982" />
    <path
       style="fill:none;stroke:#000000"
       d="m 1360.19,598.643 v 35.049"
       id="path876984" />
    <path
       style="fill:none;stroke:#000000"
       d="m 1341.16,598.305 v 38.981"
       id="path876986" />
    <path
       style="fill:none;stroke:#000000"
       d="m 1322.36,595.467 v 46.294"
       id="path876988" />
    <path
       style="fill:none;stroke:#000000"
       d="m 1297.75,587.671 v 61.057"
       id="path876990" />
    <path
       style="fill:none;stroke:#000000"
       d="m 1273.15,578.706 v 78.043"
       id="path876992" />
    <path
       style="fill:none;stroke:#000000"
       d="M 1246.68,567.686 V 670.907"
       id="path876994" />
    <path
       style="fill:none;stroke:#000000"
       d="m 1220.23,555.164 v 84.13"
       id="path876996" />
    <path
       style="fill:none;stroke:#000000"
       d="m 1195.63,542.079 v 74.343"
       id="path876998" />
    <path
       style="fill:none;stroke:#000000"
       d="m 1171.02,527.829 v 69.072"
       id="path877000" />
    <path
       style="fill:none;stroke:#000000"
       d="m 1146.62,516.086 v 78.763"
       id="path877002" />
    <path
       style="fill:none;stroke:#000000"
       d="m 1122.02,505.316 v 89.096"
       id="path877004" />
    <path
       style="fill:none;stroke:#000000"
       d="m 1099.28,496.275 v 97.733"
       id="path877006" />
    <path
       style="fill:none;stroke:#000000"
       d="M 1076.55,488.078 V 593.604"
       id="path877008" />
    <path
       style="fill:none;stroke:#000000"
       d="M 1057.73,481.912 V 593.269"
       id="path877010" />
    <path
       style="fill:none;stroke:#000000"
       d="M 1038.71,476.23 V 592.931"
       id="path877012" />
    <path
       style="fill:none;stroke:#000000"
       d="M 1019.9,471.146 V 592.597"
       id="path877014" />
    <path
       style="fill:none;stroke:#000000"
       d="M 1001.08,466.578 V 592.263"
       id="path877016" />
    <path
       style="fill:none;stroke:#000000"
       d="M 982.062,462.479 V 591.925"
       id="path877018" />
    <path
       style="fill:none;stroke:#000000"
       d="M 963.246,458.927 V 591.591"
       id="path877020" />
    <path
       style="fill:none;stroke:#000000"
       d="M 944.229,455.84 V 591.216"
       id="path877022" />
    <path
       style="fill:none;stroke:#000000"
       d="M 925.412,453.276 V 590.73"
       id="path877024" />
    <path
       style="fill:none;stroke:#000000"
       d="M 906.601,451.195 V 590.423"
       id="path877026" />
    <path
       style="fill:none;stroke:#000000"
       d="M 887.584,449.578 V 590.181"
       id="path877028" />
    <path
       style="fill:none;stroke:#000000"
       d="M 868.767,448.456 V 590.01"
       id="path877030" />
    <path
       style="fill:none;stroke:#000000"
       d="M 849.751,447.804 V 589.907"
       id="path877032" />
    <path
       style="fill:none;stroke:#000000"
       d="m 93.9094,605.813 -19.8469,24.79"
       id="path877034" />
    <path
       style="fill:none;stroke:#000000"
       d="M 112.719,605.479 93.9094,630.603"
       id="path877036" />
    <path
       style="fill:none;stroke:#000000"
       d="m 131.744,605.141 -19.025,25.462"
       id="path877038" />
    <path
       style="fill:none;stroke:#000000"
       d="m 150.554,604.807 -18.81,25.796"
       id="path877040" />
    <path
       style="fill:none;stroke:#000000"
       d="m 169.572,604.469 -19.018,26.134"
       id="path877042" />
    <path
       style="fill:none;stroke:#000000"
       d="m 188.389,604.134 -18.817,26.469"
       id="path877044" />
    <path
       style="fill:none;stroke:#000000"
       d="m 207.199,603.8 -18.81,26.803"
       id="path877046" />
    <path
       style="fill:none;stroke:#000000"
       d="m 226.224,603.462 -19.025,27.141"
       id="path877048" />
    <path
       style="fill:none;stroke:#000000"
       d="m 245.034,603.128 -18.81,27.475"
       id="path877050" />
    <path
       style="fill:none;stroke:#000000"
       d="m 264.052,602.79 -19.018,27.809"
       id="path877052" />
    <path
       d="m 59.385794,681.87078 h 3.714465 v 62.44168 h -3.714465 z"
       style="fill:none;stroke:#000000"
       id="path877054" />
    <path
       d="m 70.542374,681.87078 h 3.931785 v 62.44168 h -3.931785 z"
       style="fill:none;stroke:#000000"
       id="path877056" />
    <path
       d="m 81.916762,681.87078 h 3.929831 v 62.44168 h -3.929831 z"
       style="fill:none;stroke:#000000"
       id="path877058" />
    <path
       d="m 57.313195,674.42817 8.27135,-1.85576 h 15.093248 l 7.026033,1.85576 v 7.44261 H 57.313195 v -7.44261"
       style="fill:none;stroke:#000000"
       id="path877060" />
    <path
       d="m 67.448614,609.93049 v 62.64192 h 11.36511 v -41.34943 h -5.786576 v -28.73509 l -2.484774,0.20023 v 7.24237 h -3.09376"
       style="fill:none;stroke:#000000"
       id="path877062" />
    <path
       style="fill:none;stroke:#000000"
       d="m 80.61,632.612 v -2.009"
       id="path877064" />
    <path
       style="fill:none;stroke:#000000"
       d="M 1581.26,632.612 H 1391.85"
       id="path877066" />
    <path
       style="fill:none;stroke:#000000"
       d="m 1581.26,632.612 v -2.009"
       id="path877068" />
    <path
       d="m 407.53115,669.88077 h 15.29543 v 5.78706 h -15.29543 z"
       style="fill:none;stroke:#000000"
       id="path877070" />
    <path
       d="m 388.71465,679.38913 18.8165,-3.7213 h 15.29543 l 18.81651,3.7213 h -52.92844"
       style="fill:none;stroke:#000000"
       id="path877072" />
    <path
       d="m 388.71465,679.38913 h 52.92844 v 9.51325 h -52.92844 z"
       style="fill:none;stroke:#000000"
       id="path877074" />
    <path
       d="M 390.58018,688.90238 362.00393,888.3192 h 3.84023 L 394.5066,688.90238 h -3.92642"
       style="fill:none;stroke:#000000"
       id="path877076" />
    <path
       d="M 401.95409,688.90238 373.37783,888.3192 h 3.84023 L 405.8805,688.90238 h -3.92641"
       style="fill:none;stroke:#000000"
       id="path877078" />
    <path
       d="M 413.31822,688.90238 384.74196,888.3192 h 3.84024 l 28.66243,-199.41682 h -3.92641"
       style="fill:none;stroke:#000000"
       id="path877080" />
    <path
       d="m 424.69212,688.90238 h 3.7213 V 888.3192 h -3.7213 z"
       style="fill:none;stroke:#000000"
       id="path877082" />
    <path
       d="m 436.06113,688.90238 h 3.72131 V 888.3192 h -3.72131 z"
       style="fill:none;stroke:#000000"
       id="path877084" />
    <path
       d="m 1254.3373,669.88077 h -15.2954 v 5.78706 h 15.2954 z"
       style="fill:none;stroke:#000000"
       id="path877086" />
    <path
       d="m 1273.1538,679.38913 -18.8165,-3.7213 h -15.2954 l -18.8165,3.7213 h 52.9284"
       style="fill:none;stroke:#000000"
       id="path877088" />
    <path
       d="m 1273.1538,679.38913 h -52.9284 v 9.51325 h 52.9284 z"
       style="fill:none;stroke:#000000"
       id="path877090" />
    <path
       d="m 1271.2883,688.90238 28.5762,199.41682 h -3.8402 l -28.6624,-199.41682 h 3.9264"
       style="fill:none;stroke:#000000"
       id="path877092" />
    <path
       d="m 1259.9144,688.90238 28.5762,199.41682 h -3.8402 L 1255.988,688.90238 h 3.9264"
       style="fill:none;stroke:#000000"
       id="path877094" />
    <path
       d="m 1248.5502,688.90238 28.5763,199.41682 h -3.8402 l -28.6625,-199.41682 h 3.9264"
       style="fill:none;stroke:#000000"
       id="path877096" />
    <path
       d="m 1237.1763,688.90238 h -3.7213 V 888.3192 h 3.7213 z"
       style="fill:none;stroke:#000000"
       id="path877098" />
    <path
       d="m 1225.8073,688.90238 h -3.7213 V 888.3192 h 3.7213 z"
       style="fill:none;stroke:#000000"
       id="path877100" />
    <path
       d="m 30.44022,664.91981 180.27851,22.94803 55.18713,25.34669 7.45283,1.32263 8.28497,0.93604 6.18513,2.58016 4.90501,4.43577 4.05555,5.18587 45.85206,-1.76119 18.26971,-4.13915 h 19.33049 l 23.77824,8.26793 5.45039,5.15137 7.98927,1.6759 14.46522,3.92153 5.17173,3.7213 8.88814,6.20705 2.73536,1.49418 11.94474,3.67267 17.52424,2.60662 62.27375,1.11468 21.91271,-3.7213 15.11727,-3.01392 4.93967,-0.1946 37.83323,-4.44408 9.71836,-3.51131 39.899,-0.20999 13.23455,3.51131 25.01379,7.86259 h 8.88815 l 21.08737,-3.9313 57.88529,1.86554 5.29462,0.17063 h 54.52652 l 5.30652,0.23959 15.29543,-1.44555 6.20706,-0.83021 13.33988,-1.78424 14.77011,5.71554 h 23.77335 l 17.37096,-7.6526 13.84989,-1.44554 11.1639,1.44554 h 7.85283 l 11.31079,-2.51598 13.08766,-4.51152 10.1286,-4.33663 h 10.5437 l 19.8469,3.7213 114.325,7.64283 37.9464,-0.0542 24.4905,-6.77539 74.636,-0.81321 22.948,7.64283 h 55.4044 l 25.634,-7.4426 42.795,-11.36902 11.2689,-4.04193 10.0236,-3.81578 53.7145,-19.43183 31.8754,-10.54369 55.4093,-19.01673 11.1639,-3.72131 44.2406,-3.7213 79.3877,-2.89597"
       style="fill:none;stroke:#000000"
       id="path877102" />
    <path
       d="m 1588.8413,602.48789 2.2709,0.20023 v 6.61727 h 3.1011 v 1.44555 h 1.4504 v 2.89597 l -1.2404,2.27087 v 55.40931 h -11.164 v -40.10411 h 5.582 v -28.73509"
       style="fill:none;stroke:#000000"
       id="path877104" />
    <path
       d="m 1596.489,671.32709 h -15.3003 l -7.4426,3.10108 h 30.1855 z"
       style="fill:none;stroke:#000000"
       id="path877106" />
    <path
       d="m 1573.7461,674.42817 h 30.1855 v 7.44261 h -30.1855 z"
       style="fill:none;stroke:#000000"
       id="path877108" />
    <path
       d="m 1575.6068,681.87078 h 3.7213 v 206.44919 h -3.7213 z"
       style="fill:none;stroke:#000000"
       id="path877110" />
    <path
       d="m 1586.9807,681.87078 h 3.7213 v 206.44919 h -3.7213 z"
       style="fill:none;stroke:#000000"
       id="path877112" />
    <path
       d="m 1598.3497,681.87078 h 3.7213 v 206.44919 h -3.7213 z"
       style="fill:none;stroke:#000000"
       id="path877114" />
    <path
       d="m 1591.5273,609.10028 114.9452,1.03044 v -6.61668 l -114.9452,-1.18911 v 6.77535"
       style="fill:none;stroke:#000000"
       id="path877116" />
    <path
       d="m 1703.7866,610.55071 h 3.101 v 0.62022 h 6.6173 v 5.16684 h -11.1639 v -3.93129 h 1.4456 v -1.85577"
       style="fill:none;stroke:#000000"
       id="path877118" />
    <path
       d="m 1702.341,616.33777 0.8253,3.10109 h 9.5084 l 0.8302,-3.10109 h -11.1639"
       style="fill:none;stroke:#000000"
       id="path877120" />
    <path
       d="m 1703.1663,619.43886 h 9.5084 v 42.9952 h -9.5084 z"
       style="fill:none;stroke:#000000"
       id="path877122" />
    <path
       d="m 1701.3057,662.43406 h 13.2297 l 8.4779,2.89597 h -30.1855 l 8.4779,-2.89597"
       style="fill:none;stroke:#000000"
       id="path877124" />
    <path
       d="m 1692.8278,665.33003 h 30.1855 v 7.6526 h -30.1855 z"
       style="fill:none;stroke:#000000"
       id="path877126" />
    <path
       d="m 1694.6884,672.98263 h 3.7213 v 215.33734 h -3.7213 z"
       style="fill:none;stroke:#000000"
       id="path877128" />
    <path
       d="m 1706.0623,672.98263 h 3.7213 v 215.33734 h -3.7213 z"
       style="fill:none;stroke:#000000"
       id="path877130" />
    <path
       d="m 1717.4313,672.98263 h 3.7213 v 215.33734 h -3.7213 z"
       style="fill:none;stroke:#000000"
       id="path877132" />
    <path
       d="m 63.691362,969.28998 h 30.190404 v 68.01732 H 63.691362 Z"
       style="fill:none;stroke:#000000"
       id="path877134" />
    <path
       d="m 392.61683,963.70266 h 52.92356 v 79.39164 h -52.92356 z"
       style="fill:none;stroke:#000000"
       id="path877136" />
    <path
       d="m 1224.1227,963.70266 h 52.9235 v 79.39164 h -52.9235 z"
       style="fill:none;stroke:#000000"
       id="path877138" />
    <path
       d="m 1575.5757,969.28998 h 30.3906 v 68.01732 h -30.3906 z"
       style="fill:none;stroke:#000000"
       id="path877140" />
    <path
       d="m 1693.4169,969.28998 h 30.1855 v 68.01732 h -30.1855 z"
       style="fill:none;stroke:#000000"
       id="path877142" />
  </g>
  <g
     inkscape:groupmode="layer"
     inkscape:label="IQBAL"
     id="g877146"
     transform="translate(-30.377083,-447.12859)" />
</svg>
