<?xml version="1.0" encoding="utf-8"?>
<!-- Generator: Adobe Illustrator 26.0.2, SVG Export Plug-In . SVG Version: 6.00 Build 0)  -->
<svg >
<style type="text/css">
	.st0{fill:none;stroke:#000000;stroke-width:0.7087;stroke-linecap:round;stroke-linejoin:round;stroke-miterlimit:10;}
</style>
<g id="MTEXT">
</g>
<g id="LINE">
	<line class="st0" x1="21.01" y1="87" x2="113.8" y2="87"/>
</g>
<g id="LINE_00000167395021385279285050000008234562734617206161_">
	<line class="st0" x1="24.11" y1="87.95" x2="113.8" y2="87.95"/>
</g>
<g id="LINE_00000034808284276167604580000007299613257838053033_">
	<line class="st0" x1="645.03" y1="87" x2="737.91" y2="87"/>
</g>
<g id="LINE_00000000201076602231067010000006480240936320939427_">
	<line class="st0" x1="21.01" y1="87" x2="21.01" y2="73.78"/>
</g>
<g id="LINE_00000065037085468631851810000002703774210565103515_">
	<line class="st0" x1="737.91" y1="87" x2="737.91" y2="73.78"/>
</g>
<g id="LWPOLYLINE">
	<path class="st0" d="M21.01,73.78l300.15-5.33c3.42-0.06,6.83-0.15,10.25-0.27"/>
</g>
<g id="LWPOLYLINE_00000132788390946955735260000010459854237189343660_">
	<path class="st0" d="M21.04,75.43l300.15-5.33c3.43-0.06,6.85-0.15,10.28-0.27"/>
</g>
<g id="LWPOLYLINE_00000160908725191189371240000005350310036705240238_">
	<path class="st0" d="M737.91,73.78l-300.24-5.33c-3.42-0.06-6.83-0.15-10.25-0.27"/>
</g>
<g id="LWPOLYLINE_00000062191482815382494040000000181805200600146328_">
	<path class="st0" d="M737.91,75.43l-300.27-5.33c-3.43-0.06-6.85-0.15-10.28-0.27"/>
</g>
<g id="ARC">
	<path class="st0" d="M427.42,68.18c-32-0.62-64.01-0.62-96.02,0"/>
</g>
<g id="ARC_00000142142241981766398140000000854178150332325554_">
	<path class="st0" d="M427.39,69.83c-31.98-0.62-63.97-0.62-95.95,0"/>
</g>
<g id="LWPOLYLINE_00000023997174710980846570000017553545748662478470_">
	<path class="st0" d="M142.29,71.62c26.31-7.27,51.45-18.24,74.68-32.58c50.3-25.62,105.99-38.88,162.44-38.68"/>
</g>
<g id="LWPOLYLINE_00000087383967942362522220000008842174152099264424_">
	<path class="st0" d="M146,71.56c25.14-7.29,49.17-17.95,71.44-31.69C267.6,14.33,323.12,1.11,379.41,1.31"/>
</g>
<g id="LWPOLYLINE_00000111869679784425403800000005679687729442468250_">
	<path class="st0" d="M616.54,71.62c-26.31-7.27-51.45-18.24-74.68-32.58C491.55,13.42,435.87,0.16,379.41,0.36"/>
</g>
<g id="LWPOLYLINE_00000169538980847435307510000000084209297986156686_">
	<path class="st0" d="M612.83,71.56c-25.14-7.29-49.17-17.95-71.44-31.69C491.23,14.33,435.71,1.11,379.42,1.31"/>
</g>
<g id="LWPOLYLINE_00000065034202964502839810000012972875356533921684_">
	<path class="st0" d="M113.8,87c6.69,0.29,13.36,1.06,19.94,2.31c8.34,1.68,16.59,3.78,24.72,6.3c8.34,2.26,16.41,5.42,24.08,9.4"/>
</g>
<g id="LWPOLYLINE_00000138548817147473735820000010880134524777420974_">
	<path class="st0" d="M113.78,87.95c6.64,0.29,13.25,1.05,19.77,2.29c8.31,1.68,16.54,3.77,24.64,6.28
		c8.44,2.29,16.6,5.5,24.35,9.56"/>
</g>
<g id="LWPOLYLINE_00000066499299890050156780000015501251296904784514_">
	<path class="st0" d="M182.54,105.01c14.94-18.25,33.05-33.66,53.45-45.5c20.55-13.87,43.17-24.39,67.01-31.19
		c24.87-7.05,50.56-10.79,76.4-11.13"/>
</g>
<g id="LWPOLYLINE_00000081621899426896547590000008656745405166742438_">
	<path class="st0" d="M182.54,106.08c15.19-18.28,33.45-33.77,53.96-45.77c20.48-13.82,43.01-24.31,66.77-31.08
		c24.79-7.03,50.39-10.76,76.16-11.09"/>
</g>
<g id="LWPOLYLINE_00000134215718461872358060000004759789338648976302_">
	<path class="st0" d="M576.29,105.01c-14.94-18.25-33.05-33.66-53.45-45.5c-20.55-13.87-43.17-24.39-67.01-31.19
		c-24.87-7.05-50.56-10.79-76.4-11.13"/>
</g>
<g id="LWPOLYLINE_00000153707673054575725130000000334664035320622241_">
	<path class="st0" d="M576.29,106.08c-15.19-18.28-33.45-33.76-53.96-45.77c-20.48-13.82-43.01-24.31-66.77-31.08
		c-24.79-7.03-50.39-10.76-76.16-11.09"/>
</g>
<g id="LINE_00000035510381830038496000000016070715073602314888_">
	<line class="st0" x1="23.25" y1="248.26" x2="23.25" y2="278.81"/>
</g>
<g id="LINE_00000137104851631722219790000002033702402513944488_">
	<line class="st0" x1="32.25" y1="248.26" x2="32.25" y2="278.81"/>
</g>
<g id="LINE_00000092422230404739474070000009544058557923589006_">
	<line class="st0" x1="41.16" y1="248.26" x2="41.16" y2="278.81"/>
</g>
<g id="LINE_00000077282212475221169310000000076635229439581335_">
	<line class="st0" x1="50.07" y1="248.26" x2="50.07" y2="278.81"/>
</g>
<g id="LINE_00000125598039566890008180000016075216483586521251_">
	<line class="st0" x1="59.08" y1="248.26" x2="59.08" y2="278.81"/>
</g>
<g id="LINE_00000157989500255183966540000012569439513943387314_">
	<line class="st0" x1="67.99" y1="248.26" x2="67.99" y2="278.81"/>
</g>
<g id="LINE_00000000215548856625391220000007443641380742357379_">
	<line class="st0" x1="76.99" y1="248.26" x2="76.99" y2="278.81"/>
</g>
<g id="LINE_00000119103234826267838530000000973412590944306309_">
	<line class="st0" x1="85.9" y1="248.26" x2="85.9" y2="278.81"/>
</g>
<g id="LINE_00000065779510998803468470000012459079404132740543_">
	<line class="st0" x1="94.91" y1="248.26" x2="94.91" y2="278.81"/>
</g>
<g id="LINE_00000063621260369122972090000012630513342823926450_">
	<line class="st0" x1="103.82" y1="248.26" x2="103.82" y2="278.81"/>
</g>
<g id="LINE_00000173883297344706849350000005613190074973078676_">
	<line class="st0" x1="112.73" y1="248.26" x2="112.73" y2="278.81"/>
</g>
<g id="LINE_00000104672738841901201630000007204031346327979194_">
	<line class="st0" x1="121.73" y1="248.26" x2="121.73" y2="278.81"/>
</g>
<g id="LINE_00000080885322260422485090000008558278030019670161_">
	<line class="st0" x1="130.64" y1="248.26" x2="130.64" y2="278.81"/>
</g>
<g id="LINE_00000080194302171091500530000009578920291638731678_">
	<line class="st0" x1="139.65" y1="248.26" x2="139.65" y2="278.81"/>
</g>
<g id="LINE_00000036933874157625397680000016529295055773930682_">
	<line class="st0" x1="148.56" y1="248.26" x2="148.56" y2="278.81"/>
</g>
<g id="LINE_00000009583116923291262200000002454767246348887738_">
	<line class="st0" x1="160.21" y1="248.26" x2="160.21" y2="278.81"/>
</g>
<g id="LINE_00000102511538656796084630000010669093324865521313_">
	<line class="st0" x1="171.86" y1="248.26" x2="171.86" y2="278.81"/>
</g>
<g id="LINE_00000114788499627119529510000008228813104514359174_">
	<line class="st0" x1="184.39" y1="248.26" x2="184.39" y2="278.81"/>
</g>
<g id="LINE_00000035533130405811053670000000143333840118094721_">
	<line class="st0" x1="196.92" y1="248.26" x2="196.92" y2="278.81"/>
</g>
<g id="LINE_00000104678810284312066120000006418956232457242264_">
	<line class="st0" x1="208.57" y1="248.26" x2="208.57" y2="278.81"/>
</g>
<g id="LINE_00000163051293192550659140000011638422053456209548_">
	<line class="st0" x1="220.12" y1="248.26" x2="220.12" y2="278.81"/>
</g>
<g id="LINE_00000064332353087817094140000000029277670243829915_">
	<line class="st0" x1="231.77" y1="248.26" x2="231.77" y2="278.81"/>
</g>
<g id="LINE_00000154424205433879444030000016048536884795915430_">
	<line class="st0" x1="243.42" y1="248.26" x2="243.42" y2="278.81"/>
</g>
<g id="LINE_00000117672945454610164380000010409964337260068496_">
	<line class="st0" x1="254.19" y1="248.26" x2="254.19" y2="278.81"/>
</g>
<g id="LINE_00000125596024680836274050000018238724372030044551_">
	<line class="st0" x1="264.86" y1="248.26" x2="264.86" y2="278.81"/>
</g>
<g id="LINE_00000079447690627439512970000015838216229629216429_">
	<line class="st0" x1="273.87" y1="248.26" x2="273.87" y2="278.81"/>
</g>
<g id="LINE_00000075139231517988383970000009545127179163371681_">
	<line class="st0" x1="282.78" y1="248.26" x2="282.78" y2="278.81"/>
</g>
<g id="LINE_00000035531055705837170300000016477009530712590471_">
	<line class="st0" x1="291.78" y1="248.26" x2="291.78" y2="278.81"/>
</g>
<g id="LINE_00000177484033685298077130000010573638691805843360_">
	<line class="st0" x1="300.69" y1="248.26" x2="300.69" y2="278.81"/>
</g>
<g id="LINE_00000001655327987510202340000010709533527307698865_">
	<line class="st0" x1="309.7" y1="248.26" x2="309.7" y2="278.81"/>
</g>
<g id="LINE_00000116207809026633438860000004786890871103498890_">
	<line class="st0" x1="318.6" y1="248.26" x2="318.6" y2="278.81"/>
</g>
<g id="LINE_00000170999909942774644020000010337046922130214803_">
	<line class="st0" x1="327.51" y1="248.26" x2="327.51" y2="278.81"/>
</g>
<g id="LINE_00000075856999171770888550000008720218935303243192_">
	<line class="st0" x1="336.52" y1="248.26" x2="336.52" y2="278.81"/>
</g>
<g id="LINE_00000111876458343535879240000013884276847428408508_">
	<line class="st0" x1="345.43" y1="248.26" x2="345.43" y2="278.81"/>
</g>
<g id="LINE_00000156587256911314502290000010697610396629806518_">
	<line class="st0" x1="354.44" y1="248.26" x2="354.44" y2="278.81"/>
</g>
<g id="LINE_00000019641215633217073480000017834572567185283976_">
	<line class="st0" x1="363.35" y1="248.26" x2="363.35" y2="278.81"/>
</g>
<g id="LINE_00000080897731957620446880000003919947337585553812_">
	<line class="st0" x1="372.26" y1="248.26" x2="372.26" y2="278.81"/>
</g>
<g id="LINE_00000111888097457956607240000017500633076846565787_">
	<line class="st0" x1="381.26" y1="248.26" x2="381.26" y2="278.81"/>
</g>
<g id="LINE_00000090290171759419546270000010331006490540090284_">
	<line class="st0" x1="23.25" y1="248.26" x2="794.98" y2="248.26"/>
</g>
<g id="LINE_00000001643502216675376790000006712710597865334457_">
	<line class="st0" x1="23.25" y1="253.25" x2="794.98" y2="253.25"/>
</g>
<g id="LINE_00000026851405007403111230000011441457909235754635_">
	<line class="st0" x1="23.25" y1="255.01" x2="794.98" y2="255.01"/>
</g>
<g id="LINE_00000102544208780662630120000001390775491721116045_">
	<line class="st0" x1="23.25" y1="263.53" x2="794.98" y2="263.53"/>
</g>
<g id="LINE_00000125588184483851679630000015737292326414758533_">
	<line class="st0" x1="23.25" y1="278.81" x2="794.98" y2="278.81"/>
</g>
<g id="LINE_00000039092862336915427700000016966663778843173516_">
	<line class="st0" x1="23.25" y1="273.81" x2="794.98" y2="273.81"/>
</g>
<g id="LINE_00000102540376516585782200000010553204802151017392_">
	<line class="st0" x1="23.25" y1="272.05" x2="794.98" y2="272.05"/>
</g>
<g id="LINE_00000149369842908016529220000002452542970696258466_">
	<line class="st0" x1="739.27" y1="248.26" x2="739.27" y2="278.81"/>
</g>
<g id="LINE_00000042721720144731296470000016561900501696610990_">
	<line class="st0" x1="730.27" y1="248.26" x2="730.27" y2="278.81"/>
</g>
<g id="LINE_00000047747609910264881140000004331668895807861897_">
	<line class="st0" x1="721.36" y1="248.26" x2="721.36" y2="278.81"/>
</g>
<g id="LINE_00000050638939060912754740000005360330975463788707_">
	<line class="st0" x1="712.45" y1="248.26" x2="712.45" y2="278.81"/>
</g>
<g id="LINE_00000115473139099065617770000010221153938570275715_">
	<line class="st0" x1="703.44" y1="248.26" x2="703.44" y2="278.81"/>
</g>
<g id="LINE_00000023963049256953028410000015557255295220908433_">
	<line class="st0" x1="694.53" y1="248.26" x2="694.53" y2="278.81"/>
</g>
<g id="LINE_00000049901359718927156790000013587209870259111051_">
	<line class="st0" x1="685.53" y1="248.26" x2="685.53" y2="278.81"/>
</g>
<g id="LINE_00000183243529686773037540000013778097925338678198_">
	<line class="st0" x1="676.62" y1="248.26" x2="676.62" y2="278.81"/>
</g>
<g id="LINE_00000158007993875029410780000002887003316661121722_">
	<line class="st0" x1="667.61" y1="248.26" x2="667.61" y2="278.81"/>
</g>
<g id="LINE_00000142140265423581440930000001209316012342124732_">
	<line class="st0" x1="658.7" y1="248.26" x2="658.7" y2="278.81"/>
</g>
<g id="LINE_00000070816965640617814290000008703344876374617022_">
	<line class="st0" x1="649.79" y1="248.26" x2="649.79" y2="278.81"/>
</g>
<g id="LINE_00000067203485711755623960000006548564150752302988_">
	<line class="st0" x1="640.79" y1="248.26" x2="640.79" y2="278.81"/>
</g>
<g id="LINE_00000163046917758485047500000004183912728798707646_">
	<line class="st0" x1="631.88" y1="248.26" x2="631.88" y2="278.81"/>
</g>
<g id="LINE_00000111164385382752033810000012806804431809965722_">
	<line class="st0" x1="622.87" y1="248.26" x2="622.87" y2="278.81"/>
</g>
<g id="LINE_00000036250534351711273040000005828672136984918707_">
	<line class="st0" x1="613.96" y1="248.26" x2="613.96" y2="278.81"/>
</g>
<g id="LINE_00000183216522124328708380000006411740947723886981_">
	<line class="st0" x1="602.31" y1="248.26" x2="602.31" y2="278.81"/>
</g>
<g id="LINE_00000108272119553266601670000004223409388886222755_">
	<line class="st0" x1="590.66" y1="248.26" x2="590.66" y2="278.81"/>
</g>
<g id="LINE_00000163056196308192785480000001518958872410160271_">
	<line class="st0" x1="578.13" y1="248.26" x2="578.13" y2="278.81"/>
</g>
<g id="LINE_00000092414139537119697150000003407532359695051445_">
	<line class="st0" x1="565.6" y1="248.26" x2="565.6" y2="278.81"/>
</g>
<g id="LINE_00000114041319891615336880000004504016966076378756_">
	<line class="st0" x1="553.95" y1="248.26" x2="553.95" y2="278.81"/>
</g>
<g id="LINE_00000121963560504051416590000006756170547666037948_">
	<line class="st0" x1="542.4" y1="248.26" x2="542.4" y2="278.81"/>
</g>
<g id="LINE_00000058549833043321867370000009375333368253897663_">
	<line class="st0" x1="530.75" y1="248.26" x2="530.75" y2="278.81"/>
</g>
<g id="LINE_00000110442509288515819120000003431270543597052834_">
	<line class="st0" x1="519.1" y1="248.26" x2="519.1" y2="278.81"/>
</g>
<g id="LINE_00000132784029350945106230000009575037849103186858_">
	<line class="st0" x1="508.33" y1="248.26" x2="508.33" y2="278.81"/>
</g>
<g id="LINE_00000050631824749003354240000005761149307805370536_">
	<line class="st0" x1="497.66" y1="248.26" x2="497.66" y2="278.81"/>
</g>
<g id="LINE_00000016057908403639046110000002183988990182047107_">
	<line class="st0" x1="488.65" y1="248.26" x2="488.65" y2="278.81"/>
</g>
<g id="LINE_00000077286174775023022880000017935646030953952922_">
	<line class="st0" x1="479.74" y1="248.26" x2="479.74" y2="278.81"/>
</g>
<g id="LINE_00000019651693855784791120000013382959673468593828_">
	<line class="st0" x1="470.74" y1="248.26" x2="470.74" y2="278.81"/>
</g>
<g id="LINE_00000183952710801551029380000006326288455303223942_">
	<line class="st0" x1="461.83" y1="248.26" x2="461.83" y2="278.81"/>
</g>
<g id="LINE_00000096032975651666070840000013048995642573336964_">
	<line class="st0" x1="452.82" y1="248.26" x2="452.82" y2="278.81"/>
</g>
<g id="LINE_00000054265266281746898100000016904399217143446173_">
	<line class="st0" x1="443.92" y1="248.26" x2="443.92" y2="278.81"/>
</g>
<g id="LINE_00000175317576926063383020000001330485983959339191_">
	<line class="st0" x1="435.01" y1="248.26" x2="435.01" y2="278.81"/>
</g>
<g id="LINE_00000041287928253494228220000002663247742879805837_">
	<line class="st0" x1="426" y1="248.26" x2="426" y2="278.81"/>
</g>
<g id="LINE_00000007423142530148797590000010646529365613323695_">
	<line class="st0" x1="417.09" y1="248.26" x2="417.09" y2="278.81"/>
</g>
<g id="LINE_00000160880889107082388780000008981763723223116962_">
	<line class="st0" x1="408.08" y1="248.26" x2="408.08" y2="278.81"/>
</g>
<g id="LINE_00000178201443553733735000000010250987700042502022_">
	<line class="st0" x1="399.18" y1="248.26" x2="399.18" y2="278.81"/>
</g>
<g id="LINE_00000160181502045370114340000002892216859671295410_">
	<line class="st0" x1="390.27" y1="248.26" x2="390.27" y2="278.81"/>
</g>
<g id="LINE_00000042698085187324966730000000467801183994114951_">
	<line class="st0" x1="794.98" y1="278.81" x2="794.98" y2="248.26"/>
</g>
<g id="LWPOLYLINE_00000156568542760338669810000015002531892463347106_">
	<path class="st0" d="M645.03,87c-6.69,0.29-13.36,1.06-19.94,2.31c-8.34,1.68-16.59,3.78-24.72,6.3
		c-8.34,2.26-16.41,5.42-24.08,9.4"/>
</g>
<g id="LWPOLYLINE_00000157277253153741248100000005743445903735206021_">
	<path class="st0" d="M645.05,87.95c-6.64,0.29-13.25,1.05-19.77,2.29c-8.31,1.68-16.54,3.77-24.64,6.28
		c-8.44,2.29-16.6,5.5-24.35,9.56"/>
</g>
<g id="LINE_00000179624482575636514620000016286308715202906785_">
	<line class="st0" x1="30.41" y1="73.61" x2="30.41" y2="87"/>
</g>
<g id="LINE_00000048480635916856700210000002213649174382651809_">
	<line class="st0" x1="39.32" y1="73.45" x2="39.32" y2="87"/>
</g>
<g id="LINE_00000109013251865656788070000017413304876635530660_">
	<line class="st0" x1="48.33" y1="73.29" x2="48.33" y2="87"/>
</g>
<g id="LINE_00000183242465956994214480000002343751057750189205_">
	<line class="st0" x1="57.23" y1="73.14" x2="57.23" y2="87"/>
</g>
<g id="LINE_00000012459230298265891690000014711351784897343639_">
	<line class="st0" x1="66.24" y1="72.98" x2="66.24" y2="87"/>
</g>
<g id="LINE_00000091732468174749893960000014467220815445662336_">
	<line class="st0" x1="75.15" y1="72.82" x2="75.15" y2="87"/>
</g>
<g id="LINE_00000164471758391340333170000017515200408711901375_">
	<line class="st0" x1="84.06" y1="72.66" x2="84.06" y2="87"/>
</g>
<g id="LINE_00000042701403351061142190000018301438990233533628_">
	<line class="st0" x1="93.06" y1="72.5" x2="93.06" y2="87"/>
</g>
<g id="LINE_00000133511462229576529380000006008770190405112199_">
	<line class="st0" x1="101.97" y1="72.34" x2="101.97" y2="87"/>
</g>
<g id="LINE_00000124868858925005684180000010015643249084413843_">
	<line class="st0" x1="110.98" y1="72.18" x2="110.98" y2="87"/>
</g>
<g id="LINE_00000104666488519398881990000013685261095389303704_">
	<line class="st0" x1="119.89" y1="72.02" x2="119.89" y2="87.39"/>
</g>
<g id="LINE_00000160192186596512541350000000037896028079238797_">
	<line class="st0" x1="128.79" y1="71.86" x2="128.79" y2="88.46"/>
</g>
<g id="LINE_00000143579826570840532770000013523592779703583107_">
	<line class="st0" x1="137.8" y1="71.7" x2="137.8" y2="90.16"/>
</g>
<g id="LINE_00000159448630357986937910000012566578477402856622_">
	<line class="st0" x1="146.71" y1="70.36" x2="146.71" y2="92.28"/>
</g>
<g id="LINE_00000043434570858329548920000017315634133138246034_">
	<line class="st0" x1="158.36" y1="66.67" x2="158.36" y2="95.58"/>
</g>
<g id="LINE_00000157288317981607293770000006820968198426402181_">
	<line class="st0" x1="170.01" y1="62.42" x2="170.01" y2="99.38"/>
</g>
<g id="LINE_00000115504311774252679130000011543574398557179839_">
	<line class="st0" x1="182.54" y1="57.21" x2="182.54" y2="106.08"/>
</g>
<g id="LINE_00000114784126351763610780000007645593779114786435_">
	<line class="st0" x1="195.07" y1="51.28" x2="195.07" y2="91.11"/>
</g>
<g id="LINE_00000027589992385675791420000004167081471896828857_">
	<line class="st0" x1="206.72" y1="45.08" x2="206.72" y2="80.28"/>
</g>
<g id="LINE_00000177475079937666932980000012540288641621527684_">
	<line class="st0" x1="218.37" y1="38.33" x2="218.37" y2="71.04"/>
</g>
<g id="LINE_00000150075888605950050610000010819241633447321016_">
	<line class="st0" x1="229.92" y1="32.77" x2="229.92" y2="70.07"/>
</g>
<g id="LINE_00000168086087450885260550000008848739691596585124_">
	<line class="st0" x1="241.58" y1="27.67" x2="241.58" y2="69.86"/>
</g>
<g id="LINE_00000092450743729862168950000006406721805780845963_">
	<line class="st0" x1="252.34" y1="23.39" x2="252.34" y2="69.67"/>
</g>
<g id="LINE_00000021121261126378362890000001417542439911474593_">
	<line class="st0" x1="263.11" y1="19.51" x2="263.11" y2="69.48"/>
</g>
<g id="LINE_00000030447309965870032040000012617280692089892481_">
	<line class="st0" x1="272.02" y1="16.59" x2="272.02" y2="69.32"/>
</g>
<g id="LINE_00000097472423417950641820000007234999019917462935_">
	<line class="st0" x1="281.03" y1="13.9" x2="281.03" y2="69.16"/>
</g>
<g id="LINE_00000064329383259531503530000008899884204272976013_">
	<line class="st0" x1="289.93" y1="11.49" x2="289.93" y2="69"/>
</g>
<g id="LINE_00000127728053682483213900000017436736639373984650_">
	<line class="st0" x1="298.84" y1="9.33" x2="298.84" y2="68.84"/>
</g>
<g id="LINE_00000180363062924179476460000010716766442336345218_">
	<line class="st0" x1="307.85" y1="7.39" x2="307.85" y2="68.68"/>
</g>
<g id="LINE_00000036967548135285543250000016548460484034754185_">
	<line class="st0" x1="316.76" y1="5.7" x2="316.76" y2="68.53"/>
</g>
<g id="LINE_00000146458037711215894960000007769946272435571614_">
	<line class="st0" x1="325.77" y1="4.24" x2="325.77" y2="68.35"/>
</g>
<g id="LINE_00000143586188839881122240000001905612386404609719_">
	<line class="st0" x1="334.68" y1="3.03" x2="334.68" y2="68.12"/>
</g>
<g id="LINE_00000095338610958533911940000004836297928656184762_">
	<line class="st0" x1="343.58" y1="2.04" x2="343.58" y2="67.97"/>
</g>
<g id="LINE_00000077289396129206683770000007198507529632548798_">
	<line class="st0" x1="352.59" y1="1.28" x2="352.59" y2="67.86"/>
</g>
<g id="LINE_00000173854196237878315900000017935413020636602789_">
	<line class="st0" x1="361.5" y1="0.75" x2="361.5" y2="67.78"/>
</g>
<g id="LINE_00000137106564376435646530000007378378658412040323_">
	<line class="st0" x1="370.5" y1="0.44" x2="370.5" y2="67.73"/>
</g>
<g id="LINE_00000012455444553467686450000008751246854073213334_">
	<line class="st0" x1="379.41" y1="0.36" x2="379.41" y2="67.71"/>
</g>
<g id="LINE_00000114758227249091710020000004476859785712035483_">
	<line class="st0" x1="728.42" y1="73.61" x2="728.42" y2="87"/>
</g>
<g id="LINE_00000147938326333985330110000007175682994069262778_">
	<line class="st0" x1="719.51" y1="73.45" x2="719.51" y2="87"/>
</g>
<g id="LINE_00000141448647132171759650000003019814524677599133_">
	<line class="st0" x1="710.5" y1="73.29" x2="710.5" y2="87"/>
</g>
<g id="LINE_00000036246549365041243170000018009306358723065001_">
	<line class="st0" x1="701.6" y1="73.14" x2="701.6" y2="87"/>
</g>
<g id="LINE_00000062162084253229317800000002088461563955565710_">
	<line class="st0" x1="692.59" y1="72.98" x2="692.59" y2="87"/>
</g>
<g id="LINE_00000132770873228174593530000007816282640687837076_">
	<line class="st0" x1="683.68" y1="72.82" x2="683.68" y2="87"/>
</g>
<g id="LINE_00000105402533182152240280000014868934951223559569_">
	<line class="st0" x1="674.77" y1="72.66" x2="674.77" y2="87"/>
</g>
<g id="LINE_00000153697827098216947860000002151500331289011850_">
	<line class="st0" x1="665.77" y1="72.5" x2="665.77" y2="87"/>
</g>
<g id="LINE_00000172427723909805126760000011358490903395778476_">
	<line class="st0" x1="656.86" y1="72.34" x2="656.86" y2="87"/>
</g>
<g id="LINE_00000053515368470729822430000017070354525572680608_">
	<line class="st0" x1="647.85" y1="72.18" x2="647.85" y2="87"/>
</g>
<g id="LINE_00000171705127711982212090000002608974102432030122_">
	<line class="st0" x1="638.94" y1="72.02" x2="638.94" y2="87.39"/>
</g>
<g id="LINE_00000005972781918072099920000014866628658056813498_">
	<line class="st0" x1="630.03" y1="71.86" x2="630.03" y2="88.46"/>
</g>
<g id="LINE_00000111894311014745374540000017043308724954731906_">
	<line class="st0" x1="621.03" y1="71.7" x2="621.03" y2="90.16"/>
</g>
<g id="LINE_00000165230141108791866600000002316445439205639834_">
	<line class="st0" x1="612.12" y1="70.36" x2="612.12" y2="92.28"/>
</g>
<g id="LINE_00000076569756717718104360000017179333899187893384_">
	<line class="st0" x1="600.47" y1="66.67" x2="600.47" y2="95.58"/>
</g>
<g id="LINE_00000028299123947026775170000010811694536065346702_">
	<line class="st0" x1="588.82" y1="62.42" x2="588.82" y2="99.38"/>
</g>
<g id="LINE_00000072980034911980752800000010804541489622850741_">
	<line class="st0" x1="576.29" y1="57.21" x2="576.29" y2="106.08"/>
</g>
<g id="LINE_00000108281719625613859030000015831489315437981101_">
	<line class="st0" x1="563.76" y1="51.28" x2="563.76" y2="91.11"/>
</g>
<g id="LINE_00000049914647777063613470000016189295699912982457_">
	<line class="st0" x1="552.11" y1="45.08" x2="552.11" y2="80.28"/>
</g>
<g id="LINE_00000170244408967304040670000000995150911238887855_">
	<line class="st0" x1="540.46" y1="38.33" x2="540.46" y2="71.04"/>
</g>
<g id="LINE_00000034767852827813816060000005628047736954102163_">
	<line class="st0" x1="528.9" y1="32.77" x2="528.9" y2="70.07"/>
</g>
<g id="LINE_00000010299810413854395650000012044953636405161658_">
	<line class="st0" x1="517.25" y1="27.67" x2="517.25" y2="69.86"/>
</g>
<g id="LINE_00000140005725851566082490000017268138542674933403_">
	<line class="st0" x1="506.49" y1="23.39" x2="506.49" y2="69.67"/>
</g>
<g id="LINE_00000120530833307222387980000017253283194837897906_">
	<line class="st0" x1="495.72" y1="19.51" x2="495.72" y2="69.48"/>
</g>
<g id="LINE_00000003082214055302473830000014082670025172750261_">
	<line class="st0" x1="486.81" y1="16.59" x2="486.81" y2="69.32"/>
</g>
<g id="LINE_00000074413287546069962670000006513679217897324468_">
	<line class="st0" x1="477.8" y1="13.9" x2="477.8" y2="69.16"/>
</g>
<g id="LINE_00000024690303307406771630000017280936995315248038_">
	<line class="st0" x1="468.9" y1="11.49" x2="468.9" y2="69"/>
</g>
<g id="LINE_00000064316536443854944860000011897887055835575731_">
	<line class="st0" x1="459.99" y1="9.33" x2="459.99" y2="68.84"/>
</g>
<g id="LINE_00000054268358365703443220000007388465290387099567_">
	<line class="st0" x1="450.98" y1="7.39" x2="450.98" y2="68.68"/>
</g>
<g id="LINE_00000052806738003568746580000016708877443908930491_">
	<line class="st0" x1="442.07" y1="5.7" x2="442.07" y2="68.53"/>
</g>
<g id="LINE_00000173859294998185462540000004966551051297682837_">
	<line class="st0" x1="433.06" y1="4.24" x2="433.06" y2="68.35"/>
</g>
<g id="LINE_00000017493644210566998770000003681145873456442249_">
	<line class="st0" x1="424.15" y1="3.03" x2="424.15" y2="68.12"/>
</g>
<g id="LINE_00000054243598833549484340000013111033730541182893_">
	<line class="st0" x1="415.25" y1="2.04" x2="415.25" y2="67.97"/>
</g>
<g id="LINE_00000008835425125261963260000003995361894683903393_">
	<line class="st0" x1="406.24" y1="1.28" x2="406.24" y2="67.86"/>
</g>
<g id="LINE_00000151504409534956688950000017841740051716901016_">
	<line class="st0" x1="397.33" y1="0.75" x2="397.33" y2="67.78"/>
</g>
<g id="LINE_00000083057556999312934400000003580775574708312493_">
	<line class="st0" x1="388.33" y1="0.44" x2="388.33" y2="67.73"/>
</g>
<g id="LINE_00000114775488262397702070000007714941577873673129_">
	<line class="st0" x1="30.41" y1="75.26" x2="21.01" y2="87"/>
</g>
<g id="LINE_00000131368296212106238270000003632819163689777813_">
	<line class="st0" x1="39.32" y1="75.1" x2="30.41" y2="87"/>
</g>
<g id="LINE_00000147938443850000642640000003706187107466938764_">
	<line class="st0" x1="48.33" y1="74.94" x2="39.32" y2="87"/>
</g>
<g id="LINE_00000003784119471511780500000000846845338943103905_">
	<line class="st0" x1="57.23" y1="74.78" x2="48.33" y2="87"/>
</g>
<g id="LINE_00000089560431759209750380000018116953090656407727_">
	<line class="st0" x1="66.24" y1="74.62" x2="57.23" y2="87"/>
</g>
<g id="LINE_00000145060060134571678090000016808245111935559567_">
	<line class="st0" x1="75.15" y1="74.47" x2="66.24" y2="87"/>
</g>
<g id="LINE_00000044166235512266980130000010432828109964852871_">
	<line class="st0" x1="84.06" y1="74.31" x2="75.15" y2="87"/>
</g>
<g id="LINE_00000170241247296519819540000018168640488857277356_">
	<line class="st0" x1="93.06" y1="74.15" x2="84.06" y2="87"/>
</g>
<g id="LINE_00000163044756076595347490000007919312443657502344_">
	<line class="st0" x1="101.97" y1="73.99" x2="93.06" y2="87"/>
</g>
<g id="LINE_00000067226773802879959830000002962844612288082576_">
	<line class="st0" x1="110.98" y1="73.83" x2="101.97" y2="87"/>
</g>
<g id="LWPOLYLINE_00000111870229104097354880000002816301998275405754_">
	<rect x="14.06" y="111.28" class="st0" width="1.76" height="29.57"/>
</g>
<g id="LWPOLYLINE_00000004514709213141565820000013989808166184518043_">
	<rect x="19.34" y="111.28" class="st0" width="1.86" height="29.57"/>
</g>
<g id="LWPOLYLINE_00000156565507385441616720000014774405291374500514_">
	<rect x="24.73" y="111.28" class="st0" width="1.86" height="29.57"/>
</g>
<g id="LWPOLYLINE_00000157293064100419769770000011654315716429241220_">
	<polyline class="st0" points="13.08,107.75 17,106.87 24.14,106.87 27.47,107.75 27.47,111.28 13.08,111.28 13.08,107.75 	"/>
</g>
<g id="LWPOLYLINE_00000132084536680642572150000009577494753436118949_">
	<polyline class="st0" points="17.88,77.21 17.88,106.87 23.26,106.87 23.26,87.29 20.52,87.29 20.52,73.69 19.34,73.78 
		19.34,77.21 17.88,77.21 	"/>
</g>
<g id="LINE_00000141423114288068922700000001638744045864019387_">
	<line class="st0" x1="24.11" y1="87.95" x2="24.11" y2="87"/>
</g>
<g id="LINE_00000109005623922630088370000009983622198943210943_">
	<line class="st0" x1="734.72" y1="87.95" x2="645.03" y2="87.95"/>
</g>
<g id="LINE_00000183222673610194909800000013691895769967173561_">
	<line class="st0" x1="734.72" y1="87.95" x2="734.72" y2="87"/>
</g>
<g id="LWPOLYLINE_00000009570726207103551560000013713544813112659356_">
	<rect x="178.92" y="105.6" class="st0" width="7.24" height="2.74"/>
</g>
<g id="LWPOLYLINE_00000041274376295780972240000000940218320018711707_">
	<polyline class="st0" points="170.01,110.1 178.92,108.34 186.16,108.34 195.07,110.1 170.01,110.1 	"/>
</g>
<g id="LWPOLYLINE_00000030470149348435304800000009031819247876509852_">
	<rect x="170.01" y="110.1" class="st0" width="25.06" height="4.5"/>
</g>
<g id="LWPOLYLINE_00000075149339535520112470000004780446162350966961_">
	<polyline class="st0" points="170.89,114.61 157.36,209.04 159.18,209.04 172.75,114.61 170.89,114.61 	"/>
</g>
<g id="LWPOLYLINE_00000042700384484620287200000005387891155894857878_">
	<polyline class="st0" points="176.28,114.61 162.75,209.04 164.57,209.04 178.14,114.61 176.28,114.61 	"/>
</g>
<g id="LWPOLYLINE_00000030475723122843879400000013921532459609238192_">
	<polyline class="st0" points="181.66,114.61 168.13,209.04 169.95,209.04 183.52,114.61 181.66,114.61 	"/>
</g>
<g id="LWPOLYLINE_00000058573284724440664500000010409796167302027920_">
	<rect x="187.05" y="114.61" class="st0" width="1.76" height="94.43"/>
</g>
<g id="LWPOLYLINE_00000182505340201611562780000005646596961342321553_">
	<rect x="192.43" y="114.61" class="st0" width="1.76" height="94.43"/>
</g>
<g id="LWPOLYLINE_00000160187890964160743090000004781556748684846987_">
	<rect x="572.67" y="105.6" class="st0" width="7.24" height="2.74"/>
</g>
<g id="LWPOLYLINE_00000176757744154081002040000006237859315809201545_">
	<polyline class="st0" points="588.82,110.1 579.91,108.34 572.67,108.34 563.76,110.1 588.82,110.1 	"/>
</g>
<g id="LWPOLYLINE_00000132089378901533972380000011601963763510441883_">
	<rect x="563.76" y="110.1" class="st0" width="25.06" height="4.5"/>
</g>
<g id="LWPOLYLINE_00000097483673625890549850000009160665513462924185_">
	<polyline class="st0" points="587.94,114.61 601.47,209.04 599.65,209.04 586.08,114.61 587.94,114.61 	"/>
</g>
<g id="LWPOLYLINE_00000004523209698788916860000017479015556896204954_">
	<polyline class="st0" points="582.55,114.61 596.08,209.04 594.26,209.04 580.69,114.61 582.55,114.61 	"/>
</g>
<g id="LWPOLYLINE_00000047757586413153329530000005843666348721827223_">
	<polyline class="st0" points="577.17,114.61 590.7,209.04 588.88,209.04 575.31,114.61 577.17,114.61 	"/>
</g>
<g id="LWPOLYLINE_00000038378439612776053910000001966527465653971108_">
	<rect x="570.02" y="114.61" class="st0" width="1.76" height="94.43"/>
</g>
<g id="LWPOLYLINE_00000165201082591705922640000018138366186049590704_">
	<rect x="564.64" y="114.61" class="st0" width="1.76" height="94.43"/>
</g>
<g id="LWPOLYLINE_00000128448024012074024130000002232404943904288412_">
	<polyline class="st0" points="0.35,103.25 85.72,114.12 111.86,126.12 115.38,126.74 119.31,127.19 122.24,128.41 124.56,130.51 
		126.48,132.97 148.19,132.13 156.84,130.17 166,130.17 177.26,134.09 179.84,136.53 183.62,137.32 190.47,139.18 192.92,140.94 
		197.13,143.88 198.42,144.59 204.08,146.32 212.38,147.56 241.87,148.09 252.24,146.32 259.4,144.9 261.74,144.81 279.66,142.7 
		284.26,141.04 303.15,140.94 309.42,142.6 321.26,146.32 325.47,146.32 335.46,144.46 362.87,145.35 365.38,145.43 391.2,145.43 
		393.71,145.54 400.95,144.86 403.89,144.46 410.21,143.62 417.2,146.32 428.46,146.32 436.69,142.7 443.24,142.02 448.53,142.7 
		452.25,142.7 457.6,141.51 463.8,139.37 468.6,137.32 473.59,137.32 482.99,139.08 537.13,142.7 555.09,142.68 566.69,139.47 
		602.03,139.08 612.9,142.7 639.14,142.7 651.28,139.18 671.54,133.79 676.88,131.88 681.62,130.07 707.06,120.87 722.15,115.88 
		748.39,106.87 753.68,105.11 774.63,103.35 812.22,101.98 	"/>
</g>
<g id="LWPOLYLINE_00000113329414560939302670000011023612208109010832_">
	<polyline class="st0" points="738.31,73.69 739.38,73.78 739.38,76.91 740.85,76.91 740.85,77.6 741.54,77.6 741.54,78.97 
		740.95,80.04 740.95,106.28 735.67,106.28 735.67,87.29 738.31,87.29 738.31,73.69 	"/>
</g>
<g id="LWPOLYLINE_00000098927260167395684320000010754398455972683146_">
	<polygon class="st0" points="741.93,106.28 734.69,106.28 731.16,107.75 745.45,107.75 	"/>
</g>
<g id="LWPOLYLINE_00000100368404740051912480000006487697485990726785_">
	<rect x="731.16" y="107.75" class="st0" width="14.29" height="3.52"/>
</g>
<g id="LWPOLYLINE_00000119812635272971122640000008583644764560398524_">
	<rect x="732.04" y="111.28" class="st0" width="1.76" height="97.76"/>
</g>
<g id="LWPOLYLINE_00000135659940275667034960000000205932800828928402_">
	<rect x="737.43" y="111.28" class="st0" width="1.76" height="97.76"/>
</g>
<g id="LWPOLYLINE_00000175302218824600212200000009779812821959785089_">
	<rect x="742.81" y="111.28" class="st0" width="1.76" height="97.76"/>
</g>
<g id="LWPOLYLINE_00000030456455931927529660000010947565534831956104_">
	<polyline class="st0" points="739.58,76.82 794.01,77.3 794.01,74.17 739.58,73.61 739.58,76.82 	"/>
</g>
<g id="LWPOLYLINE_00000071560170948565004450000005658020529734180276_">
	<polyline class="st0" points="792.74,77.5 794.21,77.5 794.21,77.8 797.34,77.8 797.34,80.24 792.05,80.24 792.05,78.38 
		792.74,78.38 792.74,77.5 	"/>
</g>
<g id="LWPOLYLINE_00000070812921507945411720000011906285258062721698_">
	<polyline class="st0" points="792.05,80.24 792.45,81.71 796.95,81.71 797.34,80.24 792.05,80.24 	"/>
</g>
<g id="LWPOLYLINE_00000113332085332391795570000008362176211136392104_">
	<rect x="792.45" y="81.71" class="st0" width="4.5" height="20.36"/>
</g>
<g id="LWPOLYLINE_00000120551612155494728650000004232431630597680572_">
	<polyline class="st0" points="791.56,102.07 797.83,102.07 801.84,103.44 787.55,103.44 791.56,102.07 	"/>
</g>
<g id="LWPOLYLINE_00000041993443230487717590000006684112096378763160_">
	<rect x="787.55" y="103.44" class="st0" width="14.29" height="3.62"/>
</g>
<g id="LWPOLYLINE_00000080187365361525262590000005005369785340364969_">
	<rect x="788.43" y="107.07" class="st0" width="1.76" height="101.97"/>
</g>
<g id="LWPOLYLINE_00000050657511681724084380000000361128525732227494_">
	<rect x="793.82" y="107.07" class="st0" width="1.76" height="101.97"/>
</g>
<g id="LWPOLYLINE_00000152945956088919436100000012043889876875405460_">
	<rect x="799.2" y="107.07" class="st0" width="1.76" height="101.97"/>
</g>
<g id="LWPOLYLINE_00000065049273881206811140000015779960581794295730_">
	<rect x="16.1" y="247.38" class="st0" width="14.3" height="32.21"/>
</g>
<g id="LWPOLYLINE_00000035517169802930847700000008476593366067484071_">
	<rect x="171.86" y="244.73" class="st0" width="25.06" height="37.59"/>
</g>
<g id="LWPOLYLINE_00000029010905383498257460000005284898641319538568_">
	<rect x="565.6" y="244.73" class="st0" width="25.06" height="37.59"/>
</g>
<g id="LWPOLYLINE_00000141431604813987100880000009815024059439874751_">
	<rect x="732.03" y="247.38" class="st0" width="14.39" height="32.21"/>
</g>
<g id="LWPOLYLINE_00000010294752441593790320000013540796313696811907_">
	<rect x="787.83" y="247.38" class="st0" width="14.29" height="32.21"/>
</g>
<g id="LINE_00000134232034173260305100000015122053319107948972_">
	<line class="st0" x1="119.89" y1="73.67" x2="110.98" y2="87"/>
</g>
<g id="LINE_00000170970615556802044890000001860980304675883178_">
	<line class="st0" x1="128.79" y1="73.51" x2="119.89" y2="87.39"/>
</g>
<g id="LINE_00000094599137574132351610000015171018438472590483_">
	<line class="st0" x1="137.8" y1="73.35" x2="128.79" y2="88.46"/>
</g>
<g id="LINE_00000130633017964214571870000013386241067071661212_">
	<line class="st0" x1="146.71" y1="71.35" x2="137.8" y2="90.16"/>
</g>
<g id="LINE_00000103950806914214638010000008470342903683540132_">
	<line class="st0" x1="158.36" y1="67.67" x2="146.71" y2="92.28"/>
</g>
<g id="LINE_00000180349337659920674290000016020510285348324002_">
	<line class="st0" x1="170.01" y1="63.44" x2="158.36" y2="95.58"/>
</g>
<g id="LINE_00000062900187675213139160000018146392374537033663_">
	<line class="st0" x1="182.54" y1="58.25" x2="170.01" y2="99.38"/>
</g>
<g id="LINE_00000090274954897687536510000003307209058154878603_">
	<line class="st0" x1="182.54" y1="58.25" x2="195.07" y2="91.11"/>
</g>
<g id="LINE_00000013909082360208108720000015186996739357422264_">
	<line class="st0" x1="195.07" y1="52.34" x2="206.72" y2="80.28"/>
</g>
<g id="LINE_00000035524846484568457590000003714711733526015905_">
	<line class="st0" x1="206.72" y1="46.17" x2="218.37" y2="71.04"/>
</g>
<g id="LINE_00000167381554736481034280000016217576722844740239_">
	<line class="st0" x1="218.37" y1="39.4" x2="229.92" y2="63.18"/>
</g>
<g id="LINE_00000073697118752867199250000007527190712188343434_">
	<line class="st0" x1="229.92" y1="33.82" x2="241.58" y2="55.86"/>
</g>
<g id="LINE_00000011751984287808766730000010738209332042395281_">
	<line class="st0" x1="241.58" y1="28.7" x2="252.34" y2="49.43"/>
</g>
<g id="LINE_00000067198870513797585020000011005892294563022257_">
	<line class="st0" x1="252.34" y1="24.41" x2="263.11" y2="43.74"/>
</g>
<g id="LINE_00000160182790266506447160000013882874115692693388_">
	<line class="st0" x1="263.11" y1="20.51" x2="272.02" y2="39.56"/>
</g>
<g id="LINE_00000150794432386993932810000004505697616847958193_">
	<line class="st0" x1="272.02" y1="17.59" x2="281.03" y2="35.78"/>
</g>
<g id="LINE_00000182526571991602947410000011765413331766324921_">
	<line class="st0" x1="281.03" y1="14.89" x2="289.93" y2="32.47"/>
</g>
<g id="LINE_00000106857929815521259640000015786891474524335290_">
	<line class="st0" x1="289.93" y1="12.47" x2="298.84" y2="29.55"/>
</g>
<g id="LINE_00000161621899177597203520000005743432606993777312_">
	<line class="st0" x1="298.84" y1="10.3" x2="307.85" y2="27"/>
</g>
<g id="LINE_00000098197961064413053290000012675969355271669126_">
	<line class="st0" x1="307.85" y1="8.36" x2="316.76" y2="24.78"/>
</g>
<g id="LINE_00000056412432357097990830000013018367541200440728_">
	<line class="st0" x1="316.76" y1="6.67" x2="325.77" y2="22.84"/>
</g>
<g id="LINE_00000154408484714180066930000010170040308751229118_">
	<line class="st0" x1="325.77" y1="5.2" x2="334.68" y2="21.21"/>
</g>
<g id="LINE_00000072971057021391041180000006134847075013254075_">
	<line class="st0" x1="334.68" y1="3.99" x2="343.58" y2="19.86"/>
</g>
<g id="LINE_00000127738528100379808220000012637860554222263681_">
	<line class="st0" x1="343.58" y1="3" x2="352.59" y2="18.77"/>
</g>
<g id="LINE_00000065042558415241728760000015300363153218838700_">
	<line class="st0" x1="352.59" y1="2.23" x2="361.5" y2="17.97"/>
</g>
<g id="LINE_00000071525153883230369470000016179146175262162100_">
	<line class="st0" x1="361.5" y1="1.7" x2="370.5" y2="17.45"/>
</g>
<g id="LINE_00000109737491262177499510000015733079340943774141_">
	<line class="st0" x1="370.5" y1="1.39" x2="379.41" y2="17.2"/>
</g>
<g id="LINE_00000070099076554334311100000014976418251188482449_">
	<line class="st0" x1="728.43" y1="75.26" x2="737.83" y2="87"/>
</g>
<g id="LINE_00000158010730170480301000000007206486806110662538_">
	<line class="st0" x1="719.52" y1="75.1" x2="728.43" y2="87"/>
</g>
<g id="LINE_00000111173077820561884210000000330934372269776286_">
	<line class="st0" x1="710.51" y1="74.94" x2="719.52" y2="87"/>
</g>
<g id="LINE_00000112599038755325974720000015482588200538146688_">
	<line class="st0" x1="701.6" y1="74.78" x2="710.51" y2="87"/>
</g>
<g id="LINE_00000114791372672749971660000002066225008540904335_">
	<line class="st0" x1="692.6" y1="74.62" x2="701.6" y2="87"/>
</g>
<g id="LINE_00000103955807191080818970000011873947909985905072_">
	<line class="st0" x1="683.69" y1="74.47" x2="692.6" y2="87"/>
</g>
<g id="LINE_00000001657803629031414530000005630134676678752446_">
	<line class="st0" x1="674.78" y1="74.31" x2="683.69" y2="87"/>
</g>
<g id="LINE_00000112630840927835064570000014392407081307696296_">
	<line class="st0" x1="665.77" y1="74.15" x2="674.78" y2="87"/>
</g>
<g id="LINE_00000004511199857885050870000015062803795383737231_">
	<line class="st0" x1="656.86" y1="73.99" x2="665.77" y2="87"/>
</g>
<g id="LINE_00000058589394028826412010000007105383291207160497_">
	<line class="st0" x1="647.86" y1="73.83" x2="656.86" y2="87"/>
</g>
<g id="LINE_00000053529409081524009730000006046653938251469209_">
	<line class="st0" x1="638.95" y1="73.67" x2="647.86" y2="87"/>
</g>
<g id="LINE_00000099643793152490426570000006748746875372420245_">
	<line class="st0" x1="630.04" y1="73.51" x2="638.95" y2="87.39"/>
</g>
<g id="LINE_00000166649373363626984230000004267522705238747059_">
	<line class="st0" x1="621.03" y1="73.35" x2="630.04" y2="88.46"/>
</g>
<g id="LINE_00000162312885743735805370000009194107810037252796_">
	<line class="st0" x1="612.13" y1="71.35" x2="621.03" y2="90.16"/>
</g>
<g id="LINE_00000165938680833546453180000006896512308772960161_">
	<line class="st0" x1="600.48" y1="67.67" x2="612.13" y2="92.28"/>
</g>
<g id="LINE_00000158722782568730025810000014819498029675957652_">
	<line class="st0" x1="588.83" y1="63.44" x2="600.48" y2="95.58"/>
</g>
<g id="LINE_00000129886268960682512950000013671156169476235666_">
	<line class="st0" x1="576.29" y1="58.25" x2="588.83" y2="99.38"/>
</g>
<g id="LINE_00000032634943714673730300000016383319117886014085_">
	<line class="st0" x1="576.29" y1="58.25" x2="563.76" y2="91.11"/>
</g>
<g id="LINE_00000093147843332783740560000014601575595718403243_">
	<line class="st0" x1="563.76" y1="52.34" x2="552.12" y2="80.28"/>
</g>
<g id="LINE_00000072244527489548939850000008692854238690443663_">
	<line class="st0" x1="552.12" y1="46.17" x2="540.46" y2="71.04"/>
</g>
<g id="LINE_00000112596260397694508630000008434732671283610538_">
	<line class="st0" x1="540.46" y1="39.4" x2="528.91" y2="63.18"/>
</g>
<g id="LINE_00000034057203780390618240000001516374225908938942_">
	<line class="st0" x1="528.91" y1="33.82" x2="517.26" y2="55.86"/>
</g>
<g id="LINE_00000126311982997071076300000011622717820357457080_">
	<line class="st0" x1="517.26" y1="28.7" x2="506.49" y2="49.43"/>
</g>
<g id="LINE_00000021810923146704456050000014908891968951583155_">
	<line class="st0" x1="506.49" y1="24.41" x2="495.73" y2="43.74"/>
</g>
<g id="LINE_00000178893211394074993560000010657390896409478066_">
	<line class="st0" x1="495.73" y1="20.51" x2="486.82" y2="39.56"/>
</g>
<g id="LINE_00000119806114488371739030000011481660433894925482_">
	<line class="st0" x1="486.82" y1="17.59" x2="477.81" y2="35.78"/>
</g>
<g id="LINE_00000014624843793893218180000004199693766229416583_">
	<line class="st0" x1="477.81" y1="14.89" x2="468.9" y2="32.47"/>
</g>
<g id="LINE_00000057109495749350348390000016006967740205390738_">
	<line class="st0" x1="468.9" y1="12.47" x2="459.99" y2="29.55"/>
</g>
<g id="LINE_00000161593579177300109290000013429899494145008259_">
	<line class="st0" x1="459.99" y1="10.3" x2="450.99" y2="27"/>
</g>
<g id="LINE_00000040575474973410611980000006514917360760563080_">
	<line class="st0" x1="450.99" y1="8.36" x2="442.08" y2="24.78"/>
</g>
<g id="LINE_00000130641941275209861140000007966529327290503092_">
	<line class="st0" x1="442.08" y1="6.67" x2="433.07" y2="22.84"/>
</g>
<g id="LINE_00000138541954553418141580000006123581298902777268_">
	<line class="st0" x1="433.07" y1="5.2" x2="424.16" y2="21.21"/>
</g>
<g id="LINE_00000036219684982210032870000006070505223177788810_">
	<line class="st0" x1="424.16" y1="3.99" x2="415.25" y2="19.86"/>
</g>
<g id="LINE_00000159427677962204853300000009710898016909303992_">
	<line class="st0" x1="415.25" y1="3" x2="406.25" y2="18.77"/>
</g>
<g id="LINE_00000072959509821703052620000001559265009330383291_">
	<line class="st0" x1="406.25" y1="2.23" x2="397.34" y2="17.97"/>
</g>
<g id="LINE_00000022524146351795015230000003689217835519991224_">
	<line class="st0" x1="397.34" y1="1.7" x2="388.33" y2="17.45"/>
</g>
<g id="LINE_00000052821749293415051170000004378691611437782144_">
	<line class="st0" x1="388.33" y1="1.39" x2="379.42" y2="17.2"/>
</g>
</svg>
