<?xml version="1.0" encoding="utf-8"?>
<!-- Generator: Adobe Illustrator 26.0.2, SVG Export Plug-In . SVG Version: 6.00 Build 0)  -->
<svg version="1.1" id="_x30_" xmlns="http://www.w3.org/2000/svg" xmlns:xlink="http://www.w3.org/1999/xlink" x="0px" y="0px"
	 viewBox="0 0 1920 1080" style="enable-background:new 0 0 1920 1080;" xml:space="preserve">
<style type="text/css">
	.st0{fill:none;stroke:#000000;stroke-width:0.7087;stroke-linecap:round;stroke-linejoin:round;stroke-miterlimit:10;}
</style>
<g id="LINE">
	<line class="st0" x1="48.85" y1="411.49" x2="268.29" y2="411.49"/>
</g>
<g id="LINE_00000132080446602051834260000012560467980372593819_">
	<line class="st0" x1="56.18" y1="413.74" x2="268.29" y2="413.74"/>
</g>
<g id="LINE_00000163761684196023570250000016931346347257166757_">
	<line class="st0" x1="1524.61" y1="411.49" x2="1744.28" y2="411.49"/>
</g>
<g id="LINE_00000072244497580869927570000005708052490611904432_">
	<line class="st0" x1="48.85" y1="411.49" x2="48.85" y2="380.22"/>
</g>
<g id="LINE_00000136407064645906527590000006046203080211414402_">
	<line class="st0" x1="1744.28" y1="411.49" x2="1744.28" y2="380.23"/>
</g>
<g id="LWPOLYLINE">
	<path class="st0" d="M48.85,380.22l709.82-12.61c8.08-0.14,16.16-0.35,24.24-0.63"/>
</g>
<g id="LWPOLYLINE_00000083780868509259170150000011042519783271753868_">
	<path class="st0" d="M48.92,384.12l709.82-12.61c8.1-0.14,16.2-0.36,24.3-0.64"/>
</g>
<g id="LWPOLYLINE_00000101089080903656013900000015384563779225496744_">
	<path class="st0" d="M1744.28,380.23l-710.05-12.62c-8.08-0.14-16.16-0.35-24.24-0.63"/>
</g>
<g id="LWPOLYLINE_00000114774268701776377280000016506625850318124426_">
	<path class="st0" d="M1744.28,384.12l-710.12-12.62c-8.1-0.14-16.2-0.36-24.3-0.64"/>
</g>
<g id="ARC">
	<path class="st0" d="M1009.99,366.98c-75.68-1.47-151.39-1.47-227.07,0"/>
</g>
<g id="ARC_00000172426551081961941290000003155066497726692493_">
	<path class="st0" d="M1009.91,370.87c-75.63-1.47-151.29-1.47-226.92,0"/>
</g>
<g id="LWPOLYLINE_00000078024947759266705600000009322510254070836615_">
	<path class="st0" d="M335.67,375.12c62.22-17.2,121.68-43.14,176.61-77.05c118.97-60.59,250.66-91.95,384.17-91.49"/>
</g>
<g id="LWPOLYLINE_00000026854710589793774810000004343535187198123673_">
	<path class="st0" d="M344.44,374.97c59.44-17.23,116.27-42.44,168.95-74.94c118.63-60.4,249.94-91.66,383.05-91.2"/>
</g>
<g id="LWPOLYLINE_00000159452161486400431270000007988678156617205395_">
	<path class="st0" d="M1457.23,375.12c-62.22-17.2-121.68-43.14-176.61-77.05c-118.97-60.59-250.66-91.95-384.17-91.49"/>
</g>
<g id="LWPOLYLINE_00000044174387236130164550000011957640833581761668_">
	<path class="st0" d="M1448.46,374.97c-59.44-17.23-116.27-42.44-168.95-74.94c-118.63-60.4-249.94-91.66-383.05-91.2"/>
</g>
<g id="LWPOLYLINE_00000127758839713409140340000018085175616488713386_">
	<path class="st0" d="M268.29,411.49c15.83,0.68,31.59,2.5,47.15,5.46c19.73,3.98,39.24,8.95,58.47,14.91
		c19.72,5.36,38.82,12.81,56.95,22.23"/>
</g>
<g id="LWPOLYLINE_00000115483680659232751700000001117044246644750238_">
	<path class="st0" d="M268.25,413.74c15.7,0.68,31.33,2.49,46.76,5.42c19.66,3.96,39.11,8.92,58.27,14.86
		c19.96,5.42,39.27,13,57.58,22.6"/>
</g>
<g id="LWPOLYLINE_00000049212232729884281240000013571355945160018056_">
	<path class="st0" d="M430.86,454.08c35.34-43.16,78.16-79.61,126.41-107.61c48.61-32.79,102.1-57.68,158.48-73.75
		c58.81-16.68,119.57-25.52,180.69-26.31"/>
</g>
<g id="LWPOLYLINE_00000034781972085568380600000014033178329120404157_">
	<path class="st0" d="M430.86,456.62c35.92-43.23,79.1-79.85,127.61-108.24c48.43-32.68,101.72-57.49,157.9-73.5
		c58.62-16.62,119.18-25.44,180.1-26.23"/>
</g>
<g id="LWPOLYLINE_00000068649953375845265260000012168405862103857084_">
	<path class="st0" d="M1362.04,454.08c-35.34-43.16-78.16-79.61-126.41-107.61c-48.61-32.79-102.1-57.68-158.48-73.75
		c-58.81-16.68-119.57-25.52-180.69-26.31"/>
</g>
<g id="LWPOLYLINE_00000175319458159464680820000015918479368099170473_">
	<path class="st0" d="M1362.04,456.62c-35.92-43.22-79.1-79.85-127.61-108.24c-48.43-32.68-101.72-57.49-157.91-73.5
		c-58.62-16.62-119.18-25.44-180.11-26.23"/>
</g>
<g id="LINE_00000043431523464111261440000016583597067364126129_">
	<line class="st0" x1="54.14" y1="792.85" x2="54.14" y2="865.09"/>
</g>
<g id="LINE_00000023982201522214440460000011267423374792362131_">
	<line class="st0" x1="75.44" y1="792.85" x2="75.44" y2="865.09"/>
</g>
<g id="LINE_00000160885298879804085270000010883246919925561512_">
	<line class="st0" x1="96.51" y1="792.85" x2="96.51" y2="865.09"/>
</g>
<g id="LINE_00000058581238909757861390000007339016301645615006_">
	<line class="st0" x1="117.58" y1="792.85" x2="117.58" y2="865.09"/>
</g>
<g id="LINE_00000151535182856624567820000000687702567642546324_">
	<line class="st0" x1="138.88" y1="792.85" x2="138.88" y2="865.09"/>
</g>
<g id="LINE_00000158736858703983673310000017163501856535875463_">
	<line class="st0" x1="159.95" y1="792.85" x2="159.95" y2="865.09"/>
</g>
<g id="LINE_00000127744104003324146130000001052841277852562316_">
	<line class="st0" x1="181.24" y1="792.85" x2="181.24" y2="865.09"/>
</g>
<g id="LINE_00000118388431613765249560000005152312083009968815_">
	<line class="st0" x1="202.32" y1="792.85" x2="202.32" y2="865.09"/>
</g>
<g id="LINE_00000093172865680112848590000016357311599582852537_">
	<line class="st0" x1="223.61" y1="792.85" x2="223.61" y2="865.09"/>
</g>
<g id="LINE_00000034085734073542615790000002334193023146887830_">
	<line class="st0" x1="244.69" y1="792.85" x2="244.69" y2="865.09"/>
</g>
<g id="LINE_00000018934401132560986200000010332983943945752194_">
	<line class="st0" x1="265.75" y1="792.85" x2="265.75" y2="865.09"/>
</g>
<g id="LINE_00000011716365694958040470000018284166441818142360_">
	<line class="st0" x1="287.05" y1="792.85" x2="287.05" y2="865.09"/>
</g>
<g id="LINE_00000174596696544511150630000010341983276160147081_">
	<line class="st0" x1="308.12" y1="792.85" x2="308.12" y2="865.09"/>
</g>
<g id="LINE_00000111156211783473219420000006148991357142096039_">
	<line class="st0" x1="329.42" y1="792.85" x2="329.42" y2="865.09"/>
</g>
<g id="LINE_00000079459144289838417630000010560391074201001382_">
	<line class="st0" x1="350.49" y1="792.85" x2="350.49" y2="865.09"/>
</g>
<g id="LINE_00000073703770090756174830000017792476796753019313_">
	<line class="st0" x1="378.04" y1="792.85" x2="378.04" y2="865.09"/>
</g>
<g id="LINE_00000103986332403767076810000009176848508875541385_">
	<line class="st0" x1="405.59" y1="792.85" x2="405.59" y2="865.09"/>
</g>
<g id="LINE_00000128480801494135720890000018111332790487272887_">
	<line class="st0" x1="435.22" y1="792.85" x2="435.22" y2="865.09"/>
</g>
<g id="LINE_00000072987533222679460430000005922804230119780788_">
	<line class="st0" x1="464.86" y1="792.85" x2="464.86" y2="865.09"/>
</g>
<g id="LINE_00000036972622261917709430000015011359019708780957_">
	<line class="st0" x1="492.41" y1="792.85" x2="492.41" y2="865.09"/>
</g>
<g id="LINE_00000041287885273401897010000001116916449699213184_">
	<line class="st0" x1="519.73" y1="792.85" x2="519.73" y2="865.09"/>
</g>
<g id="LINE_00000004522330006222755570000015500301311855567779_">
	<line class="st0" x1="547.28" y1="792.85" x2="547.28" y2="865.09"/>
</g>
<g id="LINE_00000166676568181017600530000004751588483672714395_">
	<line class="st0" x1="574.83" y1="792.85" x2="574.83" y2="865.09"/>
</g>
<g id="LINE_00000151520383171910371800000011449572284286776225_">
	<line class="st0" x1="600.3" y1="792.85" x2="600.3" y2="865.09"/>
</g>
<g id="LINE_00000009569196788107362700000009408359629664921531_">
	<line class="st0" x1="625.54" y1="792.85" x2="625.54" y2="865.09"/>
</g>
<g id="LINE_00000047765869614391099870000005656954981030804409_">
	<line class="st0" x1="646.83" y1="792.85" x2="646.83" y2="865.09"/>
</g>
<g id="LINE_00000173879448024173097880000009509054947118610353_">
	<line class="st0" x1="667.91" y1="792.85" x2="667.91" y2="865.09"/>
</g>
<g id="LINE_00000168832094895105541960000000841815228650659207_">
	<line class="st0" x1="689.2" y1="792.85" x2="689.2" y2="865.09"/>
</g>
<g id="LINE_00000099638302240508683280000006089207655501182126_">
	<line class="st0" x1="710.27" y1="792.85" x2="710.27" y2="865.09"/>
</g>
<g id="LINE_00000090289846159721943380000005331343243806370470_">
	<line class="st0" x1="731.58" y1="792.85" x2="731.58" y2="865.09"/>
</g>
<g id="LINE_00000094597815387843073030000002790647139019885478_">
	<line class="st0" x1="752.64" y1="792.85" x2="752.64" y2="865.09"/>
</g>
<g id="LINE_00000052079866860796325380000002382473187190886801_">
	<line class="st0" x1="773.71" y1="792.85" x2="773.71" y2="865.09"/>
</g>
<g id="LINE_00000026159671055115450790000001606196346266960046_">
	<line class="st0" x1="795.01" y1="792.85" x2="795.01" y2="865.09"/>
</g>
<g id="LINE_00000109728014530526910020000017093515794368583306_">
	<line class="st0" x1="816.08" y1="792.85" x2="816.08" y2="865.09"/>
</g>
<g id="LINE_00000036958087123448572350000011514732910285939587_">
	<line class="st0" x1="837.38" y1="792.85" x2="837.38" y2="865.09"/>
</g>
<g id="LINE_00000036962587348352146440000009160433358455119502_">
	<line class="st0" x1="858.45" y1="792.85" x2="858.45" y2="865.09"/>
</g>
<g id="LINE_00000021114927694516035140000002399368989985413808_">
	<line class="st0" x1="879.52" y1="792.85" x2="879.52" y2="865.09"/>
</g>
<g id="LINE_00000021111834815132736460000017258831970283114667_">
	<line class="st0" x1="900.81" y1="792.85" x2="900.81" y2="865.09"/>
</g>
<g id="LINE_00000129179531032002790950000000190575089975786143_">
	<line class="st0" x1="54.14" y1="792.85" x2="1879.22" y2="792.85"/>
</g>
<g id="LINE_00000150089320303617663160000011001375583826472850_">
	<line class="st0" x1="54.14" y1="804.66" x2="1879.22" y2="804.66"/>
</g>
<g id="LINE_00000143596759146287248910000000635139679174790327_">
	<line class="st0" x1="54.14" y1="808.83" x2="1879.22" y2="808.83"/>
</g>
<g id="LINE_00000029046312288636921510000017662500341202765245_">
	<line class="st0" x1="54.14" y1="828.97" x2="1879.22" y2="828.97"/>
</g>
<g id="LINE_00000160893872873812030440000006661163281270198410_">
	<line class="st0" x1="54.14" y1="865.09" x2="1879.22" y2="865.09"/>
</g>
<g id="LINE_00000152252042898421048790000006850769537790976949_">
	<line class="st0" x1="54.14" y1="853.28" x2="1879.22" y2="853.28"/>
</g>
<g id="LINE_00000066477654675945837130000004180955367422370475_">
	<line class="st0" x1="54.14" y1="849.12" x2="1879.22" y2="849.12"/>
</g>
<g id="LINE_00000091715949285214917330000010414626813815239314_">
	<line class="st0" x1="1747.49" y1="792.85" x2="1747.49" y2="865.09"/>
</g>
<g id="LINE_00000065763845157262988640000017806062893381518228_">
	<line class="st0" x1="1726.19" y1="792.85" x2="1726.19" y2="865.09"/>
</g>
<g id="LINE_00000175321852066323268280000005457273337391640504_">
	<line class="st0" x1="1705.12" y1="792.85" x2="1705.12" y2="865.09"/>
</g>
<g id="LINE_00000062896019210477739520000011319198574419996326_">
	<line class="st0" x1="1684.05" y1="792.85" x2="1684.05" y2="865.09"/>
</g>
<g id="LINE_00000155143125862639234490000017414868324922064296_">
	<line class="st0" x1="1662.75" y1="792.85" x2="1662.75" y2="865.09"/>
</g>
<g id="LINE_00000101097828322073027660000017230304499656793222_">
	<line class="st0" x1="1641.68" y1="792.85" x2="1641.68" y2="865.09"/>
</g>
<g id="LINE_00000147215851645125718430000000467119595975341957_">
	<line class="st0" x1="1620.38" y1="792.85" x2="1620.38" y2="865.09"/>
</g>
<g id="LINE_00000101085447068917964410000010832333211491122072_">
	<line class="st0" x1="1599.31" y1="792.85" x2="1599.31" y2="865.09"/>
</g>
<g id="LINE_00000127735644608085208660000008545714151143007156_">
	<line class="st0" x1="1578.01" y1="792.85" x2="1578.01" y2="865.09"/>
</g>
<g id="LINE_00000065795697258013790980000006882208041930043267_">
	<line class="st0" x1="1556.94" y1="792.85" x2="1556.94" y2="865.09"/>
</g>
<g id="LINE_00000034071314413643989600000004420842173888599211_">
	<line class="st0" x1="1535.88" y1="792.85" x2="1535.88" y2="865.09"/>
</g>
<g id="LINE_00000059992393318923143590000013990519531320294569_">
	<line class="st0" x1="1514.58" y1="792.85" x2="1514.58" y2="865.09"/>
</g>
<g id="LINE_00000029739988595553512510000006416549042613661846_">
	<line class="st0" x1="1493.51" y1="792.85" x2="1493.51" y2="865.09"/>
</g>
<g id="LINE_00000117653877805649273530000011178418952365296263_">
	<line class="st0" x1="1472.21" y1="792.85" x2="1472.21" y2="865.09"/>
</g>
<g id="LINE_00000143599238279714289990000000838173337922426507_">
	<line class="st0" x1="1451.14" y1="792.85" x2="1451.14" y2="865.09"/>
</g>
<g id="LINE_00000088109906930260720870000005928420830837303688_">
	<line class="st0" x1="1423.59" y1="792.85" x2="1423.59" y2="865.09"/>
</g>
<g id="LINE_00000078737684899620182960000016902469936410489531_">
	<line class="st0" x1="1396.04" y1="792.85" x2="1396.04" y2="865.09"/>
</g>
<g id="LINE_00000142177846951155415340000001164840937691640763_">
	<line class="st0" x1="1366.41" y1="792.85" x2="1366.41" y2="865.09"/>
</g>
<g id="LINE_00000092455302511216734950000006777195964293111437_">
	<line class="st0" x1="1336.77" y1="792.85" x2="1336.77" y2="865.09"/>
</g>
<g id="LINE_00000031174397763911145010000018266841001631225277_">
	<line class="st0" x1="1309.22" y1="792.85" x2="1309.22" y2="865.09"/>
</g>
<g id="LINE_00000018234309044589100780000005677231058146116008_">
	<line class="st0" x1="1281.9" y1="792.85" x2="1281.9" y2="865.09"/>
</g>
<g id="LINE_00000081607758053986992030000008569301281762111135_">
	<line class="st0" x1="1254.35" y1="792.85" x2="1254.35" y2="865.09"/>
</g>
<g id="LINE_00000036246521719991043970000008006596150245351063_">
	<line class="st0" x1="1226.8" y1="792.85" x2="1226.8" y2="865.09"/>
</g>
<g id="LINE_00000073719260564807193350000000377688061380896407_">
	<line class="st0" x1="1201.32" y1="792.85" x2="1201.32" y2="865.09"/>
</g>
<g id="LINE_00000021828220374430925660000001099900998836343955_">
	<line class="st0" x1="1176.09" y1="792.85" x2="1176.09" y2="865.09"/>
</g>
<g id="LINE_00000026853303719361826130000009190471567062612400_">
	<line class="st0" x1="1154.79" y1="792.85" x2="1154.79" y2="865.09"/>
</g>
<g id="LINE_00000124152495216577082650000004649031449921192077_">
	<line class="st0" x1="1133.72" y1="792.85" x2="1133.72" y2="865.09"/>
</g>
<g id="LINE_00000017512174675746846910000012779471970669198510_">
	<line class="st0" x1="1112.43" y1="792.85" x2="1112.43" y2="865.09"/>
</g>
<g id="LINE_00000041977827556650749990000013505348367842663835_">
	<line class="st0" x1="1091.35" y1="792.85" x2="1091.35" y2="865.09"/>
</g>
<g id="LINE_00000060751770182699384060000015296742070375352499_">
	<line class="st0" x1="1070.05" y1="792.85" x2="1070.05" y2="865.09"/>
</g>
<g id="LINE_00000121253350744019169620000001609236954245682847_">
	<line class="st0" x1="1048.99" y1="792.85" x2="1048.99" y2="865.09"/>
</g>
<g id="LINE_00000029761908425401835740000008112892148518522274_">
	<line class="st0" x1="1027.92" y1="792.85" x2="1027.92" y2="865.09"/>
</g>
<g id="LINE_00000047771264234140264080000006275809108152232870_">
	<line class="st0" x1="1006.62" y1="792.85" x2="1006.62" y2="865.09"/>
</g>
<g id="LINE_00000083059122296345343790000000615339095047360701_">
	<line class="st0" x1="985.55" y1="792.85" x2="985.55" y2="865.09"/>
</g>
<g id="LINE_00000021819960528343855220000002261557079270942862_">
	<line class="st0" x1="964.25" y1="792.85" x2="964.25" y2="865.09"/>
</g>
<g id="LINE_00000082328104769571328350000005050640221940991923_">
	<line class="st0" x1="943.18" y1="792.85" x2="943.18" y2="865.09"/>
</g>
<g id="LINE_00000168826507209726003890000002663927880753479562_">
	<line class="st0" x1="922.11" y1="792.85" x2="922.11" y2="865.09"/>
</g>
<g id="LINE_00000049182230939302366670000000283018801784179847_">
	<line class="st0" x1="1879.22" y1="865.09" x2="1879.22" y2="792.85"/>
</g>
<g id="LWPOLYLINE_00000144306279304040580130000005362806014300918171_">
	<path class="st0" d="M1524.61,411.49c-15.83,0.68-31.59,2.5-47.15,5.46c-19.73,3.98-39.24,8.95-58.47,14.91
		c-19.72,5.36-38.82,12.81-56.95,22.23"/>
</g>
<g id="LWPOLYLINE_00000183934678151500928710000012250106686970565524_">
	<path class="st0" d="M1524.65,413.74c-15.7,0.68-31.33,2.49-46.76,5.42c-19.66,3.96-39.11,8.92-58.27,14.86
		c-19.96,5.42-39.27,13-57.58,22.6"/>
</g>
<g id="LINE_00000090279614425724523300000008475969422265072303_">
	<line class="st0" x1="71.08" y1="379.83" x2="71.08" y2="411.49"/>
</g>
<g id="LINE_00000034782753480346410820000002748403560771740035_">
	<line class="st0" x1="92.14" y1="379.45" x2="92.14" y2="411.49"/>
</g>
<g id="LINE_00000181797643319568635570000009943277719884935561_">
	<line class="st0" x1="113.45" y1="379.08" x2="113.45" y2="411.49"/>
</g>
<g id="LINE_00000108286487503607460340000001361426123623716004_">
	<line class="st0" x1="134.51" y1="378.7" x2="134.51" y2="411.49"/>
</g>
<g id="LINE_00000022557104284288048150000000624888976679879820_">
	<line class="st0" x1="155.81" y1="378.32" x2="155.81" y2="411.49"/>
</g>
<g id="LINE_00000155831977588429056360000010274724447178429857_">
	<line class="st0" x1="176.88" y1="377.95" x2="176.88" y2="411.49"/>
</g>
<g id="LINE_00000143591313224486111140000015180589830331221635_">
	<line class="st0" x1="197.95" y1="377.57" x2="197.95" y2="411.49"/>
</g>
<g id="LINE_00000048476768646150348520000000363629671213397657_">
	<line class="st0" x1="219.25" y1="377.2" x2="219.25" y2="411.49"/>
</g>
<g id="LINE_00000098194427379487659900000004368657989506096777_">
	<line class="st0" x1="240.32" y1="376.82" x2="240.32" y2="411.49"/>
</g>
<g id="LINE_00000052826779073525125640000017181505058753278103_">
	<line class="st0" x1="261.61" y1="376.44" x2="261.61" y2="411.49"/>
</g>
<g id="LINE_00000087400445967776371670000015469535517711039639_">
	<line class="st0" x1="282.69" y1="376.07" x2="282.69" y2="412.42"/>
</g>
<g id="LINE_00000054970576059891186370000003606561468597945219_">
	<line class="st0" x1="303.75" y1="375.69" x2="303.75" y2="414.94"/>
</g>
<g id="LINE_00000066502099852948028970000000072377222576151681_">
	<line class="st0" x1="325.06" y1="375.32" x2="325.06" y2="418.97"/>
</g>
<g id="LINE_00000109013560487863079310000015118950761995366795_">
	<line class="st0" x1="346.12" y1="372.14" x2="346.12" y2="423.98"/>
</g>
<g id="LINE_00000075145870440660448500000008483517632460777899_">
	<line class="st0" x1="373.67" y1="363.41" x2="373.67" y2="431.78"/>
</g>
<g id="LINE_00000181048956043714004640000001830871572641217457_">
	<line class="st0" x1="401.22" y1="353.37" x2="401.22" y2="440.77"/>
</g>
<g id="LINE_00000056389392147075982120000000083748124619431313_">
	<line class="st0" x1="430.86" y1="341.03" x2="430.86" y2="456.62"/>
</g>
<g id="LINE_00000018233587461168185320000009682251225717104781_">
	<line class="st0" x1="460.49" y1="327" x2="460.49" y2="421.22"/>
</g>
<g id="LINE_00000172436525779926047300000009452139756240748207_">
	<line class="st0" x1="488.04" y1="312.35" x2="488.04" y2="395.6"/>
</g>
<g id="LINE_00000065760073823713593260000012376408445241465226_">
	<line class="st0" x1="515.59" y1="296.39" x2="515.59" y2="373.74"/>
</g>
<g id="LINE_00000103984361687348229110000002183382497621887386_">
	<line class="st0" x1="542.92" y1="283.24" x2="542.92" y2="371.45"/>
</g>
<g id="LINE_00000177443761900894997450000008229269037324154248_">
	<line class="st0" x1="570.47" y1="271.18" x2="570.47" y2="370.96"/>
</g>
<g id="LINE_00000001621934478427468380000016609521886821727906_">
	<line class="st0" x1="595.93" y1="261.06" x2="595.93" y2="370.5"/>
</g>
<g id="LINE_00000014613616483853832160000004897940737683653563_">
	<line class="st0" x1="621.4" y1="251.88" x2="621.4" y2="370.05"/>
</g>
<g id="LINE_00000129186683600771668080000010382312157512919486_">
	<line class="st0" x1="642.47" y1="244.97" x2="642.47" y2="369.68"/>
</g>
<g id="LINE_00000063605395224779805410000002309375102907911042_">
	<line class="st0" x1="663.77" y1="238.61" x2="663.77" y2="369.3"/>
</g>
<g id="LINE_00000158733643794918635370000007998839887569458340_">
	<line class="st0" x1="684.83" y1="232.91" x2="684.83" y2="368.92"/>
</g>
<g id="LINE_00000084510148168441563290000004413510658510768312_">
	<line class="st0" x1="705.9" y1="227.8" x2="705.9" y2="368.55"/>
</g>
<g id="LINE_00000124148525231077771570000005901226645351075973_">
	<line class="st0" x1="727.21" y1="223.21" x2="727.21" y2="368.17"/>
</g>
<g id="LINE_00000100378711249619586370000002852535537212793017_">
	<line class="st0" x1="748.28" y1="219.23" x2="748.28" y2="367.8"/>
</g>
<g id="LINE_00000090262506063055911560000000027852584878495417_">
	<line class="st0" x1="769.57" y1="215.77" x2="769.57" y2="367.38"/>
</g>
<g id="LINE_00000127034809743657710440000008999521631265026435_">
	<line class="st0" x1="790.65" y1="212.9" x2="790.65" y2="366.83"/>
</g>
<g id="LINE_00000046336180174809520060000002065048902422359995_">
	<line class="st0" x1="811.71" y1="210.57" x2="811.71" y2="366.49"/>
</g>
<g id="LINE_00000010307768061775627910000001101560950078658696_">
	<line class="st0" x1="833.01" y1="208.76" x2="833.01" y2="366.22"/>
</g>
<g id="LINE_00000167358246987499349750000004199137253920681919_">
	<line class="st0" x1="854.08" y1="207.5" x2="854.08" y2="366.03"/>
</g>
<g id="LINE_00000132786547499972615770000014094414103538291087_">
	<line class="st0" x1="875.38" y1="206.77" x2="875.38" y2="365.91"/>
</g>
<g id="LINE_00000124159453540770559740000014385096404868278159_">
	<line class="st0" x1="896.45" y1="206.58" x2="896.45" y2="365.87"/>
</g>
<g id="LINE_00000013156520503165627980000012248473143091580046_">
	<line class="st0" x1="1721.82" y1="379.83" x2="1721.82" y2="411.49"/>
</g>
<g id="LINE_00000075859735834331039090000006746678645201736090_">
	<line class="st0" x1="1700.76" y1="379.45" x2="1700.76" y2="411.49"/>
</g>
<g id="LINE_00000075855925549903473510000012346958048509570705_">
	<line class="st0" x1="1679.45" y1="379.08" x2="1679.45" y2="411.49"/>
</g>
<g id="LINE_00000182506572303623763890000001033428067478082191_">
	<line class="st0" x1="1658.39" y1="378.7" x2="1658.39" y2="411.49"/>
</g>
<g id="LINE_00000079454808201521272800000000921144063856895360_">
	<line class="st0" x1="1637.09" y1="378.32" x2="1637.09" y2="411.49"/>
</g>
<g id="LINE_00000026123612033885557020000015118825164331242625_">
	<line class="st0" x1="1616.02" y1="377.95" x2="1616.02" y2="411.49"/>
</g>
<g id="LINE_00000035505489757001453510000001701801031510156160_">
	<line class="st0" x1="1594.95" y1="377.57" x2="1594.95" y2="411.49"/>
</g>
<g id="LINE_00000008133092482000214070000005227868038591760287_">
	<line class="st0" x1="1573.65" y1="377.2" x2="1573.65" y2="411.49"/>
</g>
<g id="LINE_00000136390011922183989440000008480781738197051823_">
	<line class="st0" x1="1552.58" y1="376.82" x2="1552.58" y2="411.49"/>
</g>
<g id="LINE_00000154395323824925209880000006066528274592762047_">
	<line class="st0" x1="1531.28" y1="376.44" x2="1531.28" y2="411.49"/>
</g>
<g id="LINE_00000137103984197243673990000010588329740444365199_">
	<line class="st0" x1="1510.21" y1="376.07" x2="1510.21" y2="412.42"/>
</g>
<g id="LINE_00000010300136760371563700000017876431468812691083_">
	<line class="st0" x1="1489.15" y1="375.69" x2="1489.15" y2="414.94"/>
</g>
<g id="LINE_00000161593751532430867490000005478389776139003298_">
	<line class="st0" x1="1467.84" y1="375.32" x2="1467.84" y2="418.97"/>
</g>
<g id="LINE_00000046325816029867558580000003768101704602292879_">
	<line class="st0" x1="1446.78" y1="372.14" x2="1446.78" y2="423.98"/>
</g>
<g id="LINE_00000147211340808577838080000006625637056293721988_">
	<line class="st0" x1="1419.23" y1="363.41" x2="1419.23" y2="431.78"/>
</g>
<g id="LINE_00000104679510465577565120000003244891437076883099_">
	<line class="st0" x1="1391.68" y1="353.37" x2="1391.68" y2="440.77"/>
</g>
<g id="LINE_00000161632625476508525800000007919818019794763149_">
	<line class="st0" x1="1362.04" y1="341.03" x2="1362.04" y2="456.62"/>
</g>
<g id="LINE_00000052083294047732866360000007627700790822887816_">
	<line class="st0" x1="1332.41" y1="327" x2="1332.41" y2="421.22"/>
</g>
<g id="LINE_00000127012965045067340690000016453139673588456379_">
	<line class="st0" x1="1304.86" y1="312.35" x2="1304.86" y2="395.6"/>
</g>
<g id="LINE_00000147189320068121856470000007601021258828298920_">
	<line class="st0" x1="1277.31" y1="296.39" x2="1277.31" y2="373.74"/>
</g>
<g id="LINE_00000049211919887169422580000016634781650826974133_">
	<line class="st0" x1="1249.98" y1="283.24" x2="1249.98" y2="371.45"/>
</g>
<g id="LINE_00000150803134792362696290000012038589519618267567_">
	<line class="st0" x1="1222.43" y1="271.18" x2="1222.43" y2="370.96"/>
</g>
<g id="LINE_00000004508171361643715640000001480781429534697405_">
	<line class="st0" x1="1196.97" y1="261.06" x2="1196.97" y2="370.5"/>
</g>
<g id="LINE_00000098913314998143497170000001779481332263518599_">
	<line class="st0" x1="1171.5" y1="251.88" x2="1171.5" y2="370.05"/>
</g>
<g id="LINE_00000121995818724200348500000008572681438224262065_">
	<line class="st0" x1="1150.43" y1="244.97" x2="1150.43" y2="369.68"/>
</g>
<g id="LINE_00000070805022367386704430000003858637215129797005_">
	<line class="st0" x1="1129.13" y1="238.61" x2="1129.13" y2="369.3"/>
</g>
<g id="LINE_00000090261308125311754400000015397391154518093194_">
	<line class="st0" x1="1108.07" y1="232.91" x2="1108.07" y2="368.92"/>
</g>
<g id="LINE_00000033364784111007766240000014164830655705528453_">
	<line class="st0" x1="1086.99" y1="227.8" x2="1086.99" y2="368.55"/>
</g>
<g id="LINE_00000171688780828098121050000003237093580192467588_">
	<line class="st0" x1="1065.69" y1="223.21" x2="1065.69" y2="368.17"/>
</g>
<g id="LINE_00000110430611456984828930000006275197822930352258_">
	<line class="st0" x1="1044.62" y1="219.23" x2="1044.62" y2="367.8"/>
</g>
<g id="LINE_00000026871365882920109780000015691592700472929697_">
	<line class="st0" x1="1023.32" y1="215.77" x2="1023.32" y2="367.38"/>
</g>
<g id="LINE_00000038402251311318615330000010103834148742069427_">
	<line class="st0" x1="1002.25" y1="212.9" x2="1002.25" y2="366.83"/>
</g>
<g id="LINE_00000002368809278342432610000015921095649977202868_">
	<line class="st0" x1="981.19" y1="210.57" x2="981.19" y2="366.49"/>
</g>
<g id="LINE_00000109009233761072243100000008939101781690227630_">
	<line class="st0" x1="959.89" y1="208.76" x2="959.89" y2="366.22"/>
</g>
<g id="LINE_00000089556630337230300570000004756914075880517012_">
	<line class="st0" x1="938.82" y1="207.5" x2="938.82" y2="366.03"/>
</g>
<g id="LINE_00000056413323171424917300000017984821547442297762_">
	<line class="st0" x1="917.52" y1="206.77" x2="917.52" y2="365.91"/>
</g>
<g id="LINE_00000117650761867571434110000003304537965523249850_">
	<line class="st0" x1="71.08" y1="383.72" x2="48.85" y2="411.49"/>
</g>
<g id="LINE_00000000203610331615726230000017181750486224468892_">
	<line class="st0" x1="92.14" y1="383.35" x2="71.08" y2="411.49"/>
</g>
<g id="LINE_00000126321021623055620700000004679786603850355128_">
	<line class="st0" x1="113.45" y1="382.97" x2="92.14" y2="411.49"/>
</g>
<g id="LINE_00000076571613733961352890000003881381519502006157_">
	<line class="st0" x1="134.51" y1="382.6" x2="113.45" y2="411.49"/>
</g>
<g id="LINE_00000086685019963521257420000006084413889693649086_">
	<line class="st0" x1="155.81" y1="382.22" x2="134.51" y2="411.49"/>
</g>
<g id="LINE_00000067935571050486673270000005950152040552241541_">
	<line class="st0" x1="176.88" y1="381.84" x2="155.81" y2="411.49"/>
</g>
<g id="LINE_00000078020681022943021770000016071917546485324695_">
	<line class="st0" x1="197.95" y1="381.47" x2="176.88" y2="411.49"/>
</g>
<g id="LINE_00000084530253932371686720000008113232996687814824_">
	<line class="st0" x1="219.25" y1="381.09" x2="197.95" y2="411.49"/>
</g>
<g id="LINE_00000072254228857502713540000000822682884033110190_">
	<line class="st0" x1="240.32" y1="380.72" x2="219.25" y2="411.49"/>
</g>
<g id="LINE_00000071533299024823437010000007923685415180676236_">
	<line class="st0" x1="261.61" y1="380.34" x2="240.32" y2="411.48"/>
</g>
<g id="LWPOLYLINE_00000033355215733520687770000016206640820223836549_">
	<rect x="32.42" y="468.9" class="st0" width="4.16" height="69.93"/>
</g>
<g id="LWPOLYLINE_00000143595217462739779840000006040890364337353610_">
	<rect x="44.91" y="468.9" class="st0" width="4.4" height="69.93"/>
</g>
<g id="LWPOLYLINE_00000080898964469238821510000000052722640108693637_">
	<rect x="57.65" y="468.9" class="st0" width="4.4" height="69.93"/>
</g>
<g id="LWPOLYLINE_00000078742171290180518260000015418241041839257217_">
	<polyline class="st0" points="30.09,460.56 39.36,458.49 56.26,458.49 64.13,460.56 64.13,468.9 30.09,468.9 30.09,460.56 	"/>
</g>
<g id="LWPOLYLINE_00000122706384677997921960000010047314061658051995_">
	<polyline class="st0" points="41.44,388.33 41.44,458.49 54.17,458.49 54.17,412.18 47.69,412.18 47.69,380 44.91,380.22 
		44.91,388.33 41.44,388.33 	"/>
</g>
<g id="LINE_00000038377486340954114020000008316740467395549866_">
	<line class="st0" x1="56.18" y1="413.74" x2="56.18" y2="411.49"/>
</g>
<g id="LINE_00000069396938207269447560000006362176942521477798_">
	<line class="st0" x1="1736.72" y1="413.74" x2="1524.61" y2="413.74"/>
</g>
<g id="LINE_00000040538559176778748820000005874816433392807812_">
	<line class="st0" x1="1736.72" y1="413.74" x2="1736.72" y2="411.49"/>
</g>
<g id="LWPOLYLINE_00000168839726386809176290000017713027665275595921_">
	<rect x="422.29" y="455.47" class="st0" width="17.13" height="6.48"/>
</g>
<g id="LWPOLYLINE_00000074416551796643468850000017945043441916354743_">
	<polyline class="st0" points="401.22,466.12 422.29,461.95 439.42,461.95 460.49,466.12 401.22,466.12 	"/>
</g>
<g id="LWPOLYLINE_00000029011283299906161600000006813481573000393607_">
	<rect x="401.22" y="466.12" class="st0" width="59.27" height="10.65"/>
</g>
<g id="LWPOLYLINE_00000117634798735910808860000016817860924005031581_">
	<polyline class="st0" points="403.31,476.77 371.31,700.09 375.61,700.09 407.71,476.77 403.31,476.77 	"/>
</g>
<g id="LWPOLYLINE_00000094577623810826888860000013358275231180461735_">
	<polyline class="st0" points="416.05,476.77 384.05,700.09 388.35,700.09 420.44,476.77 416.05,476.77 	"/>
</g>
<g id="LWPOLYLINE_00000166659490524714917340000010745677801370712250_">
	<polyline class="st0" points="428.77,476.77 396.77,700.09 401.07,700.09 433.17,476.77 428.77,476.77 	"/>
</g>
<g id="LWPOLYLINE_00000127758025154453255950000003526593446613376141_">
	<rect x="441.51" y="476.77" class="st0" width="4.17" height="223.32"/>
</g>
<g id="LWPOLYLINE_00000101797509325850140800000000355763094651979959_">
	<rect x="454.24" y="476.77" class="st0" width="4.17" height="223.32"/>
</g>
<g id="LWPOLYLINE_00000132794039769086653660000012399742778343269305_">
	<rect x="1353.48" y="455.47" class="st0" width="17.13" height="6.48"/>
</g>
<g id="LWPOLYLINE_00000174567135377137414210000004948547671847843462_">
	<polyline class="st0" points="1391.68,466.12 1370.61,461.95 1353.48,461.95 1332.41,466.12 1391.68,466.12 	"/>
</g>
<g id="LWPOLYLINE_00000145016779374348126020000007598615533894036626_">
	<rect x="1332.41" y="466.12" class="st0" width="59.27" height="10.65"/>
</g>
<g id="LWPOLYLINE_00000044870183504155435860000006718589090430002354_">
	<polyline class="st0" points="1389.59,476.77 1421.59,700.09 1417.29,700.09 1385.19,476.77 1389.59,476.77 	"/>
</g>
<g id="LWPOLYLINE_00000057130565380834100610000015097571759536970649_">
	<polyline class="st0" points="1376.85,476.77 1408.85,700.09 1404.55,700.09 1372.45,476.77 1376.85,476.77 	"/>
</g>
<g id="LWPOLYLINE_00000097491366048845992390000001674265868785331872_">
	<polyline class="st0" points="1364.13,476.77 1396.13,700.09 1391.83,700.09 1359.73,476.77 1364.13,476.77 	"/>
</g>
<g id="LWPOLYLINE_00000055682522441207440370000014088800831819226521_">
	<rect x="1347.22" y="476.77" class="st0" width="4.17" height="223.32"/>
</g>
<g id="LWPOLYLINE_00000035507339520840759870000011534520920632441020_">
	<rect x="1334.49" y="476.77" class="st0" width="4.17" height="223.32"/>
</g>
<g id="LWPOLYLINE_00000048470942430974336300000010650797931067865986_">
	<polyline class="st0" points="0,449.92 201.89,475.61 263.69,504 272.04,505.48 281.32,506.53 288.24,509.42 293.73,514.39 
		298.28,520.19 349.62,518.22 370.08,513.59 391.73,513.59 418.36,522.84 424.46,528.61 433.41,530.49 449.61,534.88 455.4,539.05 
		465.36,546 468.42,547.67 481.8,551.79 501.42,554.71 571.16,555.95 595.7,551.79 612.63,548.41 618.16,548.19 660.53,543.22 
		671.41,539.28 716.09,539.05 730.91,542.98 758.93,551.79 768.88,551.79 792.49,547.38 857.32,549.47 863.25,549.66 924.31,549.66 
		930.25,549.93 947.38,548.31 954.33,547.38 969.27,545.39 985.81,551.79 1012.44,551.79 1031.89,543.22 1047.4,541.6 
		1059.9,543.22 1068.7,543.22 1081.36,540.4 1096.02,535.35 1107.36,530.49 1119.17,530.49 1141.4,534.66 1269.42,543.22 
		1311.92,543.16 1339.35,535.57 1422.93,534.66 1448.63,543.22 1510.67,543.22 1539.38,534.88 1587.3,522.15 1599.92,517.62 
		1611.15,513.35 1671.3,491.59 1707,479.78 1769.05,458.49 1781.55,454.32 1831.1,450.15 1920,446.91 	"/>
</g>
<g id="LWPOLYLINE_00000048486160151241599180000000095658438485779865_">
	<polyline class="st0" points="1745.21,380 1747.75,380.22 1747.75,387.63 1751.22,387.63 1751.22,389.25 1752.85,389.25 
		1752.85,392.5 1751.46,395.04 1751.46,457.09 1738.96,457.09 1738.96,412.18 1745.21,412.18 1745.21,380 	"/>
</g>
<g id="LWPOLYLINE_00000139263302168764262780000016814443690819678119_">
	<polygon class="st0" points="1753.77,457.09 1736.64,457.09 1728.3,460.56 1762.11,460.56 	"/>
</g>
<g id="LWPOLYLINE_00000126315536019830515770000011836963229874758530_">
	<rect x="1728.3" y="460.56" class="st0" width="33.8" height="8.33"/>
</g>
<g id="LWPOLYLINE_00000175280126349748147890000000265621765613953722_">
	<rect x="1730.39" y="468.9" class="st0" width="4.17" height="231.2"/>
</g>
<g id="LWPOLYLINE_00000171693998843181037000000000813632778038181788_">
	<rect x="1743.12" y="468.9" class="st0" width="4.17" height="231.2"/>
</g>
<g id="LWPOLYLINE_00000042702053965825228970000008283988376519405470_">
	<rect x="1755.86" y="468.9" class="st0" width="4.17" height="231.2"/>
</g>
<g id="LWPOLYLINE_00000054979145678513349420000000846225925995188902_">
	<polyline class="st0" points="1748.22,387.41 1876.94,388.56 1876.94,381.15 1748.22,379.82 1748.22,387.41 	"/>
</g>
<g id="LWPOLYLINE_00000071551797202605998100000013168419511881465508_">
	<polyline class="st0" points="1873.93,389.03 1877.4,389.03 1877.4,389.72 1884.81,389.72 1884.81,395.51 1872.31,395.51 
		1872.31,391.11 1873.93,391.11 1873.93,389.03 	"/>
</g>
<g id="LWPOLYLINE_00000065063939926549034370000006387992223582164367_">
	<polyline class="st0" points="1872.31,395.51 1873.24,398.98 1883.88,398.98 1884.81,395.51 1872.31,395.51 	"/>
</g>
<g id="LWPOLYLINE_00000047019932885103549220000014503190693118524558_">
	<rect x="1873.24" y="398.98" class="st0" width="10.65" height="48.15"/>
</g>
<g id="LWPOLYLINE_00000033366857085847941760000014370541603003481475_">
	<polyline class="st0" points="1871.15,447.13 1885.97,447.13 1895.46,450.38 1861.66,450.38 1871.15,447.13 	"/>
</g>
<g id="LWPOLYLINE_00000015350323357820750480000015254005753332483005_">
	<rect x="1861.66" y="450.38" class="st0" width="33.8" height="8.57"/>
</g>
<g id="LWPOLYLINE_00000080171515734527909660000008522473915515515287_">
	<rect x="1863.74" y="458.95" class="st0" width="4.17" height="241.15"/>
</g>
<g id="LWPOLYLINE_00000155864720998109688260000008271650027240220041_">
	<rect x="1876.48" y="458.95" class="st0" width="4.17" height="241.15"/>
</g>
<g id="LWPOLYLINE_00000101826116630028458000000014121074616531844796_">
	<rect x="1889.21" y="458.95" class="st0" width="4.17" height="241.15"/>
</g>
<g id="LWPOLYLINE_00000132775089265511486680000012971913382944059011_">
	<rect x="37.24" y="790.77" class="st0" width="33.81" height="76.17"/>
</g>
<g id="LWPOLYLINE_00000180355248292021917500000005261736614927556539_">
	<rect x="405.59" y="784.51" class="st0" width="59.27" height="88.91"/>
</g>
<g id="LWPOLYLINE_00000181048072196201907800000003520829181384365979_">
	<rect x="1336.77" y="784.51" class="st0" width="59.27" height="88.91"/>
</g>
<g id="LWPOLYLINE_00000076593390287773712290000014577512208080477594_">
	<rect x="1730.35" y="790.77" class="st0" width="34.03" height="76.17"/>
</g>
<g id="LWPOLYLINE_00000101797634780164261670000008821747649402208943_">
	<rect x="1862.32" y="790.77" class="st0" width="33.8" height="76.17"/>
</g>
<g id="LINE_00000025416650215783602190000014002194034357899965_">
	<line class="st0" x1="282.69" y1="379.96" x2="261.61" y2="411.49"/>
</g>
<g id="LINE_00000078762901868019915250000012358870149472464574_">
	<line class="st0" x1="303.75" y1="379.59" x2="282.69" y2="412.42"/>
</g>
<g id="LINE_00000039846771289250947530000008195677179080515969_">
	<line class="st0" x1="325.06" y1="379.21" x2="303.75" y2="414.94"/>
</g>
<g id="LINE_00000042734804552759820660000012822758717248948116_">
	<line class="st0" x1="346.12" y1="374.48" x2="325.06" y2="418.97"/>
</g>
<g id="LINE_00000176746640122670910220000001085737914077955983_">
	<line class="st0" x1="373.67" y1="365.78" x2="346.12" y2="423.98"/>
</g>
<g id="LINE_00000018946115876307556610000001694989440559485103_">
	<line class="st0" x1="401.22" y1="355.78" x2="373.67" y2="431.78"/>
</g>
<g id="LINE_00000152247751332131402610000008161879666689250182_">
	<line class="st0" x1="430.86" y1="343.49" x2="401.22" y2="440.77"/>
</g>
<g id="LINE_00000052797883499023731350000005594168503402859705_">
	<line class="st0" x1="430.86" y1="343.49" x2="460.49" y2="421.22"/>
</g>
<g id="LINE_00000102536792154584374350000003047557154261562813_">
	<line class="st0" x1="460.49" y1="329.52" x2="488.04" y2="395.6"/>
</g>
<g id="LINE_00000120519093762861884440000002082122842836908673_">
	<line class="st0" x1="488.04" y1="314.93" x2="515.59" y2="373.74"/>
</g>
<g id="LINE_00000170268644356719892940000013296239254207953078_">
	<line class="st0" x1="515.59" y1="298.91" x2="542.92" y2="355.16"/>
</g>
<g id="LINE_00000117659007435295608550000010742063015898252933_">
	<line class="st0" x1="542.92" y1="285.72" x2="570.47" y2="337.84"/>
</g>
<g id="LINE_00000111904370583891563160000001451891224413616036_">
	<line class="st0" x1="570.47" y1="273.62" x2="595.93" y2="322.63"/>
</g>
<g id="LINE_00000060750964875263690730000013608918799170178223_">
	<line class="st0" x1="595.93" y1="263.46" x2="621.4" y2="309.19"/>
</g>
<g id="LINE_00000043432631596794573430000006670886810738865797_">
	<line class="st0" x1="621.4" y1="254.26" x2="642.47" y2="299.29"/>
</g>
<g id="LINE_00000069364488282087969600000001632989746621667215_">
	<line class="st0" x1="642.47" y1="247.33" x2="663.77" y2="290.36"/>
</g>
<g id="LINE_00000134242194727317845630000010568745659052676007_">
	<line class="st0" x1="663.77" y1="240.95" x2="684.83" y2="282.52"/>
</g>
<g id="LINE_00000057135815105403059480000013950916806156550785_">
	<line class="st0" x1="684.83" y1="235.24" x2="705.9" y2="275.63"/>
</g>
<g id="LINE_00000158031120507056851290000001949720077725572753_">
	<line class="st0" x1="705.9" y1="230.11" x2="727.21" y2="269.58"/>
</g>
<g id="LINE_00000044881437344423373850000010585125056577927332_">
	<line class="st0" x1="727.21" y1="225.5" x2="748.28" y2="264.34"/>
</g>
<g id="LINE_00000023998821783419527150000009415310843712414126_">
	<line class="st0" x1="748.28" y1="221.52" x2="769.57" y2="259.75"/>
</g>
<g id="LINE_00000065769527674295456260000017136886637403117988_">
	<line class="st0" x1="769.57" y1="218.05" x2="790.65" y2="255.89"/>
</g>
<g id="LINE_00000134237002957990574540000004576281197835052208_">
	<line class="st0" x1="790.65" y1="215.17" x2="811.71" y2="252.7"/>
</g>
<g id="LINE_00000007394137196831088750000012985882959373907335_">
	<line class="st0" x1="811.71" y1="212.83" x2="833.01" y2="250.13"/>
</g>
<g id="LINE_00000171705211490554463970000008236899352079476127_">
	<line class="st0" x1="833.01" y1="211.02" x2="854.08" y2="248.25"/>
</g>
<g id="LINE_00000150781408159540500210000003606801713724621491_">
	<line class="st0" x1="854.08" y1="209.76" x2="875.38" y2="247"/>
</g>
<g id="LINE_00000003103133517971530500000002973936511839183530_">
	<line class="st0" x1="875.38" y1="209.02" x2="896.45" y2="246.41"/>
</g>
<g id="LINE_00000034071286644445874050000008276030764431139720_">
	<line class="st0" x1="1721.84" y1="383.72" x2="1744.06" y2="411.49"/>
</g>
<g id="LINE_00000012465562970426121540000001661489999993784486_">
	<line class="st0" x1="1700.77" y1="383.35" x2="1721.84" y2="411.49"/>
</g>
<g id="LINE_00000083802319851217903800000004223253862327327365_">
	<line class="st0" x1="1679.47" y1="382.97" x2="1700.77" y2="411.49"/>
</g>
<g id="LINE_00000176759338726679809030000000079448742552861312_">
	<line class="st0" x1="1658.4" y1="382.6" x2="1679.47" y2="411.49"/>
</g>
<g id="LINE_00000008831060898402958010000017391984447254831248_">
	<line class="st0" x1="1637.1" y1="382.22" x2="1658.4" y2="411.49"/>
</g>
<g id="LINE_00000020376995086630893190000015821551159158839716_">
	<line class="st0" x1="1616.03" y1="381.84" x2="1637.1" y2="411.49"/>
</g>
<g id="LINE_00000138563882285776624230000006083423746400132515_">
	<line class="st0" x1="1594.97" y1="381.47" x2="1616.03" y2="411.49"/>
</g>
<g id="LINE_00000031201430386451373470000005923562997181369505_">
	<line class="st0" x1="1573.66" y1="381.09" x2="1594.97" y2="411.49"/>
</g>
<g id="LINE_00000154400049691705629740000006955683460431655574_">
	<line class="st0" x1="1552.6" y1="380.72" x2="1573.66" y2="411.49"/>
</g>
<g id="LINE_00000008145108180658000810000006622734901308317084_">
	<line class="st0" x1="1531.3" y1="380.34" x2="1552.6" y2="411.48"/>
</g>
<g id="LINE_00000098900114366843233310000007165625692293709952_">
	<line class="st0" x1="1510.23" y1="379.96" x2="1531.3" y2="411.49"/>
</g>
<g id="LINE_00000129908781081781048450000018273508854738364308_">
	<line class="st0" x1="1489.16" y1="379.59" x2="1510.23" y2="412.42"/>
</g>
<g id="LINE_00000078020211231691215560000015179749521753950095_">
	<line class="st0" x1="1467.86" y1="379.21" x2="1489.16" y2="414.94"/>
</g>
<g id="LINE_00000036951928091508519360000010304557735584850575_">
	<line class="st0" x1="1446.79" y1="374.48" x2="1467.86" y2="418.97"/>
</g>
<g id="LINE_00000014594738879268725590000015946326671642374057_">
	<line class="st0" x1="1419.24" y1="365.78" x2="1446.79" y2="423.98"/>
</g>
<g id="LINE_00000127033583579191733900000011851091785421450161_">
	<line class="st0" x1="1391.69" y1="355.78" x2="1419.24" y2="431.78"/>
</g>
<g id="LINE_00000117658572114244939290000013225104327118589073_">
	<line class="st0" x1="1362.05" y1="343.49" x2="1391.69" y2="440.77"/>
</g>
<g id="LINE_00000002347248814064604480000003716006770881708733_">
	<line class="st0" x1="1362.05" y1="343.49" x2="1332.42" y2="421.22"/>
</g>
<g id="LINE_00000119082931716385459290000016474129409922760609_">
	<line class="st0" x1="1332.42" y1="329.52" x2="1304.87" y2="395.6"/>
</g>
<g id="LINE_00000167360449294346008200000007873559897025794193_">
	<line class="st0" x1="1304.87" y1="314.93" x2="1277.32" y2="373.74"/>
</g>
<g id="LINE_00000013915523101351287930000011057262531116206764_">
	<line class="st0" x1="1277.32" y1="298.91" x2="1250" y2="355.16"/>
</g>
<g id="LINE_00000075141601989924948310000013171261866036008839_">
	<line class="st0" x1="1250" y1="285.72" x2="1222.44" y2="337.84"/>
</g>
<g id="LINE_00000046321582994208260260000008992114434952066723_">
	<line class="st0" x1="1222.44" y1="273.62" x2="1196.98" y2="322.63"/>
</g>
<g id="LINE_00000145045053511419461330000014663209390387631760_">
	<line class="st0" x1="1196.98" y1="263.46" x2="1171.52" y2="309.19"/>
</g>
<g id="LINE_00000089554330223480128460000002367849260561808037_">
	<line class="st0" x1="1171.52" y1="254.26" x2="1150.45" y2="299.29"/>
</g>
<g id="LINE_00000137834565237217302480000015669597578814306717_">
	<line class="st0" x1="1150.45" y1="247.33" x2="1129.14" y2="290.36"/>
</g>
<g id="LINE_00000016049024376792405620000005192727154285950907_">
	<line class="st0" x1="1129.14" y1="240.95" x2="1108.08" y2="282.52"/>
</g>
<g id="LINE_00000021803048867498760360000003919812830424707971_">
	<line class="st0" x1="1108.08" y1="235.24" x2="1087.01" y2="275.63"/>
</g>
<g id="LINE_00000134972561711847748630000017774048664315474618_">
	<line class="st0" x1="1087.01" y1="230.11" x2="1065.71" y2="269.58"/>
</g>
<g id="LINE_00000179644651451771151000000018355588566824149638_">
	<line class="st0" x1="1065.71" y1="225.5" x2="1044.64" y2="264.34"/>
</g>
<g id="LINE_00000128449021344847057880000008087078603747138436_">
	<line class="st0" x1="1044.64" y1="221.52" x2="1023.34" y2="259.75"/>
</g>
<g id="LINE_00000148632204527052759250000001988711207747815297_">
	<line class="st0" x1="1023.34" y1="218.05" x2="1002.27" y2="255.89"/>
</g>
<g id="LINE_00000179645217099408826520000003848972975563773831_">
	<line class="st0" x1="1002.27" y1="215.17" x2="981.2" y2="252.7"/>
</g>
<g id="LINE_00000078037494513722075490000001221373961765305273_">
	<line class="st0" x1="981.2" y1="212.83" x2="959.91" y2="250.13"/>
</g>
<g id="LINE_00000154402398516239380720000008116073306652988328_">
	<line class="st0" x1="959.91" y1="211.02" x2="938.83" y2="248.25"/>
</g>
<g id="LINE_00000104698161959835354540000000916938359828001441_">
	<line class="st0" x1="938.83" y1="209.76" x2="917.54" y2="247"/>
</g>
<g id="LINE_00000078039937644942489320000001616973111771573175_">
	<line class="st0" x1="917.54" y1="209.02" x2="896.47" y2="246.41"/>
</g>
</svg>
