<?xml version="1.0" encoding="utf-8"?>
<!-- Generator: Adobe Illustrator 26.0.2, SVG Export Plug-In . SVG Version: 6.00 Build 0)  -->
<svg version="1.1" id="_x30_" xmlns="http://www.w3.org/2000/svg" xmlns:xlink="http://www.w3.org/1999/xlink" x="0px" y="0px"
	 viewBox="0 0 1920.71 667.55" style="enable-background:new 0 0 1920.71 667.55;" xml:space="preserve">
<style type="text/css">
	.st0{fill:none;stroke:#B5B4B4;stroke-width:0.7087;stroke-linecap:round;stroke-linejoin:round;stroke-miterlimit:10;}
	.st1{fill:none;stroke:#993333;stroke-width:0.7087;stroke-linecap:round;stroke-linejoin:round;stroke-miterlimit:10;}
</style>
<g id="LINE">
	<line class="st0" x1="49.21" y1="205.26" x2="268.65" y2="205.26"/>
</g>
<g id="LINE_00000132080446602051834260000012560467980372593819_">
	<line class="st0" x1="56.54" y1="207.51" x2="268.65" y2="207.51"/>
</g>
<g id="LINE_00000163761684196023570250000016931346347257166757_">
	<line class="st0" x1="1524.96" y1="205.26" x2="1744.63" y2="205.26"/>
</g>
<g id="LINE_00000072244497580869927570000005708052490611904432_">
	<line class="st0" x1="49.21" y1="205.26" x2="49.21" y2="174"/>
</g>
<g id="LINE_00000136407064645906527590000006046203080211414402_">
	<line class="st0" x1="1744.63" y1="205.26" x2="1744.63" y2="174"/>
</g>
<g id="LWPOLYLINE">
	<path class="st0" d="M49.21,174l709.82-12.61c8.08-0.14,16.16-0.35,24.24-0.63"/>
</g>
<g id="LWPOLYLINE_00000083780868509259170150000011042519783271753868_">
	<path class="st0" d="M49.27,177.89l709.82-12.61c8.1-0.14,16.2-0.36,24.3-0.64"/>
</g>
<g id="LWPOLYLINE_00000101089080903656013900000015384563779225496744_">
	<path class="st0" d="M1744.63,174l-710.05-12.62c-8.08-0.14-16.16-0.35-24.24-0.63"/>
</g>
<g id="LWPOLYLINE_00000114774268701776377280000016506625850318124426_">
	<path class="st0" d="M1744.63,177.9l-710.12-12.62c-8.1-0.14-16.21-0.36-24.3-0.64"/>
</g>
<g id="ARC">
	<path class="st0" d="M1010.34,160.76c-75.68-1.47-151.39-1.47-227.07,0"/>
</g>
<g id="ARC_00000172426551081961941290000003155066497726692493_">
	<path class="st0" d="M1010.27,164.65c-75.63-1.47-151.29-1.47-226.92,0"/>
</g>
<g id="LWPOLYLINE_00000078024947759266705600000009322510254070836615_">
	<path class="st0" d="M336.03,168.89c62.22-17.2,121.68-43.14,176.61-77.05C631.61,31.26,763.3-0.1,896.8,0.36"/>
</g>
<g id="LWPOLYLINE_00000026854710589793774810000004343535187198123673_">
	<path class="st0" d="M344.8,168.75c59.44-17.23,116.27-42.44,168.95-74.94C632.37,33.41,763.68,2.15,896.8,2.61"/>
</g>
<g id="LWPOLYLINE_00000159452161486400431270000007988678156617205395_">
	<path class="st0" d="M1457.58,168.89c-62.22-17.2-121.68-43.14-176.61-77.05C1162,31.26,1030.31-0.1,896.8,0.36"/>
</g>
<g id="LWPOLYLINE_00000044174387236130164550000011957640833581761668_">
	<path class="st0" d="M1448.81,168.75c-59.44-17.23-116.27-42.44-168.95-74.94c-118.63-60.4-249.94-91.66-383.05-91.2"/>
</g>
<g id="LWPOLYLINE_00000127758839713409140340000018085175616488713386_">
	<path class="st0" d="M268.65,205.26c15.83,0.68,31.59,2.5,47.15,5.46c19.73,3.98,39.24,8.95,58.47,14.91
		c19.72,5.36,38.82,12.81,56.95,22.23"/>
</g>
<g id="LWPOLYLINE_00000115483680659232751700000001117044246644750238_">
	<path class="st0" d="M268.6,207.51c15.7,0.68,31.33,2.49,46.76,5.42c19.66,3.96,39.11,8.92,58.27,14.86
		c19.96,5.42,39.27,13,57.58,22.6"/>
</g>
<g id="LWPOLYLINE_00000049212232729884281240000013571355945160018056_">
	<path class="st0" d="M431.22,247.86c35.34-43.16,78.16-79.61,126.41-107.61c48.61-32.79,102.1-57.68,158.48-73.75
		c58.81-16.68,119.57-25.52,180.69-26.31"/>
</g>
<g id="LWPOLYLINE_00000034781972085568380600000014033178329120404157_">
	<path class="st0" d="M431.22,250.4c35.92-43.23,79.1-79.85,127.61-108.24c48.43-32.68,101.72-57.49,157.9-73.5
		c58.62-16.62,119.18-25.44,180.11-26.23"/>
</g>
<g id="LWPOLYLINE_00000068649953375845265260000012168405862103857084_">
	<path class="st0" d="M1362.39,247.86c-35.34-43.16-78.16-79.61-126.41-107.61c-48.61-32.79-102.1-57.68-158.48-73.75
		c-58.81-16.68-119.57-25.52-180.69-26.31"/>
</g>
<g id="LWPOLYLINE_00000175319458159464680820000015918479368099170473_">
	<path class="st0" d="M1362.39,250.4c-35.92-43.22-79.1-79.85-127.61-108.24c-48.43-32.68-101.72-57.49-157.9-73.5
		c-58.62-16.62-119.18-25.44-180.11-26.23"/>
</g>
<g id="LINE_00000043431523464111261440000016583597067364126129_">
	<line class="st0" x1="54.5" y1="586.63" x2="54.5" y2="658.87"/>
</g>
<g id="LINE_00000023982201522214440460000011267423374792362131_">
	<line class="st0" x1="75.79" y1="586.63" x2="75.79" y2="658.87"/>
</g>
<g id="LINE_00000160885298879804085270000010883246919925561512_">
	<line class="st0" x1="96.87" y1="586.63" x2="96.87" y2="658.87"/>
</g>
<g id="LINE_00000058581238909757861390000007339016301645615006_">
	<line class="st0" x1="117.93" y1="586.63" x2="117.93" y2="658.87"/>
</g>
<g id="LINE_00000151535182856624567820000000687702567642546324_">
	<line class="st0" x1="139.24" y1="586.63" x2="139.24" y2="658.87"/>
</g>
<g id="LINE_00000158736858703983673310000017163501856535875463_">
	<line class="st0" x1="160.3" y1="586.63" x2="160.3" y2="658.87"/>
</g>
<g id="LINE_00000127744104003324146130000001052841277852562316_">
	<line class="st0" x1="181.6" y1="586.63" x2="181.6" y2="658.87"/>
</g>
<g id="LINE_00000118388431613765249560000005152312083009968815_">
	<line class="st0" x1="202.67" y1="586.63" x2="202.67" y2="658.87"/>
</g>
<g id="LINE_00000093172865680112848590000016357311599582852537_">
	<line class="st0" x1="223.97" y1="586.63" x2="223.97" y2="658.87"/>
</g>
<g id="LINE_00000034085734073542615790000002334193023146887830_">
	<line class="st0" x1="245.04" y1="586.63" x2="245.04" y2="658.87"/>
</g>
<g id="LINE_00000018934401132560986200000010332983943945752194_">
	<line class="st0" x1="266.11" y1="586.63" x2="266.11" y2="658.87"/>
</g>
<g id="LINE_00000011716365694958040470000018284166441818142360_">
	<line class="st0" x1="287.4" y1="586.63" x2="287.4" y2="658.87"/>
</g>
<g id="LINE_00000174596696544511150630000010341983276160147081_">
	<line class="st0" x1="308.47" y1="586.63" x2="308.47" y2="658.87"/>
</g>
<g id="LINE_00000111156211783473219420000006148991357142096039_">
	<line class="st0" x1="329.77" y1="586.63" x2="329.77" y2="658.87"/>
</g>
<g id="LINE_00000079459144289838417630000010560391074201001382_">
	<line class="st0" x1="350.85" y1="586.63" x2="350.85" y2="658.87"/>
</g>
<g id="LINE_00000073703770090756174830000017792476796753019313_">
	<line class="st0" x1="378.39" y1="586.63" x2="378.39" y2="658.87"/>
</g>
<g id="LINE_00000103986332403767076810000009176848508875541385_">
	<line class="st0" x1="405.95" y1="586.63" x2="405.95" y2="658.87"/>
</g>
<g id="LINE_00000128480801494135720890000018111332790487272887_">
	<line class="st0" x1="435.58" y1="586.63" x2="435.58" y2="658.87"/>
</g>
<g id="LINE_00000072987533222679460430000005922804230119780788_">
	<line class="st0" x1="465.21" y1="586.63" x2="465.21" y2="658.87"/>
</g>
<g id="LINE_00000036972622261917709430000015011359019708780957_">
	<line class="st0" x1="492.77" y1="586.63" x2="492.77" y2="658.87"/>
</g>
<g id="LINE_00000041287885273401897010000001116916449699213184_">
	<line class="st0" x1="520.08" y1="586.63" x2="520.08" y2="658.87"/>
</g>
<g id="LINE_00000004522330006222755570000015500301311855567779_">
	<line class="st0" x1="547.64" y1="586.63" x2="547.64" y2="658.87"/>
</g>
<g id="LINE_00000166676568181017600530000004751588483672714395_">
	<line class="st0" x1="575.18" y1="586.63" x2="575.18" y2="658.87"/>
</g>
<g id="LINE_00000151520383171910371800000011449572284286776225_">
	<line class="st0" x1="600.66" y1="586.63" x2="600.66" y2="658.87"/>
</g>
<g id="LINE_00000009569196788107362700000009408359629664921531_">
	<line class="st0" x1="625.89" y1="586.63" x2="625.89" y2="658.87"/>
</g>
<g id="LINE_00000047765869614391099870000005656954981030804409_">
	<line class="st0" x1="647.19" y1="586.63" x2="647.19" y2="658.87"/>
</g>
<g id="LINE_00000173879448024173097880000009509054947118610353_">
	<line class="st0" x1="668.26" y1="586.63" x2="668.26" y2="658.87"/>
</g>
<g id="LINE_00000168832094895105541960000000841815228650659207_">
	<line class="st0" x1="689.56" y1="586.63" x2="689.56" y2="658.87"/>
</g>
<g id="LINE_00000099638302240508683280000006089207655501182126_">
	<line class="st0" x1="710.63" y1="586.63" x2="710.63" y2="658.87"/>
</g>
<g id="LINE_00000090289846159721943380000005331343243806370470_">
	<line class="st0" x1="731.93" y1="586.63" x2="731.93" y2="658.87"/>
</g>
<g id="LINE_00000094597815387843073030000002790647139019885478_">
	<line class="st0" x1="752.99" y1="586.63" x2="752.99" y2="658.87"/>
</g>
<g id="LINE_00000052079866860796325380000002382473187190886801_">
	<line class="st0" x1="774.06" y1="586.63" x2="774.06" y2="658.87"/>
</g>
<g id="LINE_00000026159671055115450790000001606196346266960046_">
	<line class="st0" x1="795.37" y1="586.63" x2="795.37" y2="658.87"/>
</g>
<g id="LINE_00000109728014530526910020000017093515794368583306_">
	<line class="st0" x1="816.44" y1="586.63" x2="816.44" y2="658.87"/>
</g>
<g id="LINE_00000036958087123448572350000011514732910285939587_">
	<line class="st0" x1="837.73" y1="586.63" x2="837.73" y2="658.87"/>
</g>
<g id="LINE_00000036962587348352146440000009160433358455119502_">
	<line class="st0" x1="858.8" y1="586.63" x2="858.8" y2="658.87"/>
</g>
<g id="LINE_00000021114927694516035140000002399368989985413808_">
	<line class="st0" x1="879.87" y1="586.63" x2="879.87" y2="658.87"/>
</g>
<g id="LINE_00000021111834815132736460000017258831970283114667_">
	<line class="st0" x1="901.17" y1="586.63" x2="901.17" y2="658.87"/>
</g>
<g id="LINE_00000129179531032002790950000000190575089975786143_">
	<line class="st0" x1="54.5" y1="586.63" x2="1879.58" y2="586.63"/>
</g>
<g id="LINE_00000150089320303617663160000011001375583826472850_">
	<line class="st0" x1="54.5" y1="598.44" x2="1879.58" y2="598.44"/>
</g>
<g id="LINE_00000143596759146287248910000000635139679174790327_">
	<line class="st0" x1="54.5" y1="602.6" x2="1879.58" y2="602.6"/>
</g>
<g id="LINE_00000029046312288636921510000017662500341202765245_">
	<line class="st0" x1="54.5" y1="622.75" x2="1879.58" y2="622.75"/>
</g>
<g id="LINE_00000160893872873812030440000006661163281270198410_">
	<line class="st0" x1="54.5" y1="658.87" x2="1879.58" y2="658.87"/>
</g>
<g id="LINE_00000152252042898421048790000006850769537790976949_">
	<line class="st0" x1="54.5" y1="647.06" x2="1879.58" y2="647.06"/>
</g>
<g id="LINE_00000066477654675945837130000004180955367422370475_">
	<line class="st0" x1="54.5" y1="642.89" x2="1879.58" y2="642.89"/>
</g>
<g id="LINE_00000091715949285214917330000010414626813815239314_">
	<line class="st0" x1="1747.84" y1="586.63" x2="1747.84" y2="658.87"/>
</g>
<g id="LINE_00000065763845157262988640000017806062893381518228_">
	<line class="st0" x1="1726.54" y1="586.63" x2="1726.54" y2="658.87"/>
</g>
<g id="LINE_00000175321852066323268280000005457273337391640504_">
	<line class="st0" x1="1705.47" y1="586.63" x2="1705.47" y2="658.87"/>
</g>
<g id="LINE_00000062896019210477739520000011319198574419996326_">
	<line class="st0" x1="1684.41" y1="586.63" x2="1684.41" y2="658.87"/>
</g>
<g id="LINE_00000155143125862639234490000017414868324922064296_">
	<line class="st0" x1="1663.1" y1="586.63" x2="1663.1" y2="658.87"/>
</g>
<g id="LINE_00000101097828322073027660000017230304499656793222_">
	<line class="st0" x1="1642.04" y1="586.63" x2="1642.04" y2="658.87"/>
</g>
<g id="LINE_00000147215851645125718430000000467119595975341957_">
	<line class="st0" x1="1620.74" y1="586.63" x2="1620.74" y2="658.87"/>
</g>
<g id="LINE_00000101085447068917964410000010832333211491122072_">
	<line class="st0" x1="1599.67" y1="586.63" x2="1599.67" y2="658.87"/>
</g>
<g id="LINE_00000127735644608085208660000008545714151143007156_">
	<line class="st0" x1="1578.37" y1="586.63" x2="1578.37" y2="658.87"/>
</g>
<g id="LINE_00000065795697258013790980000006882208041930043267_">
	<line class="st0" x1="1557.3" y1="586.63" x2="1557.3" y2="658.87"/>
</g>
<g id="LINE_00000034071314413643989600000004420842173888599211_">
	<line class="st0" x1="1536.23" y1="586.63" x2="1536.23" y2="658.87"/>
</g>
<g id="LINE_00000059992393318923143590000013990519531320294569_">
	<line class="st0" x1="1514.93" y1="586.63" x2="1514.93" y2="658.87"/>
</g>
<g id="LINE_00000029739988595553512510000006416549042613661846_">
	<line class="st0" x1="1493.86" y1="586.63" x2="1493.86" y2="658.87"/>
</g>
<g id="LINE_00000117653877805649273530000011178418952365296263_">
	<line class="st0" x1="1472.56" y1="586.63" x2="1472.56" y2="658.87"/>
</g>
<g id="LINE_00000143599238279714289990000000838173337922426507_">
	<line class="st0" x1="1451.49" y1="586.63" x2="1451.49" y2="658.87"/>
</g>
<g id="LINE_00000088109906930260720870000005928420830837303688_">
	<line class="st0" x1="1423.94" y1="586.63" x2="1423.94" y2="658.87"/>
</g>
<g id="LINE_00000078737684899620182960000016902469936410489531_">
	<line class="st0" x1="1396.39" y1="586.63" x2="1396.39" y2="658.87"/>
</g>
<g id="LINE_00000142177846951155415340000001164840937691640763_">
	<line class="st0" x1="1366.76" y1="586.63" x2="1366.76" y2="658.87"/>
</g>
<g id="LINE_00000092455302511216734950000006777195964293111437_">
	<line class="st0" x1="1337.12" y1="586.63" x2="1337.12" y2="658.87"/>
</g>
<g id="LINE_00000031174397763911145010000018266841001631225277_">
	<line class="st0" x1="1309.57" y1="586.63" x2="1309.57" y2="658.87"/>
</g>
<g id="LINE_00000018234309044589100780000005677231058146116008_">
	<line class="st0" x1="1282.25" y1="586.63" x2="1282.25" y2="658.87"/>
</g>
<g id="LINE_00000081607758053986992030000008569301281762111135_">
	<line class="st0" x1="1254.7" y1="586.63" x2="1254.7" y2="658.87"/>
</g>
<g id="LINE_00000036246521719991043970000008006596150245351063_">
	<line class="st0" x1="1227.15" y1="586.63" x2="1227.15" y2="658.87"/>
</g>
<g id="LINE_00000073719260564807193350000000377688061380896407_">
	<line class="st0" x1="1201.68" y1="586.63" x2="1201.68" y2="658.87"/>
</g>
<g id="LINE_00000021828220374430925660000001099900998836343955_">
	<line class="st0" x1="1176.45" y1="586.63" x2="1176.45" y2="658.87"/>
</g>
<g id="LINE_00000026853303719361826130000009190471567062612400_">
	<line class="st0" x1="1155.15" y1="586.63" x2="1155.15" y2="658.87"/>
</g>
<g id="LINE_00000124152495216577082650000004649031449921192077_">
	<line class="st0" x1="1134.08" y1="586.63" x2="1134.08" y2="658.87"/>
</g>
<g id="LINE_00000017512174675746846910000012779471970669198510_">
	<line class="st0" x1="1112.78" y1="586.63" x2="1112.78" y2="658.87"/>
</g>
<g id="LINE_00000041977827556650749990000013505348367842663835_">
	<line class="st0" x1="1091.71" y1="586.63" x2="1091.71" y2="658.87"/>
</g>
<g id="LINE_00000060751770182699384060000015296742070375352499_">
	<line class="st0" x1="1070.41" y1="586.63" x2="1070.41" y2="658.87"/>
</g>
<g id="LINE_00000121253350744019169620000001609236954245682847_">
	<line class="st0" x1="1049.35" y1="586.63" x2="1049.35" y2="658.87"/>
</g>
<g id="LINE_00000029761908425401835740000008112892148518522274_">
	<line class="st0" x1="1028.27" y1="586.63" x2="1028.27" y2="658.87"/>
</g>
<g id="LINE_00000047771264234140264080000006275809108152232870_">
	<line class="st0" x1="1006.97" y1="586.63" x2="1006.97" y2="658.87"/>
</g>
<g id="LINE_00000083059122296345343790000000615339095047360701_">
	<line class="st0" x1="985.9" y1="586.63" x2="985.9" y2="658.87"/>
</g>
<g id="LINE_00000021819960528343855220000002261557079270942862_">
	<line class="st0" x1="964.6" y1="586.63" x2="964.6" y2="658.87"/>
</g>
<g id="LINE_00000082328104769571328350000005050640221940991923_">
	<line class="st0" x1="943.54" y1="586.63" x2="943.54" y2="658.87"/>
</g>
<g id="LINE_00000168826507209726003890000002663927880753479562_">
	<line class="st0" x1="922.46" y1="586.63" x2="922.46" y2="658.87"/>
</g>
<g id="LINE_00000049182230939302366670000000283018801784179847_">
	<line class="st0" x1="1879.58" y1="658.87" x2="1879.58" y2="586.63"/>
</g>
<g id="LWPOLYLINE_00000144306279304040580130000005362806014300918171_">
	<path class="st0" d="M1524.96,205.26c-15.83,0.68-31.59,2.5-47.15,5.46c-19.73,3.98-39.24,8.95-58.47,14.91
		c-19.72,5.36-38.82,12.81-56.95,22.23"/>
</g>
<g id="LWPOLYLINE_00000183934678151500928710000012250106686970565524_">
	<path class="st0" d="M1525.01,207.51c-15.7,0.68-31.33,2.49-46.76,5.42c-19.66,3.96-39.11,8.92-58.27,14.86
		c-19.96,5.42-39.27,13-57.58,22.6"/>
</g>
<g id="LINE_00000090279614425724523300000008475969422265072303_">
	<line class="st0" x1="71.43" y1="173.61" x2="71.43" y2="205.26"/>
</g>
<g id="LINE_00000034782753480346410820000002748403560771740035_">
	<line class="st0" x1="92.5" y1="173.23" x2="92.5" y2="205.26"/>
</g>
<g id="LINE_00000181797643319568635570000009943277719884935561_">
	<line class="st0" x1="113.8" y1="172.85" x2="113.8" y2="205.26"/>
</g>
<g id="LINE_00000108286487503607460340000001361426123623716004_">
	<line class="st0" x1="134.87" y1="172.48" x2="134.87" y2="205.26"/>
</g>
<g id="LINE_00000022557104284288048150000000624888976679879820_">
	<line class="st0" x1="156.16" y1="172.1" x2="156.16" y2="205.26"/>
</g>
<g id="LINE_00000155831977588429056360000010274724447178429857_">
	<line class="st0" x1="177.24" y1="171.73" x2="177.24" y2="205.26"/>
</g>
<g id="LINE_00000143591313224486111140000015180589830331221635_">
	<line class="st0" x1="198.3" y1="171.35" x2="198.3" y2="205.26"/>
</g>
<g id="LINE_00000048476768646150348520000000363629671213397657_">
	<line class="st0" x1="219.61" y1="170.97" x2="219.61" y2="205.26"/>
</g>
<g id="LINE_00000098194427379487659900000004368657989506096777_">
	<line class="st0" x1="240.67" y1="170.6" x2="240.67" y2="205.26"/>
</g>
<g id="LINE_00000052826779073525125640000017181505058753278103_">
	<line class="st0" x1="261.97" y1="170.22" x2="261.97" y2="205.26"/>
</g>
<g id="LINE_00000087400445967776371670000015469535517711039639_">
	<line class="st0" x1="283.04" y1="169.85" x2="283.04" y2="206.2"/>
</g>
<g id="LINE_00000054970576059891186370000003606561468597945219_">
	<line class="st0" x1="304.11" y1="169.47" x2="304.11" y2="208.72"/>
</g>
<g id="LINE_00000066502099852948028970000000072377222576151681_">
	<line class="st0" x1="325.41" y1="169.09" x2="325.41" y2="212.75"/>
</g>
<g id="LINE_00000109013560487863079310000015118950761995366795_">
	<line class="st0" x1="346.48" y1="165.91" x2="346.48" y2="217.76"/>
</g>
<g id="LINE_00000075145870440660448500000008483517632460777899_">
	<line class="st0" x1="374.03" y1="157.18" x2="374.03" y2="225.56"/>
</g>
<g id="LINE_00000181048956043714004640000001830871572641217457_">
	<line class="st0" x1="401.58" y1="147.14" x2="401.58" y2="234.54"/>
</g>
<g id="LINE_00000056389392147075982120000000083748124619431313_">
	<line class="st0" x1="431.22" y1="134.8" x2="431.22" y2="250.4"/>
</g>
<g id="LINE_00000018233587461168185320000009682251225717104781_">
	<line class="st0" x1="460.85" y1="120.78" x2="460.85" y2="214.99"/>
</g>
<g id="LINE_00000172436525779926047300000009452139756240748207_">
	<line class="st0" x1="488.4" y1="106.13" x2="488.4" y2="189.38"/>
</g>
<g id="LINE_00000065760073823713593260000012376408445241465226_">
	<line class="st0" x1="515.95" y1="90.17" x2="515.95" y2="167.52"/>
</g>
<g id="LINE_00000103984361687348229110000002183382497621887386_">
	<line class="st0" x1="543.27" y1="77.02" x2="543.27" y2="165.22"/>
</g>
<g id="LINE_00000177443761900894997450000008229269037324154248_">
	<line class="st0" x1="570.82" y1="64.96" x2="570.82" y2="164.73"/>
</g>
<g id="LINE_00000001621934478427468380000016609521886821727906_">
	<line class="st0" x1="596.29" y1="54.83" x2="596.29" y2="164.28"/>
</g>
<g id="LINE_00000014613616483853832160000004897940737683653563_">
	<line class="st0" x1="621.75" y1="45.65" x2="621.75" y2="163.83"/>
</g>
<g id="LINE_00000129186683600771668080000010382312157512919486_">
	<line class="st0" x1="642.82" y1="38.75" x2="642.82" y2="163.45"/>
</g>
<g id="LINE_00000063605395224779805410000002309375102907911042_">
	<line class="st0" x1="664.13" y1="32.38" x2="664.13" y2="163.07"/>
</g>
<g id="LINE_00000158733643794918635370000007998839887569458340_">
	<line class="st0" x1="685.19" y1="26.69" x2="685.19" y2="162.7"/>
</g>
<g id="LINE_00000084510148168441563290000004413510658510768312_">
	<line class="st0" x1="706.26" y1="21.58" x2="706.26" y2="162.33"/>
</g>
<g id="LINE_00000124148525231077771570000005901226645351075973_">
	<line class="st0" x1="727.56" y1="16.98" x2="727.56" y2="161.95"/>
</g>
<g id="LINE_00000100378711249619586370000002852535537212793017_">
	<line class="st0" x1="748.63" y1="13.01" x2="748.63" y2="161.57"/>
</g>
<g id="LINE_00000090262506063055911560000000027852584878495417_">
	<line class="st0" x1="769.93" y1="9.55" x2="769.93" y2="161.15"/>
</g>
<g id="LINE_00000127034809743657710440000008999521631265026435_">
	<line class="st0" x1="791" y1="6.68" x2="791" y2="160.61"/>
</g>
<g id="LINE_00000046336180174809520060000002065048902422359995_">
	<line class="st0" x1="812.07" y1="4.35" x2="812.07" y2="160.27"/>
</g>
<g id="LINE_00000010307768061775627910000001101560950078658696_">
	<line class="st0" x1="833.36" y1="2.54" x2="833.36" y2="159.99"/>
</g>
<g id="LINE_00000167358246987499349750000004199137253920681919_">
	<line class="st0" x1="854.44" y1="1.28" x2="854.44" y2="159.8"/>
</g>
<g id="LINE_00000132786547499972615770000014094414103538291087_">
	<line class="st0" x1="875.73" y1="0.55" x2="875.73" y2="159.69"/>
</g>
<g id="LINE_00000124159453540770559740000014385096404868278159_">
	<line class="st0" x1="896.8" y1="0.36" x2="896.8" y2="159.65"/>
</g>
<g id="LINE_00000013156520503165627980000012248473143091580046_">
	<line class="st0" x1="1722.18" y1="173.61" x2="1722.18" y2="205.26"/>
</g>
<g id="LINE_00000075859735834331039090000006746678645201736090_">
	<line class="st0" x1="1701.11" y1="173.23" x2="1701.11" y2="205.26"/>
</g>
<g id="LINE_00000075855925549903473510000012346958048509570705_">
	<line class="st0" x1="1679.81" y1="172.85" x2="1679.81" y2="205.26"/>
</g>
<g id="LINE_00000182506572303623763890000001033428067478082191_">
	<line class="st0" x1="1658.74" y1="172.48" x2="1658.74" y2="205.26"/>
</g>
<g id="LINE_00000079454808201521272800000000921144063856895360_">
	<line class="st0" x1="1637.44" y1="172.1" x2="1637.44" y2="205.26"/>
</g>
<g id="LINE_00000026123612033885557020000015118825164331242625_">
	<line class="st0" x1="1616.37" y1="171.73" x2="1616.37" y2="205.26"/>
</g>
<g id="LINE_00000035505489757001453510000001701801031510156160_">
	<line class="st0" x1="1595.31" y1="171.35" x2="1595.31" y2="205.26"/>
</g>
<g id="LINE_00000008133092482000214070000005227868038591760287_">
	<line class="st0" x1="1574" y1="170.97" x2="1574" y2="205.26"/>
</g>
<g id="LINE_00000136390011922183989440000008480781738197051823_">
	<line class="st0" x1="1552.94" y1="170.6" x2="1552.94" y2="205.26"/>
</g>
<g id="LINE_00000154395323824925209880000006066528274592762047_">
	<line class="st0" x1="1531.64" y1="170.22" x2="1531.64" y2="205.26"/>
</g>
<g id="LINE_00000137103984197243673990000010588329740444365199_">
	<line class="st0" x1="1510.57" y1="169.85" x2="1510.57" y2="206.2"/>
</g>
<g id="LINE_00000010300136760371563700000017876431468812691083_">
	<line class="st0" x1="1489.5" y1="169.47" x2="1489.5" y2="208.72"/>
</g>
<g id="LINE_00000161593751532430867490000005478389776139003298_">
	<line class="st0" x1="1468.2" y1="169.09" x2="1468.2" y2="212.75"/>
</g>
<g id="LINE_00000046325816029867558580000003768101704602292879_">
	<line class="st0" x1="1447.13" y1="165.91" x2="1447.13" y2="217.76"/>
</g>
<g id="LINE_00000147211340808577838080000006625637056293721988_">
	<line class="st0" x1="1419.58" y1="157.18" x2="1419.58" y2="225.56"/>
</g>
<g id="LINE_00000104679510465577565120000003244891437076883099_">
	<line class="st0" x1="1392.03" y1="147.14" x2="1392.03" y2="234.54"/>
</g>
<g id="LINE_00000161632625476508525800000007919818019794763149_">
	<line class="st0" x1="1362.39" y1="134.8" x2="1362.39" y2="250.4"/>
</g>
<g id="LINE_00000052083294047732866360000007627700790822887816_">
	<line class="st0" x1="1332.76" y1="120.78" x2="1332.76" y2="214.99"/>
</g>
<g id="LINE_00000127012965045067340690000016453139673588456379_">
	<line class="st0" x1="1305.21" y1="106.13" x2="1305.21" y2="189.38"/>
</g>
<g id="LINE_00000147189320068121856470000007601021258828298920_">
	<line class="st0" x1="1277.66" y1="90.17" x2="1277.66" y2="167.52"/>
</g>
<g id="LINE_00000049211919887169422580000016634781650826974133_">
	<line class="st0" x1="1250.34" y1="77.02" x2="1250.34" y2="165.22"/>
</g>
<g id="LINE_00000150803134792362696290000012038589519618267567_">
	<line class="st0" x1="1222.78" y1="64.96" x2="1222.78" y2="164.73"/>
</g>
<g id="LINE_00000004508171361643715640000001480781429534697405_">
	<line class="st0" x1="1197.32" y1="54.83" x2="1197.32" y2="164.28"/>
</g>
<g id="LINE_00000098913314998143497170000001779481332263518599_">
	<line class="st0" x1="1171.86" y1="45.65" x2="1171.86" y2="163.83"/>
</g>
<g id="LINE_00000121995818724200348500000008572681438224262065_">
	<line class="st0" x1="1150.78" y1="38.75" x2="1150.78" y2="163.45"/>
</g>
<g id="LINE_00000070805022367386704430000003858637215129797005_">
	<line class="st0" x1="1129.48" y1="32.38" x2="1129.48" y2="163.07"/>
</g>
<g id="LINE_00000090261308125311754400000015397391154518093194_">
	<line class="st0" x1="1108.42" y1="26.69" x2="1108.42" y2="162.7"/>
</g>
<g id="LINE_00000033364784111007766240000014164830655705528453_">
	<line class="st0" x1="1087.35" y1="21.58" x2="1087.35" y2="162.33"/>
</g>
<g id="LINE_00000171688780828098121050000003237093580192467588_">
	<line class="st0" x1="1066.05" y1="16.98" x2="1066.05" y2="161.95"/>
</g>
<g id="LINE_00000110430611456984828930000006275197822930352258_">
	<line class="st0" x1="1044.98" y1="13.01" x2="1044.98" y2="161.57"/>
</g>
<g id="LINE_00000026871365882920109780000015691592700472929697_">
	<line class="st0" x1="1023.68" y1="9.55" x2="1023.68" y2="161.15"/>
</g>
<g id="LINE_00000038402251311318615330000010103834148742069427_">
	<line class="st0" x1="1002.61" y1="6.68" x2="1002.61" y2="160.61"/>
</g>
<g id="LINE_00000002368809278342432610000015921095649977202868_">
	<line class="st0" x1="981.54" y1="4.35" x2="981.54" y2="160.27"/>
</g>
<g id="LINE_00000109009233761072243100000008939101781690227630_">
	<line class="st0" x1="960.24" y1="2.54" x2="960.24" y2="159.99"/>
</g>
<g id="LINE_00000089556630337230300570000004756914075880517012_">
	<line class="st0" x1="939.17" y1="1.28" x2="939.17" y2="159.8"/>
</g>
<g id="LINE_00000056413323171424917300000017984821547442297762_">
	<line class="st0" x1="917.88" y1="0.55" x2="917.88" y2="159.69"/>
</g>
<g id="LINE_00000117650761867571434110000003304537965523249850_">
	<line class="st0" x1="71.43" y1="177.5" x2="49.21" y2="205.26"/>
</g>
<g id="LINE_00000000203610331615726230000017181750486224468892_">
	<line class="st0" x1="92.5" y1="177.13" x2="71.43" y2="205.26"/>
</g>
<g id="LINE_00000126321021623055620700000004679786603850355128_">
	<line class="st0" x1="113.8" y1="176.75" x2="92.5" y2="205.26"/>
</g>
<g id="LINE_00000076571613733961352890000003881381519502006157_">
	<line class="st0" x1="134.87" y1="176.37" x2="113.8" y2="205.26"/>
</g>
<g id="LINE_00000086685019963521257420000006084413889693649086_">
	<line class="st0" x1="156.16" y1="175.99" x2="134.87" y2="205.26"/>
</g>
<g id="LINE_00000067935571050486673270000005950152040552241541_">
	<line class="st0" x1="177.24" y1="175.62" x2="156.16" y2="205.26"/>
</g>
<g id="LINE_00000078020681022943021770000016071917546485324695_">
	<line class="st0" x1="198.3" y1="175.25" x2="177.24" y2="205.26"/>
</g>
<g id="LINE_00000084530253932371686720000008113232996687814824_">
	<line class="st0" x1="219.61" y1="174.87" x2="198.3" y2="205.26"/>
</g>
<g id="LINE_00000072254228857502713540000000822682884033110190_">
	<line class="st0" x1="240.67" y1="174.49" x2="219.61" y2="205.26"/>
</g>
<g id="LINE_00000071533299024823437010000007923685415180676236_">
	<line class="st0" x1="261.97" y1="174.12" x2="240.67" y2="205.26"/>
</g>
<g id="LWPOLYLINE_00000033355215733520687770000016206640820223836549_">
	<rect x="32.77" y="262.68" class="st0" width="4.16" height="69.93"/>
</g>
<g id="LWPOLYLINE_00000143595217462739779840000006040890364337353610_">
	<rect x="45.26" y="262.68" class="st0" width="4.4" height="69.93"/>
</g>
<g id="LWPOLYLINE_00000080898964469238821510000000052722640108693637_">
	<rect x="58" y="262.68" class="st0" width="4.4" height="69.93"/>
</g>
<g id="LWPOLYLINE_00000078742171290180518260000015418241041839257217_">
	<polyline class="st0" points="30.45,254.34 39.71,252.26 56.61,252.26 64.48,254.34 64.48,262.68 30.45,262.68 30.45,254.34 	"/>
</g>
<g id="LWPOLYLINE_00000122706384677997921960000010047314061658051995_">
	<polyline class="st0" points="41.8,182.11 41.8,252.26 54.53,252.26 54.53,205.96 48.05,205.96 48.05,173.78 45.26,174 
		45.26,182.11 41.8,182.11 	"/>
</g>
<g id="LINE_00000038377486340954114020000008316740467395549866_">
	<line class="st0" x1="56.54" y1="207.51" x2="56.54" y2="205.26"/>
</g>
<g id="LINE_00000069396938207269447560000006362176942521477798_">
	<line class="st0" x1="1737.07" y1="207.51" x2="1524.96" y2="207.51"/>
</g>
<g id="LINE_00000040538559176778748820000005874816433392807812_">
	<line class="st0" x1="1737.07" y1="207.51" x2="1737.07" y2="205.26"/>
</g>
<g id="LWPOLYLINE_00000168839726386809176290000017713027665275595921_">
	<rect x="422.65" y="249.25" class="st0" width="17.13" height="6.48"/>
</g>
<g id="LWPOLYLINE_00000074416551796643468850000017945043441916354743_">
	<polyline class="st0" points="401.58,259.9 422.65,255.73 439.78,255.73 460.85,259.9 401.58,259.9 	"/>
</g>
<g id="LWPOLYLINE_00000029011283299906161600000006813481573000393607_">
	<rect x="401.58" y="259.9" class="st0" width="59.27" height="10.65"/>
</g>
<g id="LWPOLYLINE_00000117634798735910808860000016817860924005031581_">
	<polyline class="st0" points="403.66,270.55 371.66,493.87 375.96,493.87 408.06,270.55 403.66,270.55 	"/>
</g>
<g id="LWPOLYLINE_00000094577623810826888860000013358275231180461735_">
	<polyline class="st0" points="416.4,270.55 384.4,493.87 388.7,493.87 420.8,270.55 416.4,270.55 	"/>
</g>
<g id="LWPOLYLINE_00000166659490524714917340000010745677801370712250_">
	<polyline class="st0" points="429.13,270.55 397.13,493.87 401.43,493.87 433.53,270.55 429.13,270.55 	"/>
</g>
<g id="LWPOLYLINE_00000127758025154453255950000003526593446613376141_">
	<rect x="441.87" y="270.55" class="st0" width="4.17" height="223.32"/>
</g>
<g id="LWPOLYLINE_00000101797509325850140800000000355763094651979959_">
	<rect x="454.6" y="270.55" class="st0" width="4.17" height="223.32"/>
</g>
<g id="LWPOLYLINE_00000132794039769086653660000012399742778343269305_">
	<rect x="1353.83" y="249.25" class="st0" width="17.13" height="6.48"/>
</g>
<g id="LWPOLYLINE_00000174567135377137414210000004948547671847843462_">
	<polyline class="st0" points="1392.03,259.9 1370.96,255.73 1353.83,255.73 1332.76,259.9 1392.03,259.9 	"/>
</g>
<g id="LWPOLYLINE_00000145016779374348126020000007598615533894036626_">
	<rect x="1332.76" y="259.9" class="st0" width="59.27" height="10.65"/>
</g>
<g id="LWPOLYLINE_00000044870183504155435860000006718589090430002354_">
	<polyline class="st0" points="1389.94,270.55 1421.95,493.87 1417.64,493.87 1385.55,270.55 1389.94,270.55 	"/>
</g>
<g id="LWPOLYLINE_00000057130565380834100610000015097571759536970649_">
	<polyline class="st0" points="1377.21,270.55 1409.21,493.87 1404.91,493.87 1372.81,270.55 1377.21,270.55 	"/>
</g>
<g id="LWPOLYLINE_00000097491366048845992390000001674265868785331872_">
	<polyline class="st0" points="1364.48,270.55 1396.48,493.87 1392.18,493.87 1360.08,270.55 1364.48,270.55 	"/>
</g>
<g id="LWPOLYLINE_00000055682522441207440370000014088800831819226521_">
	<rect x="1347.58" y="270.55" class="st0" width="4.17" height="223.32"/>
</g>
<g id="LWPOLYLINE_00000035507339520840759870000011534520920632441020_">
	<rect x="1334.84" y="270.55" class="st0" width="4.17" height="223.32"/>
</g>
<g id="LWPOLYLINE_00000048470942430974336300000010650797931067865986_">
	<polyline class="st1" points="0.35,243.69 202.24,269.39 264.05,297.78 272.39,299.26 281.67,300.31 288.6,303.2 294.09,308.16 
		298.63,313.97 349.98,312 370.44,307.36 392.09,307.36 418.72,316.62 424.82,322.39 433.77,324.27 449.97,328.66 455.76,332.83 
		465.71,339.78 468.77,341.45 482.15,345.56 501.77,348.48 571.51,349.73 596.05,345.56 612.98,342.19 618.51,341.97 660.88,336.99 
		671.77,333.06 716.45,332.83 731.27,336.76 759.28,345.56 769.23,345.56 792.85,341.16 857.67,343.25 863.6,343.44 924.67,343.44 
		930.61,343.71 947.74,342.09 954.69,341.16 969.63,339.16 986.17,345.56 1012.79,345.56 1032.24,336.99 1047.75,335.37 
		1060.26,336.99 1069.05,336.99 1081.72,334.18 1096.37,329.12 1107.72,324.27 1119.52,324.27 1141.75,328.43 1269.78,336.99 
		1312.27,336.93 1339.7,329.35 1423.28,328.43 1448.98,336.99 1511.03,336.99 1539.73,328.66 1587.66,315.93 1600.28,311.4 
		1611.5,307.13 1671.66,285.37 1707.35,273.56 1769.4,252.26 1781.91,248.09 1831.45,243.93 1920.35,240.68 	"/>
</g>
<g id="LWPOLYLINE_00000048486160151241599180000000095658438485779865_">
	<polyline class="st0" points="1745.56,173.78 1748.1,174 1748.1,181.41 1751.58,181.41 1751.58,183.03 1753.2,183.03 
		1753.2,186.27 1751.81,188.82 1751.81,250.87 1739.31,250.87 1739.31,205.96 1745.56,205.96 1745.56,173.78 	"/>
</g>
<g id="LWPOLYLINE_00000139263302168764262780000016814443690819678119_">
	<polygon class="st0" points="1754.13,250.87 1736.99,250.87 1728.66,254.34 1762.46,254.34 	"/>
</g>
<g id="LWPOLYLINE_00000126315536019830515770000011836963229874758530_">
	<rect x="1728.66" y="254.34" class="st0" width="33.8" height="8.33"/>
</g>
<g id="LWPOLYLINE_00000175280126349748147890000000265621765613953722_">
	<rect x="1730.74" y="262.68" class="st0" width="4.17" height="231.2"/>
</g>
<g id="LWPOLYLINE_00000171693998843181037000000000813632778038181788_">
	<rect x="1743.48" y="262.68" class="st0" width="4.17" height="231.2"/>
</g>
<g id="LWPOLYLINE_00000042702053965825228970000008283988376519405470_">
	<rect x="1756.21" y="262.68" class="st0" width="4.17" height="231.2"/>
</g>
<g id="LWPOLYLINE_00000054979145678513349420000000846225925995188902_">
	<polyline class="st0" points="1748.57,181.18 1877.29,182.34 1877.29,174.93 1748.57,173.59 1748.57,181.18 	"/>
</g>
<g id="LWPOLYLINE_00000071551797202605998100000013168419511881465508_">
	<polyline class="st0" points="1874.29,182.81 1877.76,182.81 1877.76,183.5 1885.17,183.5 1885.17,189.29 1872.67,189.29 
		1872.67,184.88 1874.29,184.88 1874.29,182.81 	"/>
</g>
<g id="LWPOLYLINE_00000065063939926549034370000006387992223582164367_">
	<polyline class="st0" points="1872.67,189.29 1873.59,192.76 1884.24,192.76 1885.17,189.29 1872.67,189.29 	"/>
</g>
<g id="LWPOLYLINE_00000047019932885103549220000014503190693118524558_">
	<rect x="1873.59" y="192.76" class="st0" width="10.65" height="48.15"/>
</g>
<g id="LWPOLYLINE_00000033366857085847941760000014370541603003481475_">
	<polyline class="st0" points="1871.51,240.91 1886.32,240.91 1895.82,244.15 1862.01,244.15 1871.51,240.91 	"/>
</g>
<g id="LWPOLYLINE_00000015350323357820750480000015254005753332483005_">
	<rect x="1862.01" y="244.15" class="st0" width="33.8" height="8.57"/>
</g>
<g id="LWPOLYLINE_00000080171515734527909660000008522473915515515287_">
	<rect x="1864.1" y="252.72" class="st0" width="4.17" height="241.15"/>
</g>
<g id="LWPOLYLINE_00000155864720998109688260000008271650027240220041_">
	<rect x="1876.83" y="252.72" class="st0" width="4.17" height="241.15"/>
</g>
<g id="LWPOLYLINE_00000101826116630028458000000014121074616531844796_">
	<rect x="1889.57" y="252.72" class="st0" width="4.17" height="241.15"/>
</g>
<g id="LWPOLYLINE_00000132775089265511486680000012971913382944059011_">
	<rect x="37.59" y="584.55" class="st0" width="33.81" height="76.17"/>
</g>
<g id="LWPOLYLINE_00000180355248292021917500000005261736614927556539_">
	<rect x="405.95" y="578.29" class="st0" width="59.27" height="88.91"/>
</g>
<g id="LWPOLYLINE_00000181048072196201907800000003520829181384365979_">
	<rect x="1337.12" y="578.29" class="st0" width="59.27" height="88.91"/>
</g>
<g id="LWPOLYLINE_00000076593390287773712290000014577512208080477594_">
	<rect x="1730.71" y="584.55" class="st0" width="34.03" height="76.17"/>
</g>
<g id="LWPOLYLINE_00000101797634780164261670000008821747649402208943_">
	<rect x="1862.67" y="584.55" class="st0" width="33.8" height="76.17"/>
</g>
<g id="LINE_00000025416650215783602190000014002194034357899965_">
	<line class="st0" x1="283.04" y1="173.74" x2="261.97" y2="205.26"/>
</g>
<g id="LINE_00000078762901868019915250000012358870149472464574_">
	<line class="st0" x1="304.11" y1="173.37" x2="283.04" y2="206.2"/>
</g>
<g id="LINE_00000039846771289250947530000008195677179080515969_">
	<line class="st0" x1="325.41" y1="172.99" x2="304.11" y2="208.72"/>
</g>
<g id="LINE_00000042734804552759820660000012822758717248948116_">
	<line class="st0" x1="346.48" y1="168.26" x2="325.41" y2="212.75"/>
</g>
<g id="LINE_00000176746640122670910220000001085737914077955983_">
	<line class="st0" x1="374.03" y1="159.56" x2="346.48" y2="217.76"/>
</g>
<g id="LINE_00000018946115876307556610000001694989440559485103_">
	<line class="st0" x1="401.58" y1="149.56" x2="374.03" y2="225.56"/>
</g>
<g id="LINE_00000152247751332131402610000008161879666689250182_">
	<line class="st0" x1="431.22" y1="137.27" x2="401.58" y2="234.54"/>
</g>
<g id="LINE_00000052797883499023731350000005594168503402859705_">
	<line class="st0" x1="431.22" y1="137.27" x2="460.85" y2="214.99"/>
</g>
<g id="LINE_00000102536792154584374350000003047557154261562813_">
	<line class="st0" x1="460.85" y1="123.3" x2="488.4" y2="189.38"/>
</g>
<g id="LINE_00000120519093762861884440000002082122842836908673_">
	<line class="st0" x1="488.4" y1="108.71" x2="515.95" y2="167.52"/>
</g>
<g id="LINE_00000170268644356719892940000013296239254207953078_">
	<line class="st0" x1="515.95" y1="92.69" x2="543.27" y2="148.93"/>
</g>
<g id="LINE_00000117659007435295608550000010742063015898252933_">
	<line class="st0" x1="543.27" y1="79.49" x2="570.82" y2="131.62"/>
</g>
<g id="LINE_00000111904370583891563160000001451891224413616036_">
	<line class="st0" x1="570.82" y1="67.39" x2="596.29" y2="116.41"/>
</g>
<g id="LINE_00000060750964875263690730000013608918799170178223_">
	<line class="st0" x1="596.29" y1="57.24" x2="621.75" y2="102.96"/>
</g>
<g id="LINE_00000043432631596794573430000006670886810738865797_">
	<line class="st0" x1="621.75" y1="48.03" x2="642.82" y2="93.07"/>
</g>
<g id="LINE_00000069364488282087969600000001632989746621667215_">
	<line class="st0" x1="642.82" y1="41.11" x2="664.13" y2="84.13"/>
</g>
<g id="LINE_00000134242194727317845630000010568745659052676007_">
	<line class="st0" x1="664.13" y1="34.72" x2="685.19" y2="76.3"/>
</g>
<g id="LINE_00000057135815105403059480000013950916806156550785_">
	<line class="st0" x1="685.19" y1="29.01" x2="706.26" y2="69.41"/>
</g>
<g id="LINE_00000158031120507056851290000001949720077725572753_">
	<line class="st0" x1="706.26" y1="23.88" x2="727.56" y2="63.36"/>
</g>
<g id="LINE_00000044881437344423373850000010585125056577927332_">
	<line class="st0" x1="727.56" y1="19.28" x2="748.63" y2="58.12"/>
</g>
<g id="LINE_00000023998821783419527150000009415310843712414126_">
	<line class="st0" x1="748.63" y1="15.29" x2="769.93" y2="53.53"/>
</g>
<g id="LINE_00000065769527674295456260000017136886637403117988_">
	<line class="st0" x1="769.93" y1="11.83" x2="791" y2="49.67"/>
</g>
<g id="LINE_00000134237002957990574540000004576281197835052208_">
	<line class="st0" x1="791" y1="8.95" x2="812.07" y2="46.47"/>
</g>
<g id="LINE_00000007394137196831088750000012985882959373907335_">
	<line class="st0" x1="812.07" y1="6.61" x2="833.36" y2="43.91"/>
</g>
<g id="LINE_00000171705211490554463970000008236899352079476127_">
	<line class="st0" x1="833.36" y1="4.79" x2="854.44" y2="42.03"/>
</g>
<g id="LINE_00000150781408159540500210000003606801713724621491_">
	<line class="st0" x1="854.44" y1="3.53" x2="875.73" y2="40.78"/>
</g>
<g id="LINE_00000003103133517971530500000002973936511839183530_">
	<line class="st0" x1="875.73" y1="2.8" x2="896.8" y2="40.18"/>
</g>
<g id="LINE_00000034071286644445874050000008276030764431139720_">
	<line class="st0" x1="1722.19" y1="177.5" x2="1744.42" y2="205.26"/>
</g>
<g id="LINE_00000012465562970426121540000001661489999993784486_">
	<line class="st0" x1="1701.13" y1="177.13" x2="1722.19" y2="205.26"/>
</g>
<g id="LINE_00000083802319851217903800000004223253862327327365_">
	<line class="st0" x1="1679.82" y1="176.75" x2="1701.13" y2="205.26"/>
</g>
<g id="LINE_00000176759338726679809030000000079448742552861312_">
	<line class="st0" x1="1658.76" y1="176.37" x2="1679.82" y2="205.26"/>
</g>
<g id="LINE_00000008831060898402958010000017391984447254831248_">
	<line class="st0" x1="1637.46" y1="175.99" x2="1658.76" y2="205.26"/>
</g>
<g id="LINE_00000020376995086630893190000015821551159158839716_">
	<line class="st0" x1="1616.39" y1="175.62" x2="1637.46" y2="205.26"/>
</g>
<g id="LINE_00000138563882285776624230000006083423746400132515_">
	<line class="st0" x1="1595.32" y1="175.25" x2="1616.39" y2="205.26"/>
</g>
<g id="LINE_00000031201430386451373470000005923562997181369505_">
	<line class="st0" x1="1574.02" y1="174.87" x2="1595.32" y2="205.26"/>
</g>
<g id="LINE_00000154400049691705629740000006955683460431655574_">
	<line class="st0" x1="1552.95" y1="174.49" x2="1574.02" y2="205.26"/>
</g>
<g id="LINE_00000008145108180658000810000006622734901308317084_">
	<line class="st0" x1="1531.65" y1="174.12" x2="1552.95" y2="205.26"/>
</g>
<g id="LINE_00000098900114366843233310000007165625692293709952_">
	<line class="st0" x1="1510.58" y1="173.74" x2="1531.65" y2="205.26"/>
</g>
<g id="LINE_00000129908781081781048450000018273508854738364308_">
	<line class="st0" x1="1489.52" y1="173.37" x2="1510.58" y2="206.2"/>
</g>
<g id="LINE_00000078020211231691215560000015179749521753950095_">
	<line class="st0" x1="1468.21" y1="172.99" x2="1489.52" y2="208.72"/>
</g>
<g id="LINE_00000036951928091508519360000010304557735584850575_">
	<line class="st0" x1="1447.15" y1="168.26" x2="1468.21" y2="212.75"/>
</g>
<g id="LINE_00000014594738879268725590000015946326671642374057_">
	<line class="st0" x1="1419.6" y1="159.56" x2="1447.15" y2="217.76"/>
</g>
<g id="LINE_00000127033583579191733900000011851091785421450161_">
	<line class="st0" x1="1392.05" y1="149.56" x2="1419.6" y2="225.56"/>
</g>
<g id="LINE_00000117658572114244939290000013225104327118589073_">
	<line class="st0" x1="1362.41" y1="137.27" x2="1392.05" y2="234.54"/>
</g>
<g id="LINE_00000002347248814064604480000003716006770881708733_">
	<line class="st0" x1="1362.41" y1="137.27" x2="1332.78" y2="214.99"/>
</g>
<g id="LINE_00000119082931716385459290000016474129409922760609_">
	<line class="st0" x1="1332.78" y1="123.3" x2="1305.23" y2="189.38"/>
</g>
<g id="LINE_00000167360449294346008200000007873559897025794193_">
	<line class="st0" x1="1305.23" y1="108.71" x2="1277.68" y2="167.52"/>
</g>
<g id="LINE_00000013915523101351287930000011057262531116206764_">
	<line class="st0" x1="1277.68" y1="92.69" x2="1250.35" y2="148.93"/>
</g>
<g id="LINE_00000075141601989924948310000013171261866036008839_">
	<line class="st0" x1="1250.35" y1="79.49" x2="1222.8" y2="131.62"/>
</g>
<g id="LINE_00000046321582994208260260000008992114434952066723_">
	<line class="st0" x1="1222.8" y1="67.39" x2="1197.34" y2="116.41"/>
</g>
<g id="LINE_00000145045053511419461330000014663209390387631760_">
	<line class="st0" x1="1197.34" y1="57.24" x2="1171.87" y2="102.96"/>
</g>
<g id="LINE_00000089554330223480128460000002367849260561808037_">
	<line class="st0" x1="1171.87" y1="48.03" x2="1150.8" y2="93.07"/>
</g>
<g id="LINE_00000137834565237217302480000015669597578814306717_">
	<line class="st0" x1="1150.8" y1="41.11" x2="1129.5" y2="84.13"/>
</g>
<g id="LINE_00000016049024376792405620000005192727154285950907_">
	<line class="st0" x1="1129.5" y1="34.72" x2="1108.44" y2="76.3"/>
</g>
<g id="LINE_00000021803048867498760360000003919812830424707971_">
	<line class="st0" x1="1108.44" y1="29.01" x2="1087.36" y2="69.41"/>
</g>
<g id="LINE_00000134972561711847748630000017774048664315474618_">
	<line class="st0" x1="1087.36" y1="23.88" x2="1066.06" y2="63.36"/>
</g>
<g id="LINE_00000179644651451771151000000018355588566824149638_">
	<line class="st0" x1="1066.06" y1="19.28" x2="1044.99" y2="58.12"/>
</g>
<g id="LINE_00000128449021344847057880000008087078603747138436_">
	<line class="st0" x1="1044.99" y1="15.29" x2="1023.69" y2="53.53"/>
</g>
<g id="LINE_00000148632204527052759250000001988711207747815297_">
	<line class="st0" x1="1023.69" y1="11.83" x2="1002.62" y2="49.67"/>
</g>
<g id="LINE_00000179645217099408826520000003848972975563773831_">
	<line class="st0" x1="1002.62" y1="8.95" x2="981.56" y2="46.47"/>
</g>
<g id="LINE_00000078037494513722075490000001221373961765305273_">
	<line class="st0" x1="981.56" y1="6.61" x2="960.26" y2="43.91"/>
</g>
<g id="LINE_00000154402398516239380720000008116073306652988328_">
	<line class="st0" x1="960.26" y1="4.79" x2="939.19" y2="42.03"/>
</g>
<g id="LINE_00000104698161959835354540000000916938359828001441_">
	<line class="st0" x1="939.19" y1="3.53" x2="917.89" y2="40.78"/>
</g>
<g id="LINE_00000078039937644942489320000001616973111771573175_">
	<line class="st0" x1="917.89" y1="2.8" x2="896.82" y2="40.18"/>
</g>
</svg>
